%
M48
M72
T01C0.0197
T02C0.0400
T03C0.0512
T04C0.0520
T05C0.0630
%
T01
X4923Y6866
X5422Y8613
X6171Y8613
X6919Y8613
X7918Y8489
X8791Y9237
X9166Y8613
X9166Y9986
X8542Y9986
X7419Y9986
X8292Y11234
X8167Y12607
X9166Y12981
X9166Y14354
X9041Y15478
X8542Y16226
X8653Y18210
X7668Y19846
X5547Y16726
X3550Y16726
X2676Y12981
X2926Y12357
X2426Y11983
X3550Y11359
X3300Y9986
X2551Y8863
X1303Y7365
X4603Y8724
X5796Y9861
X5921Y10610
X5422Y12981
X4548Y12981
X6919Y12981
X11163Y11733
X12411Y11858
X13160Y12981
X13908Y11858
X13784Y9113
X13160Y7989
X12161Y9113
X9041Y6866
X10788Y1874
X14657Y1874
X16779Y2623
X19524Y7365
X16529Y7865
X17403Y10610
X18776Y11109
X10913Y17100
X11038Y19846
T02
X3533Y3141
X2871Y3892
X2210Y4642
X1801Y6242
X2801Y6242
X3801Y6242
X4194Y2391
X17674Y8373
X18674Y8371
X19674Y8369
T03
X15101Y7833
X10298Y7833
X10298Y3030
X12660Y2243
X15023Y3030
X15023Y13137
X10219Y13137
X10298Y17941
X12660Y18728
X15023Y17941
T04
X17654Y16364
X17654Y14384
X18674Y11989
X18674Y10009
X16146Y10485
X14166Y10485
X12153Y10485
X10173Y10485
X17652Y6608
X17652Y4628
X8422Y2505
X6442Y2488
T05
X6434Y5258
X8434Y5258
X6434Y15758
X4434Y15758
X2434Y15758
M30
