G75*
G70*
%OFA0B0*%
%FSLAX24Y24*%
%IPPOS*%
%LPD*%
%AMOC8*
5,1,8,0,0,1.08239X$1,22.5*
%
%ADD10C,0.0100*%
%ADD11R,0.0630X0.0710*%
%ADD12C,0.1500*%
%ADD13C,0.0780*%
%ADD14R,0.0630X0.0709*%
%ADD15C,0.0600*%
%ADD16R,0.1024X0.0551*%
%ADD17C,0.0984*%
%ADD18C,0.0240*%
%ADD19C,0.0357*%
%ADD20C,0.0160*%
%ADD21C,0.0320*%
%ADD22C,0.0400*%
%ADD23C,0.0760*%
D10*
X007766Y000751D02*
X013187Y000751D01*
X013187Y000750D02*
X013524Y000758D01*
X013861Y000782D01*
X014196Y000822D01*
X014528Y000878D01*
X014858Y000950D01*
X015184Y001037D01*
X015505Y001140D01*
X015821Y001258D01*
X016131Y001390D01*
X016434Y001538D01*
X016731Y001699D01*
X017019Y001875D01*
X017298Y002064D01*
X017568Y002266D01*
X017828Y002481D01*
X018078Y002708D01*
X018316Y002946D01*
X018543Y003196D01*
X018758Y003456D01*
X018960Y003726D01*
X019149Y004005D01*
X019325Y004294D01*
X019486Y004590D01*
X019634Y004893D01*
X019766Y005203D01*
X019884Y005519D01*
X019987Y005840D01*
X020074Y006166D01*
X020146Y006496D01*
X020202Y006828D01*
X020242Y007163D01*
X020266Y007500D01*
X020274Y007837D01*
X020273Y007837D02*
X020273Y013258D01*
X020274Y013258D02*
X020266Y013595D01*
X020242Y013932D01*
X020202Y014267D01*
X020146Y014599D01*
X020074Y014929D01*
X019987Y015255D01*
X019884Y015576D01*
X019766Y015892D01*
X019634Y016202D01*
X019486Y016505D01*
X019325Y016802D01*
X019149Y017090D01*
X018960Y017369D01*
X018758Y017639D01*
X018543Y017899D01*
X018316Y018149D01*
X018078Y018387D01*
X017828Y018614D01*
X017568Y018829D01*
X017298Y019031D01*
X017019Y019220D01*
X016731Y019396D01*
X016434Y019557D01*
X016131Y019705D01*
X015821Y019837D01*
X015505Y019955D01*
X015184Y020058D01*
X014858Y020145D01*
X014528Y020217D01*
X014196Y020273D01*
X013861Y020313D01*
X013524Y020337D01*
X013187Y020345D01*
X007766Y020345D01*
X007429Y020337D01*
X007092Y020313D01*
X006757Y020273D01*
X006425Y020217D01*
X006095Y020145D01*
X005769Y020058D01*
X005448Y019955D01*
X005132Y019837D01*
X004822Y019705D01*
X004519Y019557D01*
X004222Y019396D01*
X003934Y019220D01*
X003655Y019031D01*
X003385Y018829D01*
X003125Y018614D01*
X002875Y018387D01*
X002637Y018149D01*
X002410Y017899D01*
X002195Y017639D01*
X001993Y017369D01*
X001804Y017090D01*
X001628Y016802D01*
X001467Y016505D01*
X001319Y016202D01*
X001187Y015892D01*
X001069Y015576D01*
X000966Y015255D01*
X000879Y014929D01*
X000807Y014599D01*
X000751Y014267D01*
X000711Y013932D01*
X000687Y013595D01*
X000679Y013258D01*
X000679Y007837D01*
X000687Y007500D01*
X000711Y007163D01*
X000751Y006828D01*
X000807Y006496D01*
X000879Y006166D01*
X000966Y005840D01*
X001069Y005519D01*
X001187Y005203D01*
X001319Y004893D01*
X001467Y004590D01*
X001628Y004294D01*
X001804Y004005D01*
X001993Y003726D01*
X002195Y003456D01*
X002410Y003196D01*
X002637Y002946D01*
X002875Y002708D01*
X003125Y002481D01*
X003385Y002266D01*
X003655Y002064D01*
X003934Y001875D01*
X004222Y001699D01*
X004519Y001538D01*
X004822Y001390D01*
X005132Y001258D01*
X005448Y001140D01*
X005769Y001037D01*
X006095Y000950D01*
X006425Y000878D01*
X006757Y000822D01*
X007092Y000782D01*
X007429Y000758D01*
X007766Y000750D01*
D11*
X007995Y009134D03*
X006876Y009134D03*
X006846Y010588D03*
X007966Y010588D03*
X007955Y011973D03*
X006836Y011973D03*
X005245Y010584D03*
X004125Y010584D03*
X004100Y009341D03*
X005220Y009341D03*
D12*
X006434Y005258D03*
X008434Y005258D03*
X006434Y015758D03*
X004434Y015758D03*
X002434Y015758D03*
D13*
X010173Y010875D02*
X010173Y010095D01*
X012153Y010095D02*
X012153Y010875D01*
X014166Y010875D02*
X014166Y010095D01*
X016146Y010095D02*
X016146Y010875D01*
X018284Y010009D02*
X019064Y010009D01*
X019064Y011989D02*
X018284Y011989D01*
X018044Y014384D02*
X017264Y014384D01*
X017264Y016364D02*
X018044Y016364D01*
X018042Y006608D02*
X017262Y006608D01*
X017262Y004628D02*
X018042Y004628D01*
X008419Y002895D02*
X008425Y002115D01*
X006445Y002098D02*
X006439Y002878D01*
D14*
X005208Y012009D03*
X004106Y012009D03*
X004102Y017623D03*
X005204Y017623D03*
X005021Y018699D03*
X006123Y018699D03*
D15*
X003758Y003340D02*
X003308Y002943D01*
X002646Y003693D02*
X003096Y004090D01*
X002435Y004840D02*
X001985Y004443D01*
X001801Y005942D02*
X001801Y006542D01*
X002801Y006542D02*
X002801Y005942D01*
X003801Y005942D02*
X003801Y006542D01*
X004419Y002590D02*
X003969Y002193D01*
X017674Y008073D02*
X017675Y008673D01*
X018675Y008671D02*
X018674Y008071D01*
X019674Y008069D02*
X019675Y008669D01*
D16*
X008870Y017079D03*
X007256Y017079D03*
X007334Y019243D03*
X008948Y019243D03*
D17*
X010298Y017941D03*
X012660Y018728D03*
X015023Y017941D03*
X015023Y013137D03*
X010219Y013137D03*
X010298Y007833D03*
X015101Y007833D03*
X015023Y003030D03*
X012660Y002243D03*
X010298Y003030D03*
D18*
X004434Y015758D02*
X004423Y015769D01*
X004423Y016601D01*
X005204Y017382D01*
X005204Y017623D01*
X007044Y017623D01*
X007155Y017636D01*
X007175Y017623D02*
X007044Y017623D01*
X007175Y017623D02*
X007256Y017543D01*
X007256Y017079D01*
X006123Y018699D02*
X005921Y018652D01*
X006046Y018972D01*
X006545Y019471D01*
X007063Y019471D01*
X007334Y019243D01*
D19*
X007668Y019846D03*
X008653Y018210D03*
X008542Y016226D03*
X009041Y015478D03*
X009166Y014354D03*
X009166Y012981D03*
X008167Y012607D03*
X006919Y012981D03*
X005422Y012981D03*
X004548Y012981D03*
X002926Y012357D03*
X002426Y011983D03*
X002676Y012981D03*
X003550Y011359D03*
X003300Y009986D03*
X002551Y008863D03*
X001303Y007365D03*
X004603Y008724D03*
X005422Y008613D03*
X006171Y008613D03*
X006919Y008613D03*
X007918Y008489D03*
X008791Y009237D03*
X009166Y008613D03*
X009166Y009986D03*
X008542Y009986D03*
X007419Y009986D03*
X008292Y011234D03*
X005921Y010610D03*
X005796Y009861D03*
X004923Y006866D03*
X009041Y006866D03*
X012161Y009113D03*
X013160Y007989D03*
X013784Y009113D03*
X016529Y007865D03*
X017403Y010610D03*
X018776Y011109D03*
X019524Y007365D03*
X016779Y002623D03*
X014657Y001874D03*
X010788Y001874D03*
X011163Y011733D03*
X012411Y011858D03*
X013160Y012981D03*
X013908Y011858D03*
X010913Y017100D03*
X011038Y019846D03*
X005547Y016726D03*
X003550Y016726D03*
D20*
X003651Y016601D02*
X003218Y016601D01*
X003140Y016678D02*
X002878Y016830D01*
X002586Y016908D01*
X002337Y016908D01*
X002517Y017188D01*
X003130Y017894D01*
X003837Y018507D01*
X004526Y018950D01*
X004526Y018776D01*
X004943Y018776D01*
X004943Y018621D01*
X004526Y018621D01*
X004526Y018321D01*
X004538Y018275D01*
X004562Y018234D01*
X004571Y018225D01*
X004550Y018204D01*
X004518Y018127D01*
X004486Y018145D01*
X004441Y018157D01*
X004180Y018157D01*
X004180Y017700D01*
X004025Y017700D01*
X004025Y017545D01*
X004180Y017545D01*
X004180Y017092D01*
X004129Y017042D01*
X003982Y016895D01*
X003944Y016803D01*
X003728Y016678D01*
X003514Y016464D01*
X003434Y016326D01*
X003355Y016464D01*
X003140Y016678D01*
X003000Y016759D02*
X003869Y016759D01*
X004005Y016918D02*
X002344Y016918D01*
X002446Y017076D02*
X004163Y017076D01*
X004025Y017089D02*
X003763Y017089D01*
X003718Y017101D01*
X003677Y017124D01*
X003643Y017158D01*
X003619Y017199D01*
X003607Y017245D01*
X003607Y017545D01*
X004025Y017545D01*
X004025Y017089D01*
X004025Y017235D02*
X004180Y017235D01*
X004180Y017393D02*
X004025Y017393D01*
X004025Y017552D02*
X002833Y017552D01*
X002970Y017710D02*
X003607Y017710D01*
X003607Y017700D02*
X004025Y017700D01*
X004025Y018157D01*
X003763Y018157D01*
X003718Y018145D01*
X003677Y018121D01*
X003643Y018088D01*
X003619Y018047D01*
X003607Y018001D01*
X003607Y017700D01*
X003607Y017869D02*
X003107Y017869D01*
X003283Y018027D02*
X003614Y018027D01*
X003466Y018186D02*
X004543Y018186D01*
X004526Y018344D02*
X003649Y018344D01*
X003832Y018503D02*
X004526Y018503D01*
X004526Y018820D02*
X004323Y018820D01*
X004077Y018661D02*
X004943Y018661D01*
X004180Y018027D02*
X004025Y018027D01*
X004025Y017869D02*
X004180Y017869D01*
X004180Y017710D02*
X004025Y017710D01*
X003607Y017393D02*
X002695Y017393D01*
X002558Y017235D02*
X003610Y017235D01*
X003502Y016442D02*
X003367Y016442D01*
X003434Y015190D02*
X003355Y015052D01*
X003140Y014838D01*
X002878Y014686D01*
X002586Y014608D01*
X002283Y014608D01*
X001990Y014686D01*
X001728Y014838D01*
X001514Y015052D01*
X001489Y015095D01*
X001359Y014652D01*
X001226Y013726D01*
X001209Y013258D01*
X001209Y007837D01*
X001226Y007370D01*
X001278Y007009D01*
X001386Y007117D01*
X001322Y007270D01*
X001322Y012203D01*
X001396Y012380D01*
X002098Y013082D01*
X002098Y013097D01*
X002186Y013309D01*
X002348Y013472D01*
X002561Y013560D01*
X002791Y013560D01*
X003004Y013472D01*
X003166Y013309D01*
X003254Y013097D01*
X003254Y012866D01*
X003248Y012850D01*
X003253Y012848D01*
X003416Y012685D01*
X003504Y012473D01*
X003504Y012242D01*
X003416Y012030D01*
X003406Y012019D01*
X003406Y010565D01*
X003410Y010565D01*
X003410Y011018D01*
X003471Y011165D01*
X003584Y011278D01*
X003731Y011339D01*
X004520Y011339D01*
X004667Y011278D01*
X004685Y011260D01*
X004703Y011278D01*
X004731Y011289D01*
X004667Y011316D01*
X004554Y011429D01*
X004522Y011506D01*
X004490Y011487D01*
X004445Y011475D01*
X004183Y011475D01*
X004183Y011932D01*
X004029Y011932D01*
X004029Y011475D01*
X003767Y011475D01*
X003722Y011487D01*
X003681Y011511D01*
X003647Y011545D01*
X003623Y011586D01*
X003611Y011631D01*
X003611Y011932D01*
X004028Y011932D01*
X004028Y012087D01*
X003611Y012087D01*
X003611Y012387D01*
X003623Y012433D01*
X003647Y012474D01*
X003681Y012508D01*
X003722Y012532D01*
X003767Y012544D01*
X004029Y012544D01*
X004029Y012087D01*
X004183Y012087D01*
X004183Y012528D01*
X004058Y012654D01*
X003970Y012866D01*
X003970Y013097D01*
X004058Y013309D01*
X004220Y013472D01*
X004433Y013560D01*
X004448Y013560D01*
X004516Y013628D01*
X004651Y013763D01*
X004827Y013836D01*
X008218Y013836D01*
X008597Y014215D01*
X008587Y014239D01*
X008587Y014374D01*
X007746Y014374D01*
X007570Y014447D01*
X007434Y014582D01*
X007233Y014783D01*
X007098Y014918D01*
X007042Y015053D01*
X006973Y014998D01*
X006885Y014943D01*
X006791Y014897D01*
X006692Y014863D01*
X006590Y014840D01*
X006512Y014831D01*
X006512Y015680D01*
X006357Y015680D01*
X006357Y014831D01*
X006278Y014840D01*
X006176Y014863D01*
X006078Y014897D01*
X005984Y014943D01*
X005895Y014998D01*
X005814Y015063D01*
X005740Y015137D01*
X005675Y015219D01*
X005619Y015307D01*
X005574Y015401D01*
X005549Y015473D01*
X005506Y015314D01*
X005355Y015052D01*
X005140Y014838D01*
X004878Y014686D01*
X004586Y014608D01*
X004283Y014608D01*
X003990Y014686D01*
X003728Y014838D01*
X003514Y015052D01*
X003434Y015190D01*
X003425Y015174D02*
X003443Y015174D01*
X003550Y015016D02*
X003319Y015016D01*
X003160Y014857D02*
X003709Y014857D01*
X003969Y014699D02*
X002900Y014699D01*
X001969Y014699D02*
X001373Y014699D01*
X001343Y014540D02*
X007476Y014540D01*
X007317Y014699D02*
X004900Y014699D01*
X005160Y014857D02*
X006201Y014857D01*
X006357Y014857D02*
X006512Y014857D01*
X006668Y014857D02*
X007159Y014857D01*
X007058Y015016D02*
X006995Y015016D01*
X006512Y015016D02*
X006357Y015016D01*
X006357Y015174D02*
X006512Y015174D01*
X006512Y015333D02*
X006357Y015333D01*
X006357Y015491D02*
X006512Y015491D01*
X006512Y015650D02*
X006357Y015650D01*
X006357Y015835D02*
X006357Y016685D01*
X006278Y016676D01*
X006176Y016653D01*
X006078Y016618D01*
X005984Y016573D01*
X005895Y016518D01*
X005814Y016452D01*
X005740Y016379D01*
X005675Y016297D01*
X005619Y016208D01*
X005574Y016114D01*
X005549Y016042D01*
X005506Y016202D01*
X005355Y016464D01*
X005188Y016630D01*
X005426Y016869D01*
X005599Y016869D01*
X005746Y016929D01*
X005858Y017042D01*
X005884Y017103D01*
X006344Y017103D01*
X006344Y016724D01*
X006405Y016577D01*
X006512Y016470D01*
X006512Y015835D01*
X006357Y015835D01*
X006357Y015967D02*
X006512Y015967D01*
X006512Y016125D02*
X006357Y016125D01*
X006357Y016284D02*
X006512Y016284D01*
X006512Y016442D02*
X006357Y016442D01*
X006357Y016601D02*
X006395Y016601D01*
X006344Y016759D02*
X005317Y016759D01*
X005218Y016601D02*
X006041Y016601D01*
X005804Y016442D02*
X005367Y016442D01*
X005459Y016284D02*
X005666Y016284D01*
X005579Y016125D02*
X005526Y016125D01*
X005718Y016918D02*
X006344Y016918D01*
X006344Y017076D02*
X005873Y017076D01*
X007256Y017079D02*
X007505Y016830D01*
X007505Y015190D01*
X007841Y014854D01*
X009415Y014854D01*
X009665Y014604D01*
X009665Y013980D01*
X008791Y013106D01*
X008791Y012607D01*
X010164Y011234D01*
X010164Y010494D01*
X010173Y010485D01*
X009383Y011033D02*
X009472Y011248D01*
X008670Y012050D01*
X008670Y011674D01*
X008783Y011562D01*
X008871Y011349D01*
X008871Y011119D01*
X008783Y010907D01*
X008620Y010744D01*
X008461Y010678D01*
X008461Y010665D01*
X008430Y010665D01*
X008407Y010656D01*
X008177Y010656D01*
X008154Y010665D01*
X008043Y010665D01*
X008043Y010510D01*
X008043Y010053D01*
X008304Y010053D01*
X008350Y010065D01*
X008391Y010089D01*
X008425Y010122D01*
X008449Y010163D01*
X008461Y010209D01*
X008461Y010510D01*
X008043Y010510D01*
X007888Y010510D01*
X007888Y010334D01*
X007909Y010314D01*
X007997Y010101D01*
X007997Y009871D01*
X007913Y009669D01*
X007918Y009669D01*
X007918Y009212D01*
X008073Y009212D01*
X008073Y009669D01*
X008334Y009669D01*
X008380Y009657D01*
X008388Y009652D01*
X008464Y009728D01*
X008620Y009792D01*
X008587Y009871D01*
X008587Y010101D01*
X008675Y010314D01*
X008838Y010477D01*
X009051Y010565D01*
X009281Y010565D01*
X009383Y010522D01*
X009383Y011033D01*
X009391Y011053D02*
X008843Y011053D01*
X008871Y011212D02*
X009457Y011212D01*
X009349Y011370D02*
X008862Y011370D01*
X008796Y011529D02*
X009191Y011529D01*
X009032Y011687D02*
X008670Y011687D01*
X008670Y011846D02*
X008874Y011846D01*
X008715Y012004D02*
X008670Y012004D01*
X007955Y011973D02*
X007955Y012395D01*
X008167Y012607D01*
X008417Y013356D02*
X009166Y014105D01*
X009166Y014354D01*
X008594Y014223D02*
X001297Y014223D01*
X001275Y014065D02*
X008447Y014065D01*
X008289Y013906D02*
X001252Y013906D01*
X001229Y013748D02*
X004636Y013748D01*
X004477Y013589D02*
X001221Y013589D01*
X001215Y013431D02*
X002307Y013431D01*
X002170Y013272D02*
X001210Y013272D01*
X001209Y013114D02*
X002105Y013114D01*
X001971Y012955D02*
X001209Y012955D01*
X001209Y012797D02*
X001813Y012797D01*
X001654Y012638D02*
X001209Y012638D01*
X001209Y012480D02*
X001496Y012480D01*
X001371Y012321D02*
X001209Y012321D01*
X001209Y012163D02*
X001322Y012163D01*
X001322Y012004D02*
X001209Y012004D01*
X001209Y011846D02*
X001322Y011846D01*
X001322Y011687D02*
X001209Y011687D01*
X001209Y011529D02*
X001322Y011529D01*
X001322Y011370D02*
X001209Y011370D01*
X001209Y011212D02*
X001322Y011212D01*
X001322Y011053D02*
X001209Y011053D01*
X001209Y010895D02*
X001322Y010895D01*
X001322Y010736D02*
X001209Y010736D01*
X001209Y010578D02*
X001322Y010578D01*
X001322Y010419D02*
X001209Y010419D01*
X001209Y010261D02*
X001322Y010261D01*
X001322Y010102D02*
X001209Y010102D01*
X001209Y009944D02*
X001322Y009944D01*
X001322Y009785D02*
X001209Y009785D01*
X001209Y009627D02*
X001322Y009627D01*
X001322Y009468D02*
X001209Y009468D01*
X001209Y009310D02*
X001322Y009310D01*
X001322Y009151D02*
X001209Y009151D01*
X001209Y008993D02*
X001322Y008993D01*
X001322Y008834D02*
X001209Y008834D01*
X001209Y008676D02*
X001322Y008676D01*
X001322Y008517D02*
X001209Y008517D01*
X001209Y008359D02*
X001322Y008359D01*
X001322Y008200D02*
X001209Y008200D01*
X001209Y008042D02*
X001322Y008042D01*
X001322Y007883D02*
X001209Y007883D01*
X001213Y007725D02*
X001322Y007725D01*
X001322Y007566D02*
X001219Y007566D01*
X001225Y007408D02*
X001322Y007408D01*
X001331Y007249D02*
X001243Y007249D01*
X001266Y007091D02*
X001360Y007091D01*
X001802Y007365D02*
X002302Y006866D01*
X002302Y005743D01*
X003050Y004994D01*
X003050Y004071D01*
X002871Y003892D01*
X003533Y003141D02*
X003674Y003283D01*
X003674Y005119D01*
X003300Y005493D01*
X003300Y009362D01*
X002926Y009737D01*
X002926Y012357D01*
X003471Y012163D02*
X003611Y012163D01*
X003611Y012321D02*
X003504Y012321D01*
X003501Y012480D02*
X003652Y012480D01*
X003435Y012638D02*
X004073Y012638D01*
X004029Y012480D02*
X004183Y012480D01*
X004183Y012321D02*
X004029Y012321D01*
X004029Y012163D02*
X004183Y012163D01*
X004028Y012004D02*
X003406Y012004D01*
X003406Y011846D02*
X003611Y011846D01*
X003611Y011687D02*
X003406Y011687D01*
X003406Y011529D02*
X003663Y011529D01*
X003406Y011370D02*
X004613Y011370D01*
X004183Y011529D02*
X004029Y011529D01*
X004029Y011687D02*
X004183Y011687D01*
X004183Y011846D02*
X004029Y011846D01*
X003518Y011212D02*
X003406Y011212D01*
X003406Y011053D02*
X003425Y011053D01*
X003410Y010895D02*
X003406Y010895D01*
X003406Y010736D02*
X003410Y010736D01*
X003406Y010578D02*
X003410Y010578D01*
X003300Y009986D02*
X004125Y009986D01*
X005671Y009986D01*
X005796Y009861D01*
X006171Y009912D02*
X006171Y008613D01*
X005766Y008200D02*
X004850Y008200D01*
X004930Y008234D02*
X004718Y008146D01*
X004488Y008146D01*
X004275Y008234D01*
X004112Y008396D01*
X004034Y008586D01*
X003780Y008586D01*
X003780Y007242D01*
X003940Y007242D01*
X004197Y007136D01*
X004394Y006939D01*
X004501Y006681D01*
X004501Y005803D01*
X004394Y005546D01*
X004197Y005349D01*
X004113Y005314D01*
X004154Y005214D01*
X004154Y003925D01*
X004191Y003907D01*
X004375Y003698D01*
X004465Y003435D01*
X004448Y003157D01*
X004405Y003071D01*
X004411Y003071D01*
X004487Y003066D01*
X004561Y003050D01*
X004631Y003022D01*
X004696Y002984D01*
X004754Y002936D01*
X004766Y002922D01*
X004196Y002420D01*
X004222Y002390D01*
X004792Y002892D01*
X004804Y002879D01*
X004817Y002859D01*
X004817Y006147D01*
X004950Y006468D01*
X004950Y006468D01*
X005196Y006714D01*
X005196Y006714D01*
X005517Y006847D01*
X009185Y006847D01*
X009185Y008035D01*
X009051Y008035D01*
X008850Y008118D01*
X008814Y008082D01*
X008637Y008009D01*
X008256Y008009D01*
X008245Y007998D01*
X008033Y007910D01*
X007803Y007910D01*
X007590Y007998D01*
X007427Y008161D01*
X007386Y008262D01*
X007247Y008123D01*
X007034Y008035D01*
X006804Y008035D01*
X006592Y008123D01*
X006545Y008170D01*
X006498Y008123D01*
X006286Y008035D01*
X006055Y008035D01*
X005843Y008123D01*
X005680Y008286D01*
X005592Y008498D01*
X005592Y008586D01*
X005172Y008586D01*
X005093Y008396D01*
X004930Y008234D01*
X005056Y008359D02*
X005650Y008359D01*
X005592Y008517D02*
X005143Y008517D01*
X004603Y008724D02*
X005220Y009341D01*
X006171Y009912D02*
X006846Y010588D01*
X006897Y010588D01*
X007543Y011234D01*
X008292Y011234D01*
X008602Y010736D02*
X009383Y010736D01*
X009383Y010578D02*
X008043Y010578D01*
X008043Y010419D02*
X007888Y010419D01*
X007931Y010261D02*
X008043Y010261D01*
X008043Y010102D02*
X007997Y010102D01*
X007997Y009944D02*
X008587Y009944D01*
X008588Y010102D02*
X008405Y010102D01*
X008461Y010261D02*
X008653Y010261D01*
X008781Y010419D02*
X008461Y010419D01*
X008771Y010895D02*
X009383Y010895D01*
X009166Y009986D02*
X009166Y008613D01*
X008791Y008738D02*
X008542Y008489D01*
X007918Y008489D01*
X007547Y008042D02*
X007051Y008042D01*
X006788Y008042D02*
X006302Y008042D01*
X006039Y008042D02*
X003780Y008042D01*
X003780Y008200D02*
X004356Y008200D01*
X004150Y008359D02*
X003780Y008359D01*
X003780Y008517D02*
X004062Y008517D01*
X003780Y007883D02*
X009185Y007883D01*
X009185Y007725D02*
X003780Y007725D01*
X003780Y007566D02*
X009185Y007566D01*
X009185Y007408D02*
X003780Y007408D01*
X003780Y007249D02*
X009185Y007249D01*
X009185Y007091D02*
X004242Y007091D01*
X004397Y006932D02*
X009185Y006932D01*
X009034Y008042D02*
X008717Y008042D01*
X008791Y008738D02*
X008791Y009237D01*
X008776Y008988D01*
X008073Y009310D02*
X007918Y009310D01*
X007918Y009468D02*
X008073Y009468D01*
X008073Y009627D02*
X007918Y009627D01*
X007961Y009785D02*
X008603Y009785D01*
X007419Y009986D02*
X006876Y009443D01*
X006876Y009134D01*
X006965Y009045D01*
X006919Y008999D01*
X006919Y008613D01*
X007324Y008200D02*
X007411Y008200D01*
X005340Y006774D02*
X004463Y006774D01*
X004501Y006615D02*
X005097Y006615D01*
X004945Y006457D02*
X004501Y006457D01*
X004501Y006298D02*
X004880Y006298D01*
X004817Y006140D02*
X004501Y006140D01*
X004501Y005981D02*
X004817Y005981D01*
X004817Y005823D02*
X004501Y005823D01*
X004443Y005664D02*
X004817Y005664D01*
X004817Y005506D02*
X004354Y005506D01*
X004194Y005347D02*
X004817Y005347D01*
X004817Y005189D02*
X004154Y005189D01*
X004154Y005030D02*
X004817Y005030D01*
X004817Y004872D02*
X004154Y004872D01*
X004154Y004713D02*
X004817Y004713D01*
X004817Y004555D02*
X004154Y004555D01*
X004154Y004396D02*
X004817Y004396D01*
X004817Y004238D02*
X004154Y004238D01*
X004154Y004079D02*
X004817Y004079D01*
X004817Y003921D02*
X004163Y003921D01*
X004319Y003762D02*
X004817Y003762D01*
X004817Y003604D02*
X004407Y003604D01*
X004462Y003445D02*
X004817Y003445D01*
X004817Y003287D02*
X004456Y003287D01*
X004434Y003128D02*
X004817Y003128D01*
X004817Y002970D02*
X004713Y002970D01*
X004701Y002811D02*
X004640Y002811D01*
X004521Y002653D02*
X004460Y002653D01*
X004341Y002494D02*
X004281Y002494D01*
X002820Y006262D02*
X002782Y006262D01*
X002782Y006962D01*
X002781Y006964D01*
X002781Y007022D01*
X002763Y007022D01*
X002757Y007021D01*
X002709Y007138D01*
X002574Y007273D01*
X002282Y007564D01*
X002282Y011909D01*
X002426Y012053D01*
X002435Y012030D01*
X002446Y012019D01*
X002446Y009641D01*
X002519Y009465D01*
X002820Y009163D01*
X002820Y006262D01*
X002820Y006298D02*
X002782Y006298D01*
X002782Y006457D02*
X002820Y006457D01*
X002820Y006615D02*
X002782Y006615D01*
X002782Y006774D02*
X002820Y006774D01*
X002820Y006932D02*
X002782Y006932D01*
X002820Y007091D02*
X002728Y007091D01*
X002820Y007249D02*
X002597Y007249D01*
X002439Y007408D02*
X002820Y007408D01*
X002820Y007566D02*
X002282Y007566D01*
X002282Y007725D02*
X002820Y007725D01*
X002820Y007883D02*
X002282Y007883D01*
X002282Y008042D02*
X002820Y008042D01*
X002820Y008200D02*
X002282Y008200D01*
X002282Y008359D02*
X002820Y008359D01*
X002820Y008517D02*
X002282Y008517D01*
X002282Y008676D02*
X002820Y008676D01*
X002820Y008834D02*
X002282Y008834D01*
X002282Y008993D02*
X002820Y008993D01*
X002820Y009151D02*
X002282Y009151D01*
X002282Y009310D02*
X002674Y009310D01*
X002517Y009468D02*
X002282Y009468D01*
X002282Y009627D02*
X002452Y009627D01*
X002446Y009785D02*
X002282Y009785D01*
X002282Y009944D02*
X002446Y009944D01*
X002446Y010102D02*
X002282Y010102D01*
X002282Y010261D02*
X002446Y010261D01*
X002446Y010419D02*
X002282Y010419D01*
X002282Y010578D02*
X002446Y010578D01*
X002446Y010736D02*
X002282Y010736D01*
X002282Y010895D02*
X002446Y010895D01*
X002446Y011053D02*
X002282Y011053D01*
X002282Y011212D02*
X002446Y011212D01*
X002446Y011370D02*
X002282Y011370D01*
X002282Y011529D02*
X002446Y011529D01*
X002446Y011687D02*
X002282Y011687D01*
X002282Y011846D02*
X002446Y011846D01*
X002446Y012004D02*
X002378Y012004D01*
X001802Y012108D02*
X002676Y012981D01*
X003045Y013431D02*
X004179Y013431D01*
X004042Y013272D02*
X003182Y013272D01*
X003247Y013114D02*
X003977Y013114D01*
X003970Y012955D02*
X003254Y012955D01*
X003304Y012797D02*
X003999Y012797D01*
X004548Y012981D02*
X004923Y013356D01*
X008417Y013356D01*
X009166Y012981D02*
X009166Y012732D01*
X010414Y011484D01*
X010788Y011484D01*
X011163Y011109D01*
X011163Y010111D01*
X012161Y009113D01*
X013160Y008613D02*
X013784Y008613D01*
X014408Y009237D01*
X016810Y009237D01*
X017674Y008373D01*
X016974Y008359D02*
X015838Y008359D01*
X015858Y008339D02*
X015607Y008590D01*
X015279Y008726D01*
X014924Y008726D01*
X014596Y008590D01*
X014520Y008514D01*
X014514Y008533D01*
X014459Y008610D01*
X014606Y008757D01*
X016611Y008757D01*
X016975Y008394D01*
X016974Y007935D01*
X017062Y007721D01*
X016375Y007721D01*
X016375Y007721D01*
X016054Y007588D01*
X015902Y007436D01*
X015993Y007656D01*
X015993Y008011D01*
X015858Y008339D01*
X015915Y008200D02*
X016974Y008200D01*
X016974Y008042D02*
X015981Y008042D01*
X015993Y007883D02*
X016995Y007883D01*
X017060Y007725D02*
X015993Y007725D01*
X015956Y007566D02*
X016032Y007566D01*
X015679Y008517D02*
X016851Y008517D01*
X016692Y008676D02*
X015399Y008676D01*
X014804Y008676D02*
X014525Y008676D01*
X014514Y008533D02*
X014514Y008533D01*
X014519Y008517D02*
X014523Y008517D01*
X013784Y009113D02*
X014158Y009487D01*
X017558Y009487D01*
X018674Y008371D01*
X019306Y008977D02*
X019269Y009066D01*
X019117Y009219D01*
X019222Y009219D01*
X019512Y009339D01*
X019734Y009561D01*
X019743Y009583D01*
X019743Y009144D01*
X019714Y009149D01*
X019696Y009149D01*
X019695Y008389D01*
X019655Y008389D01*
X019656Y009149D01*
X019638Y009149D01*
X019563Y009137D01*
X019492Y009114D01*
X019424Y009080D01*
X019363Y009036D01*
X019309Y008982D01*
X019306Y008977D01*
X019299Y008993D02*
X019320Y008993D01*
X019184Y009151D02*
X019743Y009151D01*
X019743Y009310D02*
X019441Y009310D01*
X019641Y009468D02*
X019743Y009468D01*
X019696Y008993D02*
X019656Y008993D01*
X019655Y008834D02*
X019695Y008834D01*
X019695Y008676D02*
X019655Y008676D01*
X019655Y008517D02*
X019695Y008517D01*
X019694Y008349D02*
X019693Y007589D01*
X019711Y007589D01*
X019735Y007593D01*
X019727Y007370D01*
X019630Y006698D01*
X019630Y007021D01*
X019497Y007342D01*
X019251Y007588D01*
X019201Y007608D01*
X019267Y007673D01*
X019304Y007762D01*
X019307Y007757D01*
X019361Y007704D01*
X019422Y007659D01*
X019489Y007625D01*
X019561Y007601D01*
X019635Y007589D01*
X019653Y007589D01*
X019654Y008349D01*
X019694Y008349D01*
X019694Y008200D02*
X019654Y008200D01*
X019654Y008042D02*
X019694Y008042D01*
X019694Y007883D02*
X019654Y007883D01*
X019653Y007725D02*
X019693Y007725D01*
X019734Y007566D02*
X019273Y007566D01*
X019251Y007588D02*
X019251Y007588D01*
X019288Y007725D02*
X019339Y007725D01*
X019431Y007408D02*
X019728Y007408D01*
X019709Y007249D02*
X019535Y007249D01*
X019497Y007342D02*
X019497Y007342D01*
X019601Y007091D02*
X019687Y007091D01*
X019664Y006932D02*
X019630Y006932D01*
X019630Y006774D02*
X019641Y006774D01*
X017494Y009967D02*
X016936Y009967D01*
X016936Y011033D01*
X016816Y011323D01*
X016594Y011545D01*
X016304Y011665D01*
X016028Y011665D01*
X016005Y011689D01*
X016200Y011752D01*
X016524Y011988D01*
X016524Y011988D01*
X016760Y012313D01*
X016884Y012695D01*
X016884Y012876D01*
X018930Y012876D01*
X019251Y013009D01*
X019251Y013009D01*
X019497Y013255D01*
X019630Y013576D01*
X019630Y014397D01*
X019727Y013726D01*
X019743Y013258D01*
X019743Y010434D01*
X019734Y010456D01*
X019512Y010679D01*
X019222Y010799D01*
X018127Y010799D01*
X017837Y010679D01*
X017615Y010456D01*
X017494Y010166D01*
X017494Y009967D01*
X017494Y010102D02*
X016936Y010102D01*
X016936Y010261D02*
X017534Y010261D01*
X017599Y010419D02*
X016936Y010419D01*
X016936Y010578D02*
X017736Y010578D01*
X017976Y010736D02*
X016936Y010736D01*
X016936Y010895D02*
X019743Y010895D01*
X019743Y011053D02*
X016928Y011053D01*
X016862Y011212D02*
X019743Y011212D01*
X019743Y011370D02*
X016769Y011370D01*
X016610Y011529D02*
X017948Y011529D01*
X017913Y011554D02*
X017986Y011501D01*
X018066Y011461D01*
X018151Y011433D01*
X018240Y011419D01*
X018624Y011419D01*
X018624Y011939D01*
X017715Y011939D01*
X017729Y011855D01*
X017756Y011770D01*
X017797Y011690D01*
X017850Y011617D01*
X017913Y011554D01*
X017799Y011687D02*
X016006Y011687D01*
X016200Y011752D02*
X016200Y011752D01*
X016329Y011846D02*
X017732Y011846D01*
X017715Y012039D02*
X018624Y012039D01*
X018624Y011939D01*
X018724Y011939D01*
X018724Y011419D01*
X019109Y011419D01*
X019198Y011433D01*
X019283Y011461D01*
X019363Y011501D01*
X019436Y011554D01*
X019499Y011617D01*
X019552Y011690D01*
X019593Y011770D01*
X019620Y011855D01*
X019634Y011939D01*
X018724Y011939D01*
X018724Y012039D01*
X018624Y012039D01*
X018624Y012559D01*
X018240Y012559D01*
X018151Y012545D01*
X018066Y012517D01*
X017986Y012476D01*
X017913Y012424D01*
X017850Y012360D01*
X017797Y012288D01*
X017756Y012208D01*
X017729Y012122D01*
X017715Y012039D01*
X017742Y012163D02*
X016651Y012163D01*
X016760Y012313D02*
X016760Y012313D01*
X016763Y012321D02*
X017821Y012321D01*
X017993Y012480D02*
X016815Y012480D01*
X016866Y012638D02*
X019743Y012638D01*
X019743Y012480D02*
X019356Y012480D01*
X019363Y012476D02*
X019283Y012517D01*
X019198Y012545D01*
X019109Y012559D01*
X018724Y012559D01*
X018724Y012039D01*
X019634Y012039D01*
X019620Y012122D01*
X019593Y012208D01*
X019552Y012288D01*
X019499Y012360D01*
X019436Y012424D01*
X019363Y012476D01*
X019527Y012321D02*
X019743Y012321D01*
X019743Y012163D02*
X019607Y012163D01*
X019743Y012004D02*
X018724Y012004D01*
X018624Y012004D02*
X016536Y012004D01*
X016524Y011988D02*
X016524Y011988D01*
X016884Y012797D02*
X019743Y012797D01*
X019743Y012955D02*
X019122Y012955D01*
X019356Y013114D02*
X019743Y013114D01*
X019743Y013272D02*
X019504Y013272D01*
X019497Y013255D02*
X019497Y013255D01*
X019570Y013431D02*
X019737Y013431D01*
X019731Y013589D02*
X019630Y013589D01*
X019630Y013748D02*
X019723Y013748D01*
X019701Y013906D02*
X019630Y013906D01*
X019630Y014065D02*
X019678Y014065D01*
X019655Y014223D02*
X019630Y014223D01*
X019630Y014382D02*
X019632Y014382D01*
X018724Y012480D02*
X018624Y012480D01*
X018624Y012321D02*
X018724Y012321D01*
X018724Y012163D02*
X018624Y012163D01*
X018624Y011846D02*
X018724Y011846D01*
X018724Y011687D02*
X018624Y011687D01*
X018624Y011529D02*
X018724Y011529D01*
X019401Y011529D02*
X019743Y011529D01*
X019743Y011687D02*
X019550Y011687D01*
X019617Y011846D02*
X019743Y011846D01*
X019743Y010736D02*
X019373Y010736D01*
X019613Y010578D02*
X019743Y010578D01*
X016396Y010619D02*
X015156Y011858D01*
X013908Y011858D01*
X012411Y011858D02*
X011287Y011858D01*
X011163Y011733D01*
X010932Y013686D02*
X010725Y013894D01*
X010397Y014030D01*
X010145Y014030D01*
X010145Y014699D01*
X010932Y014699D01*
X010932Y014857D02*
X010080Y014857D01*
X010072Y014876D02*
X009937Y015011D01*
X009687Y015260D01*
X009511Y015334D01*
X008040Y015334D01*
X007985Y015389D01*
X007985Y016461D01*
X007994Y016464D01*
X008107Y016577D01*
X008167Y016724D01*
X008167Y017434D01*
X008107Y017581D01*
X008038Y017650D01*
X008493Y017650D01*
X008538Y017631D01*
X008768Y017631D01*
X008981Y017719D01*
X009143Y017882D01*
X009231Y018095D01*
X009231Y018325D01*
X009143Y018537D01*
X008981Y018700D01*
X008771Y018787D01*
X008890Y018787D01*
X008890Y019185D01*
X008256Y019185D01*
X008256Y018943D01*
X008269Y018897D01*
X008292Y018856D01*
X008326Y018823D01*
X008367Y018799D01*
X008413Y018787D01*
X008535Y018787D01*
X008493Y018770D01*
X008197Y018770D01*
X008246Y018887D01*
X008246Y019598D01*
X008228Y019640D01*
X008228Y019686D01*
X008247Y019731D01*
X008247Y019815D01*
X010438Y019815D01*
X010438Y019726D01*
X010529Y019506D01*
X010698Y019337D01*
X010919Y019246D01*
X011009Y019246D01*
X010932Y019009D01*
X010932Y018568D01*
X010803Y018697D01*
X010476Y018833D01*
X010121Y018833D01*
X009793Y018697D01*
X009542Y018446D01*
X009406Y018118D01*
X009406Y017763D01*
X009539Y017442D01*
X009526Y017465D01*
X009492Y017499D01*
X009451Y017522D01*
X009405Y017535D01*
X008928Y017535D01*
X008928Y017137D01*
X009562Y017137D01*
X009562Y017378D01*
X009549Y017424D01*
X009545Y017432D01*
X009793Y017184D01*
X010121Y017048D01*
X010476Y017048D01*
X010803Y017184D01*
X010932Y017313D01*
X010932Y013686D01*
X010932Y013748D02*
X010871Y013748D01*
X010932Y013906D02*
X010694Y013906D01*
X010932Y014065D02*
X010145Y014065D01*
X010145Y014223D02*
X010932Y014223D01*
X010932Y014382D02*
X010145Y014382D01*
X010145Y014540D02*
X010932Y014540D01*
X010932Y015016D02*
X009932Y015016D01*
X010072Y014876D02*
X010145Y014699D01*
X009773Y015174D02*
X010932Y015174D01*
X010932Y015333D02*
X009513Y015333D01*
X009405Y016624D02*
X008928Y016624D01*
X008928Y017021D01*
X008928Y017137D01*
X008812Y017137D01*
X008812Y017535D01*
X008334Y017535D01*
X008288Y017522D01*
X008247Y017499D01*
X008214Y017465D01*
X008190Y017424D01*
X008178Y017378D01*
X008178Y017137D01*
X008812Y017137D01*
X008812Y017021D01*
X008928Y017021D01*
X009562Y017021D01*
X009562Y016780D01*
X009549Y016734D01*
X009526Y016693D01*
X009492Y016660D01*
X009451Y016636D01*
X009405Y016624D01*
X009556Y016759D02*
X010932Y016759D01*
X010932Y016601D02*
X008116Y016601D01*
X008214Y016693D02*
X008247Y016660D01*
X008288Y016636D01*
X008334Y016624D01*
X008812Y016624D01*
X008812Y017021D01*
X008178Y017021D01*
X008178Y016780D01*
X008190Y016734D01*
X008214Y016693D01*
X008183Y016759D02*
X008167Y016759D01*
X008167Y016918D02*
X008178Y016918D01*
X008167Y017076D02*
X008812Y017076D01*
X008928Y017076D02*
X010053Y017076D01*
X009742Y017235D02*
X009562Y017235D01*
X009558Y017393D02*
X009584Y017393D01*
X009493Y017552D02*
X008119Y017552D01*
X008167Y017393D02*
X008182Y017393D01*
X008167Y017235D02*
X008178Y017235D01*
X008812Y017235D02*
X008928Y017235D01*
X008928Y017393D02*
X008812Y017393D01*
X008959Y017710D02*
X009428Y017710D01*
X009406Y017869D02*
X009130Y017869D01*
X009204Y018027D02*
X009406Y018027D01*
X009434Y018186D02*
X009231Y018186D01*
X009223Y018344D02*
X009500Y018344D01*
X009599Y018503D02*
X009158Y018503D01*
X009019Y018661D02*
X009757Y018661D01*
X009570Y018823D02*
X009604Y018856D01*
X009628Y018897D01*
X009640Y018943D01*
X009640Y019185D01*
X009006Y019185D01*
X009006Y019300D01*
X009640Y019300D01*
X009640Y019542D01*
X009628Y019588D01*
X009604Y019629D01*
X009570Y019662D01*
X009529Y019686D01*
X009484Y019698D01*
X009006Y019698D01*
X009006Y019300D01*
X008890Y019300D01*
X008890Y019185D01*
X009006Y019185D01*
X009006Y018787D01*
X009484Y018787D01*
X009529Y018799D01*
X009570Y018823D01*
X009565Y018820D02*
X010090Y018820D01*
X010507Y018820D02*
X010932Y018820D01*
X010932Y018978D02*
X009640Y018978D01*
X009640Y019137D02*
X010974Y019137D01*
X010799Y019295D02*
X009006Y019295D01*
X008890Y019295D02*
X008246Y019295D01*
X008256Y019300D02*
X008890Y019300D01*
X008890Y019698D01*
X008413Y019698D01*
X008367Y019686D01*
X008326Y019662D01*
X008292Y019629D01*
X008269Y019588D01*
X008256Y019542D01*
X008256Y019300D01*
X008246Y019454D02*
X008256Y019454D01*
X008240Y019612D02*
X008283Y019612D01*
X008247Y019771D02*
X010438Y019771D01*
X010485Y019612D02*
X009613Y019612D01*
X009454Y019721D02*
X009440Y019693D01*
X009429Y019664D01*
X009420Y019634D01*
X009415Y019604D01*
X009413Y019573D01*
X009414Y019542D01*
X009418Y019511D01*
X009425Y019481D01*
X009415Y019471D01*
X008749Y019471D01*
X008890Y019454D02*
X009006Y019454D01*
X009006Y019612D02*
X008890Y019612D01*
X008890Y019137D02*
X009006Y019137D01*
X009006Y018978D02*
X008890Y018978D01*
X008890Y018820D02*
X009006Y018820D01*
X008947Y019242D02*
X008933Y019278D01*
X008916Y019313D01*
X008895Y019346D01*
X008871Y019376D01*
X008844Y019404D01*
X008814Y019429D01*
X008782Y019452D01*
X008748Y019471D01*
X008256Y019137D02*
X008246Y019137D01*
X008246Y018978D02*
X008256Y018978D01*
X008218Y018820D02*
X008331Y018820D01*
X009454Y019721D02*
X009790Y019721D01*
X009640Y019454D02*
X010581Y019454D01*
X010839Y018661D02*
X010932Y018661D01*
X010932Y017235D02*
X010854Y017235D01*
X010932Y017076D02*
X010543Y017076D01*
X010932Y016918D02*
X009562Y016918D01*
X008928Y016918D02*
X008812Y016918D01*
X008812Y016759D02*
X008928Y016759D01*
X007985Y016442D02*
X010932Y016442D01*
X010932Y016284D02*
X007985Y016284D01*
X007985Y016125D02*
X010932Y016125D01*
X010932Y015967D02*
X007985Y015967D01*
X007985Y015808D02*
X010932Y015808D01*
X010932Y015650D02*
X007985Y015650D01*
X007985Y015491D02*
X010932Y015491D01*
X007726Y014382D02*
X001320Y014382D01*
X001419Y014857D02*
X001709Y014857D01*
X001550Y015016D02*
X001466Y015016D01*
X001802Y012108D02*
X001802Y007365D01*
X004080Y009362D02*
X004100Y009341D01*
X004125Y009366D01*
X004125Y009986D01*
X004125Y010584D01*
X005245Y010584D02*
X005895Y010584D01*
X005921Y010610D01*
X005921Y011983D01*
X005921Y012482D01*
X005422Y012981D01*
X005208Y012009D02*
X005235Y011983D01*
X005921Y011983D01*
X006795Y012014D02*
X006919Y012139D01*
X006919Y012981D01*
X006795Y012014D02*
X006836Y011973D01*
X005873Y015016D02*
X005319Y015016D01*
X005425Y015174D02*
X005710Y015174D01*
X005607Y015333D02*
X005511Y015333D01*
X016146Y010485D02*
X016396Y010619D01*
X015915Y003039D02*
X016054Y002900D01*
X016375Y002767D01*
X017322Y002767D01*
X017116Y002589D01*
X016329Y002083D01*
X015478Y001694D01*
X014638Y001448D01*
X014638Y002224D01*
X014845Y002138D01*
X015200Y002138D01*
X015528Y002274D01*
X015779Y002525D01*
X015915Y002853D01*
X015915Y003039D01*
X015915Y002970D02*
X015984Y002970D01*
X016054Y002900D02*
X016054Y002900D01*
X015897Y002811D02*
X016267Y002811D01*
X015832Y002653D02*
X017190Y002653D01*
X016969Y002494D02*
X015748Y002494D01*
X015590Y002336D02*
X016723Y002336D01*
X016476Y002177D02*
X015294Y002177D01*
X015495Y001702D02*
X014638Y001702D01*
X014638Y001860D02*
X015842Y001860D01*
X016189Y002019D02*
X014638Y002019D01*
X014638Y002177D02*
X014751Y002177D01*
X014638Y001543D02*
X014964Y001543D01*
X010788Y001874D02*
X010298Y002364D01*
X010298Y003030D01*
D21*
X013160Y007989D02*
X013160Y008613D01*
X013160Y012981D01*
X008653Y018210D02*
X007729Y018210D01*
X007155Y017636D01*
X007334Y019243D02*
X007668Y019243D01*
X007668Y019846D01*
D22*
X011038Y019846D02*
X014532Y019846D01*
X015032Y019222D01*
X015023Y019213D01*
X015023Y017941D01*
D23*
X014899Y016364D02*
X014887Y016351D01*
X013534Y016351D01*
X012660Y017225D01*
X012660Y018728D01*
X014899Y016364D02*
X017654Y016364D01*
X017654Y014384D02*
X016269Y014384D01*
X015023Y013137D01*
X010298Y007833D02*
X011523Y006608D01*
X017652Y006608D01*
X017652Y004628D02*
X013667Y004628D01*
X012660Y003621D01*
X012660Y002243D01*
X008434Y002517D02*
X008422Y002505D01*
X008434Y002517D02*
X008434Y005258D01*
X006434Y005258D02*
X006434Y002495D01*
X006442Y002488D01*
M02*
