G75*
G70*
%OFA0B0*%
%FSLAX24Y24*%
%IPPOS*%
%LPD*%
%AMOC8*
5,1,8,0,0,1.08239X$1,22.5*
%
%ADD10C,0.0100*%
%ADD11R,0.0630X0.0710*%
%ADD12R,0.0630X0.0709*%
%ADD13R,0.1024X0.0551*%
D10*
X007766Y000751D02*
X013187Y000751D01*
X013187Y000750D02*
X013524Y000758D01*
X013861Y000782D01*
X014196Y000822D01*
X014528Y000878D01*
X014858Y000950D01*
X015184Y001037D01*
X015505Y001140D01*
X015821Y001258D01*
X016131Y001390D01*
X016434Y001538D01*
X016731Y001699D01*
X017019Y001875D01*
X017298Y002064D01*
X017568Y002266D01*
X017828Y002481D01*
X018078Y002708D01*
X018316Y002946D01*
X018543Y003196D01*
X018758Y003456D01*
X018960Y003726D01*
X019149Y004005D01*
X019325Y004294D01*
X019486Y004590D01*
X019634Y004893D01*
X019766Y005203D01*
X019884Y005519D01*
X019987Y005840D01*
X020074Y006166D01*
X020146Y006496D01*
X020202Y006828D01*
X020242Y007163D01*
X020266Y007500D01*
X020274Y007837D01*
X020273Y007837D02*
X020273Y013258D01*
X020274Y013258D02*
X020266Y013595D01*
X020242Y013932D01*
X020202Y014267D01*
X020146Y014599D01*
X020074Y014929D01*
X019987Y015255D01*
X019884Y015576D01*
X019766Y015892D01*
X019634Y016202D01*
X019486Y016505D01*
X019325Y016802D01*
X019149Y017090D01*
X018960Y017369D01*
X018758Y017639D01*
X018543Y017899D01*
X018316Y018149D01*
X018078Y018387D01*
X017828Y018614D01*
X017568Y018829D01*
X017298Y019031D01*
X017019Y019220D01*
X016731Y019396D01*
X016434Y019557D01*
X016131Y019705D01*
X015821Y019837D01*
X015505Y019955D01*
X015184Y020058D01*
X014858Y020145D01*
X014528Y020217D01*
X014196Y020273D01*
X013861Y020313D01*
X013524Y020337D01*
X013187Y020345D01*
X007766Y020345D01*
X007429Y020337D01*
X007092Y020313D01*
X006757Y020273D01*
X006425Y020217D01*
X006095Y020145D01*
X005769Y020058D01*
X005448Y019955D01*
X005132Y019837D01*
X004822Y019705D01*
X004519Y019557D01*
X004222Y019396D01*
X003934Y019220D01*
X003655Y019031D01*
X003385Y018829D01*
X003125Y018614D01*
X002875Y018387D01*
X002637Y018149D01*
X002410Y017899D01*
X002195Y017639D01*
X001993Y017369D01*
X001804Y017090D01*
X001628Y016802D01*
X001467Y016505D01*
X001319Y016202D01*
X001187Y015892D01*
X001069Y015576D01*
X000966Y015255D01*
X000879Y014929D01*
X000807Y014599D01*
X000751Y014267D01*
X000711Y013932D01*
X000687Y013595D01*
X000679Y013258D01*
X000679Y007837D01*
X000687Y007500D01*
X000711Y007163D01*
X000751Y006828D01*
X000807Y006496D01*
X000879Y006166D01*
X000966Y005840D01*
X001069Y005519D01*
X001187Y005203D01*
X001319Y004893D01*
X001467Y004590D01*
X001628Y004294D01*
X001804Y004005D01*
X001993Y003726D01*
X002195Y003456D01*
X002410Y003196D01*
X002637Y002946D01*
X002875Y002708D01*
X003125Y002481D01*
X003385Y002266D01*
X003655Y002064D01*
X003934Y001875D01*
X004222Y001699D01*
X004519Y001538D01*
X004822Y001390D01*
X005132Y001258D01*
X005448Y001140D01*
X005769Y001037D01*
X006095Y000950D01*
X006425Y000878D01*
X006757Y000822D01*
X007092Y000782D01*
X007429Y000758D01*
X007766Y000750D01*
D11*
X007995Y009134D03*
X006876Y009134D03*
X006846Y010588D03*
X007966Y010588D03*
X007955Y011973D03*
X006836Y011973D03*
X005245Y010584D03*
X004125Y010584D03*
X004100Y009341D03*
X005220Y009341D03*
D12*
X005208Y012009D03*
X004106Y012009D03*
X004102Y017623D03*
X005204Y017623D03*
X005021Y018699D03*
X006123Y018699D03*
D13*
X007334Y019243D03*
X008948Y019243D03*
X008870Y017079D03*
X007256Y017079D03*
M02*
