G75*
G70*
%OFA0B0*%
%FSLAX24Y24*%
%IPPOS*%
%LPD*%
%AMOC8*
5,1,8,0,0,1.08239X$1,22.5*
%
%ADD10C,0.0020*%
%ADD11C,0.0040*%
%ADD12C,0.0030*%
%ADD13C,0.0100*%
%ADD14C,0.0050*%
%ADD15C,0.0120*%
%ADD16C,0.0060*%
%ADD17R,0.1500X0.0300*%
%ADD18R,0.0300X0.1500*%
D10*
X003938Y003745D02*
X004105Y003888D01*
X004177Y003805D01*
X004173Y003753D01*
X004117Y003705D01*
X004066Y003709D01*
X003994Y003793D01*
X004042Y003737D02*
X004034Y003634D01*
X004082Y003577D02*
X004345Y003609D01*
X004249Y003720D02*
X004178Y003466D01*
X004464Y003146D02*
X004462Y003094D01*
X004512Y003040D01*
X004564Y003038D01*
X004618Y003088D01*
X004568Y003142D01*
X004573Y003246D02*
X004464Y003146D01*
X004573Y003246D02*
X004624Y003243D01*
X004674Y003189D01*
X004672Y003138D01*
X004749Y003108D02*
X004587Y002959D01*
X004686Y002851D02*
X004848Y003000D01*
X004899Y002945D02*
X004973Y002864D01*
X004971Y002812D01*
X004863Y002713D01*
X004811Y002715D01*
X004737Y002796D01*
X004899Y002945D01*
X004749Y003108D02*
X004686Y002851D01*
X003552Y004213D02*
X003625Y004468D01*
X003577Y004524D02*
X003482Y004636D01*
X003530Y004580D02*
X003362Y004438D01*
X003457Y004325D02*
X003720Y004356D01*
X003134Y004912D02*
X003108Y004887D01*
X003056Y004888D01*
X003055Y004836D01*
X003029Y004810D01*
X002977Y004811D01*
X002926Y004864D01*
X002927Y004916D01*
X002902Y004995D02*
X003008Y005097D01*
X003033Y005018D02*
X003084Y005017D01*
X003135Y004964D01*
X003134Y004912D01*
X003056Y004888D02*
X003031Y004914D01*
X002902Y004995D02*
X002798Y004997D01*
X002800Y005101D01*
X002906Y005202D01*
X002828Y005230D02*
X002801Y005205D01*
X002749Y005206D01*
X002748Y005154D01*
X002722Y005129D01*
X002670Y005130D01*
X002619Y005183D01*
X002620Y005234D01*
X002724Y005232D02*
X002749Y005206D01*
X002828Y005230D02*
X002829Y005282D01*
X002778Y005335D01*
X002726Y005336D01*
X002622Y005339D02*
X002520Y005445D01*
X002624Y005443D02*
X002518Y005341D01*
X001293Y005753D02*
X001073Y005753D01*
X001073Y005900D01*
X001073Y005974D02*
X001293Y005974D01*
X001293Y006121D01*
X001293Y006195D02*
X001146Y006195D01*
X001073Y006268D01*
X001146Y006342D01*
X001293Y006342D01*
X001257Y006416D02*
X001293Y006453D01*
X001293Y006526D01*
X001257Y006563D01*
X001220Y006563D01*
X001183Y006526D01*
X001183Y006453D01*
X001146Y006416D01*
X001110Y006416D01*
X001073Y006453D01*
X001073Y006526D01*
X001110Y006563D01*
X001073Y006637D02*
X001293Y006637D01*
X001183Y006637D02*
X001183Y006784D01*
X001073Y006784D02*
X001293Y006784D01*
X001183Y006342D02*
X001183Y006195D01*
X001183Y005826D02*
X001183Y005753D01*
X004443Y005753D02*
X004443Y005863D01*
X004479Y005900D01*
X004553Y005900D01*
X004590Y005863D01*
X004590Y005753D01*
X004663Y005753D02*
X004443Y005753D01*
X004590Y005826D02*
X004663Y005900D01*
X004663Y005974D02*
X004663Y006121D01*
X004626Y006195D02*
X004663Y006232D01*
X004663Y006305D01*
X004626Y006342D01*
X004590Y006342D01*
X004553Y006305D01*
X004553Y006232D01*
X004516Y006195D01*
X004479Y006195D01*
X004443Y006232D01*
X004443Y006305D01*
X004479Y006342D01*
X004443Y006416D02*
X004663Y006416D01*
X004663Y006563D01*
X004553Y006489D02*
X004553Y006416D01*
X004443Y006416D02*
X004443Y006563D01*
X004443Y006637D02*
X004443Y006784D01*
X004443Y006710D02*
X004663Y006710D01*
X004443Y006121D02*
X004443Y005974D01*
X004663Y005974D01*
X004553Y005974D02*
X004553Y006047D01*
X017413Y007610D02*
X017560Y007610D01*
X017634Y007610D02*
X017707Y007647D01*
X017744Y007647D01*
X017781Y007610D01*
X017781Y007537D01*
X017744Y007500D01*
X017671Y007500D01*
X017634Y007537D01*
X017634Y007610D02*
X017634Y007720D01*
X017781Y007720D01*
X017855Y007720D02*
X017855Y007574D01*
X017928Y007500D01*
X018002Y007574D01*
X018002Y007720D01*
X017486Y007684D02*
X017486Y007537D01*
X018536Y007500D02*
X018609Y007500D01*
X018573Y007500D02*
X018573Y007720D01*
X018609Y007720D02*
X018536Y007720D01*
X018683Y007720D02*
X018683Y007500D01*
X018830Y007500D02*
X018683Y007720D01*
X018830Y007720D02*
X018830Y007500D01*
X019285Y007537D02*
X019322Y007500D01*
X019395Y007500D01*
X019432Y007537D01*
X019432Y007610D01*
X019358Y007610D01*
X019285Y007684D02*
X019285Y007537D01*
X019285Y007684D02*
X019322Y007720D01*
X019395Y007720D01*
X019432Y007684D01*
X019506Y007720D02*
X019653Y007500D01*
X019653Y007720D01*
X019727Y007720D02*
X019727Y007500D01*
X019837Y007500D01*
X019874Y007537D01*
X019874Y007684D01*
X019837Y007720D01*
X019727Y007720D01*
X019506Y007720D02*
X019506Y007500D01*
D11*
X017030Y008851D02*
X017030Y008911D01*
X016970Y008911D01*
X016970Y008851D01*
X017030Y008851D01*
X016850Y008723D02*
X016910Y008663D01*
X016909Y008483D01*
X017029Y008483D02*
X016669Y008483D01*
X016669Y008664D01*
X016730Y008724D01*
X016850Y008723D01*
X017029Y008355D02*
X016669Y008355D01*
X016789Y008235D01*
X016669Y008115D01*
X017029Y008115D01*
X017029Y007986D02*
X017028Y007746D01*
X016668Y007747D01*
X016668Y007987D01*
X016848Y007867D02*
X016848Y007747D01*
X016668Y007619D02*
X016667Y007379D01*
X016667Y007499D02*
X017028Y007498D01*
X015876Y012255D02*
X015636Y012255D01*
X015876Y012496D01*
X015876Y012556D01*
X015816Y012616D01*
X015696Y012616D01*
X015636Y012556D01*
X015508Y012556D02*
X015508Y012436D01*
X015448Y012376D01*
X015268Y012376D01*
X015388Y012376D02*
X015508Y012255D01*
X015268Y012255D02*
X015268Y012616D01*
X015448Y012616D01*
X015508Y012556D01*
X015139Y012556D02*
X015139Y012315D01*
X015079Y012255D01*
X014959Y012255D01*
X014899Y012315D01*
X014899Y012556D01*
X014959Y012616D01*
X015079Y012616D01*
X015139Y012556D01*
X014771Y012556D02*
X014711Y012616D01*
X014591Y012616D01*
X014531Y012556D01*
X014531Y012496D01*
X014591Y012436D01*
X014711Y012436D01*
X014771Y012376D01*
X014771Y012315D01*
X014711Y012255D01*
X014591Y012255D01*
X014531Y012315D01*
X014403Y012255D02*
X014403Y012616D01*
X014163Y012616D02*
X014403Y012255D01*
X014163Y012255D02*
X014163Y012616D01*
X014035Y012616D02*
X013794Y012616D01*
X013794Y012255D01*
X014035Y012255D01*
X013914Y012436D02*
X013794Y012436D01*
X013666Y012376D02*
X013666Y012315D01*
X013606Y012255D01*
X013486Y012255D01*
X013426Y012315D01*
X013486Y012436D02*
X013426Y012496D01*
X013426Y012556D01*
X013486Y012616D01*
X013606Y012616D01*
X013666Y012556D01*
X013606Y012436D02*
X013666Y012376D01*
X013606Y012436D02*
X013486Y012436D01*
X011882Y012255D02*
X011642Y012255D01*
X011762Y012255D02*
X011762Y012616D01*
X011642Y012496D01*
X011514Y012556D02*
X011514Y012436D01*
X011454Y012376D01*
X011274Y012376D01*
X011394Y012376D02*
X011514Y012255D01*
X011274Y012255D02*
X011274Y012616D01*
X011454Y012616D01*
X011514Y012556D01*
X011146Y012556D02*
X011146Y012315D01*
X011086Y012255D01*
X010966Y012255D01*
X010906Y012315D01*
X010906Y012556D01*
X010966Y012616D01*
X011086Y012616D01*
X011146Y012556D01*
X010777Y012556D02*
X010717Y012616D01*
X010597Y012616D01*
X010537Y012556D01*
X010537Y012496D01*
X010597Y012436D01*
X010717Y012436D01*
X010777Y012376D01*
X010777Y012315D01*
X010717Y012255D01*
X010597Y012255D01*
X010537Y012315D01*
X010409Y012255D02*
X010409Y012616D01*
X010169Y012616D02*
X010409Y012255D01*
X010169Y012255D02*
X010169Y012616D01*
X010041Y012616D02*
X009801Y012616D01*
X009801Y012255D01*
X010041Y012255D01*
X009921Y012436D02*
X009801Y012436D01*
X009672Y012376D02*
X009672Y012315D01*
X009612Y012255D01*
X009492Y012255D01*
X009432Y012315D01*
X009492Y012436D02*
X009612Y012436D01*
X009672Y012376D01*
X009672Y012556D02*
X009612Y012616D01*
X009492Y012616D01*
X009432Y012556D01*
X009432Y012496D01*
X009492Y012436D01*
X004268Y011782D02*
X004181Y011782D01*
X003834Y012129D01*
X003747Y012129D01*
X003747Y011782D01*
X003834Y011613D02*
X003747Y011526D01*
X003747Y011353D01*
X003834Y011266D01*
X004181Y011266D01*
X003834Y011613D01*
X004181Y011613D01*
X004268Y011526D01*
X004268Y011353D01*
X004181Y011266D01*
X004008Y011097D02*
X004008Y010750D01*
X004008Y010582D02*
X004094Y010495D01*
X004094Y010235D01*
X004094Y010066D02*
X004181Y010066D01*
X004268Y009979D01*
X004268Y009806D01*
X004181Y009719D01*
X004268Y009550D02*
X004268Y009203D01*
X003747Y009203D01*
X003747Y009550D01*
X003834Y009719D02*
X003747Y009806D01*
X003747Y009979D01*
X003834Y010066D01*
X003747Y010235D02*
X003747Y010495D01*
X003834Y010582D01*
X004008Y010582D01*
X004268Y010235D02*
X003747Y010235D01*
X004008Y009979D02*
X004094Y010066D01*
X004008Y009979D02*
X004008Y009806D01*
X003921Y009719D01*
X003834Y009719D01*
X004008Y009377D02*
X004008Y009203D01*
X002582Y007342D02*
X002462Y007342D01*
X002402Y007282D01*
X002274Y007282D02*
X002274Y007162D01*
X002214Y007102D01*
X002034Y007102D01*
X002034Y006982D02*
X002034Y007342D01*
X002214Y007342D01*
X002274Y007282D01*
X002402Y007042D02*
X002462Y006982D01*
X002582Y006982D01*
X002642Y007042D01*
X002642Y007102D01*
X002582Y007162D01*
X002522Y007162D01*
X002582Y007162D02*
X002642Y007222D01*
X002642Y007282D01*
X002582Y007342D01*
X001905Y007342D02*
X001785Y007342D01*
X001845Y007342D02*
X001845Y007042D01*
X001785Y006982D01*
X001725Y006982D01*
X001665Y007042D01*
X003509Y005234D02*
X003628Y005099D01*
X003712Y005093D01*
X003803Y005173D01*
X003808Y005257D01*
X003689Y005393D01*
X003418Y005154D01*
X003588Y005144D02*
X003577Y004974D01*
X003707Y004918D02*
X003702Y004833D01*
X003781Y004743D01*
X003866Y004737D01*
X003911Y004777D01*
X003916Y004862D01*
X003837Y004952D01*
X003842Y005037D01*
X003887Y005077D01*
X003972Y005071D01*
X004051Y004981D01*
X004046Y004896D01*
X004131Y004800D02*
X004216Y004795D01*
X004295Y004705D01*
X004290Y004620D01*
X004245Y004580D01*
X003906Y004602D01*
X004064Y004422D01*
X004194Y004365D02*
X004189Y004280D01*
X004268Y004190D01*
X004353Y004185D01*
X004398Y004225D01*
X004403Y004309D01*
X004364Y004354D01*
X004403Y004309D02*
X004488Y004304D01*
X004533Y004344D01*
X004539Y004429D01*
X004459Y004519D01*
X004374Y004524D01*
X004618Y004248D02*
X004703Y004242D01*
X004782Y004152D01*
X004777Y004068D01*
X004732Y004028D01*
X004393Y004049D01*
X004552Y003869D01*
X006315Y004287D02*
X006402Y004373D01*
X006576Y004200D01*
X006662Y004287D01*
X006831Y004200D02*
X006918Y004287D01*
X007091Y004287D01*
X007178Y004200D01*
X007178Y004113D01*
X006831Y003766D01*
X007178Y003766D01*
X007347Y003853D02*
X007433Y003766D01*
X007607Y003766D01*
X007694Y003853D01*
X007694Y003940D01*
X007607Y004026D01*
X007520Y004026D01*
X007607Y004026D02*
X007694Y004113D01*
X007694Y004200D01*
X007607Y004287D01*
X007433Y004287D01*
X007347Y004200D01*
X007862Y004200D02*
X007862Y003853D01*
X008209Y004200D01*
X008209Y003853D01*
X008122Y003766D01*
X007949Y003766D01*
X007862Y003853D01*
X007862Y004200D02*
X007949Y004287D01*
X008122Y004287D01*
X008209Y004200D01*
X008378Y004287D02*
X008378Y003940D01*
X008551Y003766D01*
X008725Y003940D01*
X008725Y004287D01*
X017304Y013240D02*
X017484Y013240D01*
X017544Y013300D01*
X017544Y013360D01*
X017484Y013420D01*
X017304Y013420D01*
X017484Y013420D02*
X017544Y013480D01*
X017544Y013540D01*
X017484Y013600D01*
X017304Y013600D01*
X017304Y013240D01*
X017672Y013300D02*
X017732Y013240D01*
X017852Y013240D01*
X017912Y013300D01*
X017912Y013600D01*
X018040Y013600D02*
X018280Y013600D01*
X018160Y013600D02*
X018160Y013240D01*
X018529Y013240D02*
X018529Y013600D01*
X018649Y013600D02*
X018408Y013600D01*
X018777Y013540D02*
X018777Y013300D01*
X018837Y013240D01*
X018957Y013240D01*
X019017Y013300D01*
X019017Y013540D01*
X018957Y013600D01*
X018837Y013600D01*
X018777Y013540D01*
X019145Y013600D02*
X019145Y013240D01*
X019385Y013240D02*
X019385Y013600D01*
X019145Y013600D02*
X019385Y013240D01*
X017672Y013300D02*
X017672Y013600D01*
X004734Y018285D02*
X004734Y018405D01*
X004734Y018345D02*
X004374Y018345D01*
X004374Y018285D02*
X004374Y018405D01*
X004434Y018530D02*
X004674Y018530D01*
X004734Y018590D01*
X004734Y018710D01*
X004674Y018770D01*
X004734Y018899D02*
X004734Y019139D01*
X004734Y019019D02*
X004374Y019019D01*
X004494Y018899D01*
X004434Y018770D02*
X004374Y018710D01*
X004374Y018590D01*
X004434Y018530D01*
X001875Y014711D02*
X001875Y014190D01*
X002048Y014190D02*
X001701Y014190D01*
X001532Y014277D02*
X001532Y014711D01*
X001701Y014537D02*
X001875Y014711D01*
X001532Y014277D02*
X001446Y014190D01*
X001272Y014190D01*
X001185Y014277D01*
X001185Y014711D01*
D12*
X001944Y016770D02*
X002142Y016918D01*
X002239Y016991D02*
X002301Y017114D01*
X002350Y017151D01*
X002437Y017139D01*
X002511Y017040D01*
X002498Y016953D01*
X002399Y016879D01*
X002313Y016892D01*
X002239Y016991D02*
X002128Y017139D01*
X002326Y017287D01*
X002423Y017360D02*
X002571Y017162D01*
X002744Y017137D01*
X002769Y017310D01*
X002621Y017507D01*
X001969Y016943D02*
X002117Y016745D01*
X003867Y016869D02*
X003880Y016955D01*
X003978Y017029D01*
X004065Y017017D01*
X004102Y016967D01*
X004089Y016881D01*
X004176Y016869D01*
X004213Y016819D01*
X004200Y016733D01*
X004101Y016659D01*
X004015Y016671D01*
X004040Y016844D02*
X004089Y016881D01*
X004273Y016941D02*
X004446Y016916D01*
X004471Y017089D01*
X004323Y017287D01*
X004457Y017310D02*
X004469Y017397D01*
X004568Y017470D01*
X004655Y017458D01*
X004692Y017409D01*
X004679Y017322D01*
X004766Y017310D01*
X004802Y017260D01*
X004790Y017174D01*
X004691Y017100D01*
X004605Y017112D01*
X004630Y017285D02*
X004679Y017322D01*
X004273Y016941D02*
X004125Y017139D01*
X009334Y016905D02*
X009334Y016658D01*
X009395Y016596D01*
X009519Y016596D01*
X009580Y016658D01*
X009580Y016905D01*
X009519Y016966D01*
X009395Y016966D01*
X009334Y016905D01*
X009457Y016720D02*
X009580Y016596D01*
X009702Y016596D02*
X009949Y016596D01*
X009825Y016596D02*
X009825Y016966D01*
X009702Y016843D01*
X010187Y014474D02*
X010372Y014474D01*
X010434Y014412D01*
X010434Y014288D01*
X010372Y014227D01*
X010187Y014227D01*
X010310Y014227D02*
X010434Y014103D01*
X010555Y014165D02*
X010555Y014227D01*
X010617Y014288D01*
X010740Y014288D01*
X010802Y014227D01*
X010802Y014165D01*
X010740Y014103D01*
X010617Y014103D01*
X010555Y014165D01*
X010617Y014288D02*
X010555Y014350D01*
X010555Y014412D01*
X010617Y014474D01*
X010740Y014474D01*
X010802Y014412D01*
X010802Y014350D01*
X010740Y014288D01*
X010187Y014103D02*
X010187Y014474D01*
X013930Y014485D02*
X013930Y014855D01*
X014116Y014855D01*
X014177Y014793D01*
X014177Y014670D01*
X014116Y014608D01*
X013930Y014608D01*
X014054Y014608D02*
X014177Y014485D01*
X014299Y014546D02*
X014360Y014485D01*
X014484Y014485D01*
X014546Y014546D01*
X014546Y014608D01*
X014484Y014670D01*
X014299Y014670D01*
X014299Y014546D01*
X014299Y014670D02*
X014422Y014793D01*
X014546Y014855D01*
X014492Y015346D02*
X014368Y015346D01*
X014307Y015407D01*
X014307Y015531D02*
X014430Y015593D01*
X014492Y015593D01*
X014553Y015531D01*
X014553Y015407D01*
X014492Y015346D01*
X014307Y015531D02*
X014307Y015716D01*
X014553Y015716D01*
X014185Y015654D02*
X014185Y015531D01*
X014123Y015469D01*
X013938Y015469D01*
X013938Y015346D02*
X013938Y015716D01*
X014123Y015716D01*
X014185Y015654D01*
X014062Y015469D02*
X014185Y015346D01*
X014116Y016352D02*
X014178Y016413D01*
X014116Y016352D02*
X013993Y016352D01*
X013931Y016413D01*
X013931Y016660D01*
X013993Y016722D01*
X014116Y016722D01*
X014178Y016660D01*
X014299Y016537D02*
X014484Y016537D01*
X014546Y016475D01*
X014546Y016413D01*
X014484Y016352D01*
X014361Y016352D01*
X014299Y016413D01*
X014299Y016537D01*
X014423Y016660D01*
X014546Y016722D01*
X010630Y019652D02*
X010383Y019652D01*
X010506Y019652D02*
X010506Y020022D01*
X010383Y019899D01*
X010262Y019961D02*
X010262Y019714D01*
X010200Y019652D01*
X010015Y019652D01*
X010015Y020022D01*
X010200Y020022D01*
X010262Y019961D01*
X014796Y007127D02*
X014981Y007127D01*
X015043Y007066D01*
X015043Y006942D01*
X014981Y006881D01*
X014796Y006881D01*
X014920Y006881D02*
X015043Y006757D01*
X015164Y006819D02*
X015226Y006757D01*
X015350Y006757D01*
X015411Y006819D01*
X015411Y007066D01*
X015350Y007127D01*
X015226Y007127D01*
X015164Y007066D01*
X015164Y007004D01*
X015226Y006942D01*
X015411Y006942D01*
X014796Y006757D02*
X014796Y007127D01*
X014747Y005727D02*
X014871Y005727D01*
X014932Y005665D01*
X014932Y005418D01*
X014871Y005357D01*
X014747Y005357D01*
X014686Y005418D01*
X014686Y005665D01*
X014747Y005727D01*
X014809Y005480D02*
X014932Y005357D01*
X015054Y005357D02*
X015301Y005604D01*
X015301Y005665D01*
X015239Y005727D01*
X015116Y005727D01*
X015054Y005665D01*
X015054Y005357D02*
X015301Y005357D01*
X011661Y005010D02*
X011414Y005010D01*
X011293Y005010D02*
X011046Y005010D01*
X010925Y005010D02*
X010801Y005133D01*
X010863Y005133D02*
X010678Y005133D01*
X010678Y005010D02*
X010678Y005380D01*
X010863Y005380D01*
X010925Y005318D01*
X010925Y005195D01*
X010863Y005133D01*
X011046Y005257D02*
X011169Y005380D01*
X011169Y005010D01*
X011414Y005257D02*
X011538Y005380D01*
X011538Y005010D01*
X011420Y004257D02*
X011667Y004257D01*
X011667Y004195D01*
X011420Y003948D01*
X011420Y003887D01*
X011299Y003948D02*
X011237Y003887D01*
X011114Y003887D01*
X011052Y003948D01*
X011052Y004195D01*
X011114Y004257D01*
X011237Y004257D01*
X011299Y004195D01*
X011293Y006008D02*
X011046Y006008D01*
X010925Y006008D02*
X010801Y006132D01*
X010863Y006132D02*
X010678Y006132D01*
X010678Y006008D02*
X010678Y006379D01*
X010863Y006379D01*
X010925Y006317D01*
X010925Y006193D01*
X010863Y006132D01*
X011046Y006255D02*
X011169Y006379D01*
X011169Y006008D01*
X011414Y006070D02*
X011661Y006317D01*
X011661Y006070D01*
X011599Y006008D01*
X011476Y006008D01*
X011414Y006070D01*
X011414Y006317D01*
X011476Y006379D01*
X011599Y006379D01*
X011661Y006317D01*
X011155Y002085D02*
X011032Y002085D01*
X010970Y002024D01*
X010849Y002024D02*
X010787Y002085D01*
X010602Y002085D01*
X010602Y001715D01*
X010787Y001715D01*
X010849Y001777D01*
X010849Y002024D01*
X011155Y002085D02*
X011217Y002024D01*
X011217Y001962D01*
X010970Y001715D01*
X011217Y001715D01*
D13*
X013187Y000751D02*
X007766Y000751D01*
X007766Y000750D02*
X007429Y000758D01*
X007092Y000782D01*
X006757Y000822D01*
X006425Y000878D01*
X006095Y000950D01*
X005769Y001037D01*
X005448Y001140D01*
X005132Y001258D01*
X004822Y001390D01*
X004519Y001538D01*
X004222Y001699D01*
X003934Y001875D01*
X003655Y002064D01*
X003385Y002266D01*
X003125Y002481D01*
X002875Y002708D01*
X002637Y002946D01*
X002410Y003196D01*
X002195Y003456D01*
X001993Y003726D01*
X001804Y004005D01*
X001628Y004294D01*
X001467Y004590D01*
X001319Y004893D01*
X001187Y005203D01*
X001069Y005519D01*
X000966Y005840D01*
X000879Y006166D01*
X000807Y006496D01*
X000751Y006828D01*
X000711Y007163D01*
X000687Y007500D01*
X000679Y007837D01*
X000679Y013258D01*
X000687Y013595D01*
X000711Y013932D01*
X000751Y014267D01*
X000807Y014599D01*
X000879Y014929D01*
X000966Y015255D01*
X001069Y015576D01*
X001187Y015892D01*
X001319Y016202D01*
X001467Y016505D01*
X001628Y016802D01*
X001804Y017090D01*
X001993Y017369D01*
X002195Y017639D01*
X002410Y017899D01*
X002637Y018149D01*
X002875Y018387D01*
X003125Y018614D01*
X003385Y018829D01*
X003655Y019031D01*
X003934Y019220D01*
X004222Y019396D01*
X004519Y019557D01*
X004822Y019705D01*
X005132Y019837D01*
X005448Y019955D01*
X005769Y020058D01*
X006095Y020145D01*
X006425Y020217D01*
X006757Y020273D01*
X007092Y020313D01*
X007429Y020337D01*
X007766Y020345D01*
X013187Y020345D01*
X013524Y020337D01*
X013861Y020313D01*
X014196Y020273D01*
X014528Y020217D01*
X014858Y020145D01*
X015184Y020058D01*
X015505Y019955D01*
X015821Y019837D01*
X016131Y019705D01*
X016434Y019557D01*
X016731Y019396D01*
X017019Y019220D01*
X017298Y019031D01*
X017568Y018829D01*
X017828Y018614D01*
X018078Y018387D01*
X018316Y018149D01*
X018543Y017899D01*
X018758Y017639D01*
X018960Y017369D01*
X019149Y017090D01*
X019325Y016802D01*
X019486Y016505D01*
X019634Y016202D01*
X019766Y015892D01*
X019884Y015576D01*
X019987Y015255D01*
X020074Y014929D01*
X020146Y014599D01*
X020202Y014267D01*
X020242Y013932D01*
X020266Y013595D01*
X020274Y013258D01*
X020273Y013258D02*
X020273Y007837D01*
X020274Y007837D02*
X020266Y007500D01*
X020242Y007163D01*
X020202Y006828D01*
X020146Y006496D01*
X020074Y006166D01*
X019987Y005840D01*
X019884Y005519D01*
X019766Y005203D01*
X019634Y004893D01*
X019486Y004590D01*
X019325Y004294D01*
X019149Y004005D01*
X018960Y003726D01*
X018758Y003456D01*
X018543Y003196D01*
X018316Y002946D01*
X018078Y002708D01*
X017828Y002481D01*
X017568Y002266D01*
X017298Y002064D01*
X017019Y001875D01*
X016731Y001699D01*
X016434Y001538D01*
X016131Y001390D01*
X015821Y001258D01*
X015505Y001140D01*
X015184Y001037D01*
X014858Y000950D01*
X014528Y000878D01*
X014196Y000822D01*
X013861Y000782D01*
X013524Y000758D01*
X013187Y000750D01*
D14*
X011009Y001250D02*
X010913Y001250D01*
X010913Y001438D01*
X010663Y001250D01*
X010567Y001250D01*
X010663Y001250D02*
X010663Y001438D01*
X010663Y001250D02*
X010663Y001062D01*
X010663Y001250D02*
X010913Y001062D01*
X010913Y001250D01*
X009170Y007569D02*
X002004Y007569D01*
X002004Y013869D01*
X009170Y013869D01*
X009170Y007569D01*
X009438Y011510D02*
X009665Y011510D01*
X009551Y011510D02*
X009551Y011851D01*
X009438Y011737D01*
X011438Y011794D02*
X011494Y011851D01*
X011608Y011851D01*
X011665Y011794D01*
X011665Y011737D01*
X011438Y011510D01*
X011665Y011510D01*
X013431Y011510D02*
X013658Y011510D01*
X013545Y011510D02*
X013545Y011851D01*
X013431Y011737D01*
X015431Y011794D02*
X015488Y011851D01*
X015602Y011851D01*
X015658Y011794D01*
X015658Y011737D01*
X015431Y011510D01*
X015658Y011510D01*
X017309Y011444D02*
X017309Y011331D01*
X017366Y011274D01*
X017309Y011444D02*
X017366Y011501D01*
X017423Y011501D01*
X017649Y011274D01*
X017649Y011501D01*
X017649Y009501D02*
X017649Y009274D01*
X017649Y009387D02*
X017309Y009387D01*
X017423Y009274D01*
X010535Y018927D02*
X010535Y019114D01*
X010631Y019114D01*
X010535Y019114D02*
X010535Y019302D01*
X010535Y019114D02*
X010285Y018927D01*
X010285Y019114D01*
X010189Y019114D01*
X010285Y019114D02*
X010285Y019302D01*
X010535Y019114D01*
X002004Y013869D02*
X000721Y013869D01*
X000721Y007569D01*
X002004Y007569D01*
X001624Y007633D02*
X000936Y007633D01*
X000936Y008321D01*
X001624Y008321D01*
X001624Y007633D01*
X001311Y007946D02*
X001249Y007946D01*
X001311Y008008D01*
X001311Y007946D01*
X001015Y007977D02*
X001017Y008009D01*
X001023Y008040D01*
X001032Y008071D01*
X001045Y008100D01*
X001062Y008128D01*
X001082Y008153D01*
X001104Y008175D01*
X001129Y008195D01*
X001157Y008212D01*
X001186Y008225D01*
X001217Y008234D01*
X001248Y008240D01*
X001280Y008242D01*
X001312Y008240D01*
X001343Y008234D01*
X001374Y008225D01*
X001403Y008212D01*
X001431Y008195D01*
X001456Y008175D01*
X001478Y008153D01*
X001498Y008128D01*
X001515Y008100D01*
X001528Y008071D01*
X001537Y008040D01*
X001543Y008009D01*
X001545Y007977D01*
X001543Y007945D01*
X001537Y007914D01*
X001528Y007883D01*
X001515Y007854D01*
X001498Y007826D01*
X001478Y007801D01*
X001456Y007779D01*
X001431Y007759D01*
X001403Y007742D01*
X001374Y007729D01*
X001343Y007720D01*
X001312Y007714D01*
X001280Y007712D01*
X001248Y007714D01*
X001217Y007720D01*
X001186Y007729D01*
X001157Y007742D01*
X001129Y007759D01*
X001104Y007779D01*
X001082Y007801D01*
X001062Y007826D01*
X001045Y007854D01*
X001032Y007883D01*
X001023Y007914D01*
X001017Y007945D01*
X001015Y007977D01*
X001249Y007946D02*
X001249Y008008D01*
X001311Y008008D01*
X001061Y009852D02*
X001655Y009852D01*
X001655Y013727D01*
X001061Y013727D01*
X001061Y009852D01*
X001811Y010290D02*
X001936Y010290D01*
X001936Y010883D01*
X001811Y010883D01*
X001811Y010290D01*
X001811Y012758D02*
X001936Y012758D01*
X001936Y013352D01*
X001811Y013352D01*
X001811Y012758D01*
D15*
X001874Y012821D02*
X001874Y013321D01*
X001874Y010821D02*
X001874Y010321D01*
D16*
X002992Y002998D02*
X003323Y002623D01*
X003676Y002601D01*
X003654Y002248D01*
X003984Y001873D01*
X004337Y001851D01*
X004712Y002182D01*
X004734Y002534D01*
X004404Y002910D01*
X004051Y002932D01*
X003676Y002601D01*
X004051Y002932D02*
X004073Y003285D01*
X003742Y003660D01*
X003390Y003682D01*
X003015Y003351D01*
X002662Y003373D01*
X002331Y003748D01*
X002353Y004101D01*
X002000Y004124D01*
X001670Y004499D01*
X001692Y004851D01*
X002067Y005182D01*
X002420Y005160D01*
X002750Y004785D01*
X002728Y004432D01*
X003081Y004410D01*
X003412Y004035D01*
X003390Y003682D01*
X003015Y003351D02*
X002992Y002998D01*
X002353Y004101D02*
X002728Y004432D01*
X002551Y005742D02*
X002301Y005992D01*
X002051Y005742D01*
X001551Y005742D01*
X001301Y005992D01*
X001301Y006492D01*
X001551Y006742D01*
X002051Y006742D01*
X002301Y006492D01*
X002551Y006742D01*
X003051Y006742D01*
X003301Y006492D01*
X003551Y006742D01*
X004051Y006742D01*
X004301Y006492D01*
X004301Y005992D01*
X004051Y005742D01*
X003551Y005742D01*
X003301Y005992D01*
X003051Y005742D01*
X002551Y005742D01*
X002301Y005992D02*
X002301Y006492D01*
X003301Y006492D02*
X003301Y005992D01*
X008963Y011285D02*
X009163Y011335D01*
X009163Y009635D01*
X013163Y009635D01*
X013163Y009085D01*
X009163Y009085D01*
X009163Y009635D01*
X008963Y011285D02*
X008963Y011735D01*
X009163Y011685D01*
X009163Y011335D01*
X013163Y011335D01*
X013163Y009635D01*
X013156Y009635D02*
X013156Y011335D01*
X017156Y011335D01*
X017156Y009635D01*
X017156Y009085D01*
X013156Y009085D01*
X013156Y009635D01*
X017156Y009635D01*
X017274Y010009D02*
X017276Y010037D01*
X017282Y010064D01*
X017291Y010090D01*
X017304Y010115D01*
X017321Y010138D01*
X017340Y010158D01*
X017362Y010175D01*
X017386Y010189D01*
X017412Y010199D01*
X017439Y010206D01*
X017467Y010209D01*
X017495Y010208D01*
X017522Y010203D01*
X017549Y010194D01*
X017574Y010182D01*
X017597Y010167D01*
X017618Y010148D01*
X017636Y010127D01*
X017651Y010103D01*
X017662Y010077D01*
X017670Y010051D01*
X017674Y010023D01*
X017674Y009995D01*
X017670Y009967D01*
X017662Y009941D01*
X017651Y009915D01*
X017636Y009891D01*
X017618Y009870D01*
X017597Y009851D01*
X017574Y009836D01*
X017549Y009824D01*
X017522Y009815D01*
X017495Y009810D01*
X017467Y009809D01*
X017439Y009812D01*
X017412Y009819D01*
X017386Y009829D01*
X017362Y009843D01*
X017340Y009860D01*
X017321Y009880D01*
X017304Y009903D01*
X017291Y009928D01*
X017282Y009954D01*
X017276Y009981D01*
X017274Y010009D01*
X017124Y008999D02*
X017474Y008999D01*
X017824Y008999D01*
X019524Y008999D01*
X019524Y012999D01*
X020074Y012999D01*
X020074Y008999D01*
X019524Y008999D01*
X019425Y008870D02*
X019925Y008869D01*
X020175Y008618D01*
X020174Y008118D01*
X019924Y007869D01*
X019424Y007870D01*
X019174Y008120D01*
X018924Y007870D01*
X018424Y007871D01*
X018174Y008122D01*
X017924Y007872D01*
X017424Y007873D01*
X017174Y008123D01*
X017175Y008623D01*
X017425Y008873D01*
X017925Y008872D01*
X018175Y008622D01*
X018425Y008871D01*
X018925Y008870D01*
X019175Y008620D01*
X019425Y008870D01*
X019175Y008620D02*
X019174Y008120D01*
X018174Y008122D02*
X018175Y008622D01*
X017874Y008799D02*
X017824Y008999D01*
X017824Y012999D01*
X019524Y012999D01*
X017824Y012999D02*
X017124Y012999D01*
X017124Y008999D01*
X017474Y008999D02*
X017424Y008799D01*
X017874Y008799D01*
X017156Y011335D02*
X017156Y012035D01*
X013156Y012035D01*
X013156Y011685D01*
X013156Y011335D01*
X012956Y011285D01*
X012956Y011735D01*
X013156Y011685D01*
X013163Y012035D02*
X013163Y011335D01*
X013163Y012035D02*
X009163Y012035D01*
X009163Y011685D01*
X009973Y011685D02*
X009975Y011713D01*
X009981Y011740D01*
X009990Y011766D01*
X010003Y011791D01*
X010020Y011814D01*
X010039Y011834D01*
X010061Y011851D01*
X010085Y011865D01*
X010111Y011875D01*
X010138Y011882D01*
X010166Y011885D01*
X010194Y011884D01*
X010221Y011879D01*
X010248Y011870D01*
X010273Y011858D01*
X010296Y011843D01*
X010317Y011824D01*
X010335Y011803D01*
X010350Y011779D01*
X010361Y011753D01*
X010369Y011727D01*
X010373Y011699D01*
X010373Y011671D01*
X010369Y011643D01*
X010361Y011617D01*
X010350Y011591D01*
X010335Y011567D01*
X010317Y011546D01*
X010296Y011527D01*
X010273Y011512D01*
X010248Y011500D01*
X010221Y011491D01*
X010194Y011486D01*
X010166Y011485D01*
X010138Y011488D01*
X010111Y011495D01*
X010085Y011505D01*
X010061Y011519D01*
X010039Y011536D01*
X010020Y011556D01*
X010003Y011579D01*
X009990Y011604D01*
X009981Y011630D01*
X009975Y011657D01*
X009973Y011685D01*
X011953Y011685D02*
X011955Y011713D01*
X011961Y011740D01*
X011970Y011766D01*
X011983Y011791D01*
X012000Y011814D01*
X012019Y011834D01*
X012041Y011851D01*
X012065Y011865D01*
X012091Y011875D01*
X012118Y011882D01*
X012146Y011885D01*
X012174Y011884D01*
X012201Y011879D01*
X012228Y011870D01*
X012253Y011858D01*
X012276Y011843D01*
X012297Y011824D01*
X012315Y011803D01*
X012330Y011779D01*
X012341Y011753D01*
X012349Y011727D01*
X012353Y011699D01*
X012353Y011671D01*
X012349Y011643D01*
X012341Y011617D01*
X012330Y011591D01*
X012315Y011567D01*
X012297Y011546D01*
X012276Y011527D01*
X012253Y011512D01*
X012228Y011500D01*
X012201Y011491D01*
X012174Y011486D01*
X012146Y011485D01*
X012118Y011488D01*
X012091Y011495D01*
X012065Y011505D01*
X012041Y011519D01*
X012019Y011536D01*
X012000Y011556D01*
X011983Y011579D01*
X011970Y011604D01*
X011961Y011630D01*
X011955Y011657D01*
X011953Y011685D01*
X013966Y011685D02*
X013968Y011713D01*
X013974Y011740D01*
X013983Y011766D01*
X013996Y011791D01*
X014013Y011814D01*
X014032Y011834D01*
X014054Y011851D01*
X014078Y011865D01*
X014104Y011875D01*
X014131Y011882D01*
X014159Y011885D01*
X014187Y011884D01*
X014214Y011879D01*
X014241Y011870D01*
X014266Y011858D01*
X014289Y011843D01*
X014310Y011824D01*
X014328Y011803D01*
X014343Y011779D01*
X014354Y011753D01*
X014362Y011727D01*
X014366Y011699D01*
X014366Y011671D01*
X014362Y011643D01*
X014354Y011617D01*
X014343Y011591D01*
X014328Y011567D01*
X014310Y011546D01*
X014289Y011527D01*
X014266Y011512D01*
X014241Y011500D01*
X014214Y011491D01*
X014187Y011486D01*
X014159Y011485D01*
X014131Y011488D01*
X014104Y011495D01*
X014078Y011505D01*
X014054Y011519D01*
X014032Y011536D01*
X014013Y011556D01*
X013996Y011579D01*
X013983Y011604D01*
X013974Y011630D01*
X013968Y011657D01*
X013966Y011685D01*
X015946Y011685D02*
X015948Y011713D01*
X015954Y011740D01*
X015963Y011766D01*
X015976Y011791D01*
X015993Y011814D01*
X016012Y011834D01*
X016034Y011851D01*
X016058Y011865D01*
X016084Y011875D01*
X016111Y011882D01*
X016139Y011885D01*
X016167Y011884D01*
X016194Y011879D01*
X016221Y011870D01*
X016246Y011858D01*
X016269Y011843D01*
X016290Y011824D01*
X016308Y011803D01*
X016323Y011779D01*
X016334Y011753D01*
X016342Y011727D01*
X016346Y011699D01*
X016346Y011671D01*
X016342Y011643D01*
X016334Y011617D01*
X016323Y011591D01*
X016308Y011567D01*
X016290Y011546D01*
X016269Y011527D01*
X016246Y011512D01*
X016221Y011500D01*
X016194Y011491D01*
X016167Y011486D01*
X016139Y011485D01*
X016111Y011488D01*
X016084Y011495D01*
X016058Y011505D01*
X016034Y011519D01*
X016012Y011536D01*
X015993Y011556D01*
X015976Y011579D01*
X015963Y011604D01*
X015954Y011630D01*
X015948Y011657D01*
X015946Y011685D01*
X017274Y011989D02*
X017276Y012017D01*
X017282Y012044D01*
X017291Y012070D01*
X017304Y012095D01*
X017321Y012118D01*
X017340Y012138D01*
X017362Y012155D01*
X017386Y012169D01*
X017412Y012179D01*
X017439Y012186D01*
X017467Y012189D01*
X017495Y012188D01*
X017522Y012183D01*
X017549Y012174D01*
X017574Y012162D01*
X017597Y012147D01*
X017618Y012128D01*
X017636Y012107D01*
X017651Y012083D01*
X017662Y012057D01*
X017670Y012031D01*
X017674Y012003D01*
X017674Y011975D01*
X017670Y011947D01*
X017662Y011921D01*
X017651Y011895D01*
X017636Y011871D01*
X017618Y011850D01*
X017597Y011831D01*
X017574Y011816D01*
X017549Y011804D01*
X017522Y011795D01*
X017495Y011790D01*
X017467Y011789D01*
X017439Y011792D01*
X017412Y011799D01*
X017386Y011809D01*
X017362Y011823D01*
X017340Y011840D01*
X017321Y011860D01*
X017304Y011883D01*
X017291Y011908D01*
X017282Y011934D01*
X017276Y011961D01*
X017274Y011989D01*
X007123Y016970D02*
X007123Y019430D01*
X005760Y019430D01*
X005760Y016970D01*
X007123Y016970D01*
D17*
X018674Y010999D03*
D18*
X015156Y010485D03*
X011163Y010485D03*
M02*
