G75*
G70*
%OFA0B0*%
%FSLAX24Y24*%
%IPPOS*%
%LPD*%
%AMOC8*
5,1,8,0,0,1.08239X$1,22.5*
%
%ADD10C,0.0100*%
%ADD11C,0.0245*%
%ADD12C,0.1500*%
%ADD13R,0.0551X0.0394*%
%ADD14R,0.0630X0.0710*%
%ADD15R,0.0630X0.0709*%
%ADD16C,0.0780*%
%ADD17C,0.0600*%
%ADD18R,0.0790X0.0590*%
%ADD19R,0.0790X0.1500*%
%ADD20R,0.0591X0.0827*%
%ADD21C,0.0984*%
%ADD22C,0.0160*%
%ADD23C,0.0320*%
%ADD24C,0.0357*%
%ADD25C,0.0400*%
%ADD26C,0.0240*%
D10*
X007766Y000751D02*
X013187Y000751D01*
X013187Y000750D02*
X013524Y000758D01*
X013861Y000782D01*
X014196Y000822D01*
X014528Y000878D01*
X014858Y000950D01*
X015184Y001037D01*
X015505Y001140D01*
X015821Y001258D01*
X016131Y001390D01*
X016434Y001538D01*
X016731Y001699D01*
X017019Y001875D01*
X017298Y002064D01*
X017568Y002266D01*
X017828Y002481D01*
X018078Y002708D01*
X018316Y002946D01*
X018543Y003196D01*
X018758Y003456D01*
X018960Y003726D01*
X019149Y004005D01*
X019325Y004294D01*
X019486Y004590D01*
X019634Y004893D01*
X019766Y005203D01*
X019884Y005519D01*
X019987Y005840D01*
X020074Y006166D01*
X020146Y006496D01*
X020202Y006828D01*
X020242Y007163D01*
X020266Y007500D01*
X020274Y007837D01*
X020273Y007837D02*
X020273Y013258D01*
X020274Y013258D02*
X020266Y013595D01*
X020242Y013932D01*
X020202Y014267D01*
X020146Y014599D01*
X020074Y014929D01*
X019987Y015255D01*
X019884Y015576D01*
X019766Y015892D01*
X019634Y016202D01*
X019486Y016505D01*
X019325Y016802D01*
X019149Y017090D01*
X018960Y017369D01*
X018758Y017639D01*
X018543Y017899D01*
X018316Y018149D01*
X018078Y018387D01*
X017828Y018614D01*
X017568Y018829D01*
X017298Y019031D01*
X017019Y019220D01*
X016731Y019396D01*
X016434Y019557D01*
X016131Y019705D01*
X015821Y019837D01*
X015505Y019955D01*
X015184Y020058D01*
X014858Y020145D01*
X014528Y020217D01*
X014196Y020273D01*
X013861Y020313D01*
X013524Y020337D01*
X013187Y020345D01*
X007766Y020345D01*
X007429Y020337D01*
X007092Y020313D01*
X006757Y020273D01*
X006425Y020217D01*
X006095Y020145D01*
X005769Y020058D01*
X005448Y019955D01*
X005132Y019837D01*
X004822Y019705D01*
X004519Y019557D01*
X004222Y019396D01*
X003934Y019220D01*
X003655Y019031D01*
X003385Y018829D01*
X003125Y018614D01*
X002875Y018387D01*
X002637Y018149D01*
X002410Y017899D01*
X002195Y017639D01*
X001993Y017369D01*
X001804Y017090D01*
X001628Y016802D01*
X001467Y016505D01*
X001319Y016202D01*
X001187Y015892D01*
X001069Y015576D01*
X000966Y015255D01*
X000879Y014929D01*
X000807Y014599D01*
X000751Y014267D01*
X000711Y013932D01*
X000687Y013595D01*
X000679Y013258D01*
X000679Y007837D01*
X000687Y007500D01*
X000711Y007163D01*
X000751Y006828D01*
X000807Y006496D01*
X000879Y006166D01*
X000966Y005840D01*
X001069Y005519D01*
X001187Y005203D01*
X001319Y004893D01*
X001467Y004590D01*
X001628Y004294D01*
X001804Y004005D01*
X001993Y003726D01*
X002195Y003456D01*
X002410Y003196D01*
X002637Y002946D01*
X002875Y002708D01*
X003125Y002481D01*
X003385Y002266D01*
X003655Y002064D01*
X003934Y001875D01*
X004222Y001699D01*
X004519Y001538D01*
X004822Y001390D01*
X005132Y001258D01*
X005448Y001140D01*
X005769Y001037D01*
X006095Y000950D01*
X006425Y000878D01*
X006757Y000822D01*
X007092Y000782D01*
X007429Y000758D01*
X007766Y000750D01*
D11*
X007877Y007349D02*
X007877Y008105D01*
X007877Y007349D02*
X007621Y007349D01*
X007621Y008105D01*
X007877Y008105D01*
X007877Y007593D02*
X007621Y007593D01*
X007621Y007837D02*
X007877Y007837D01*
X007877Y008081D02*
X007621Y008081D01*
X007096Y008105D02*
X007096Y007349D01*
X006840Y007349D01*
X006840Y008105D01*
X007096Y008105D01*
X007096Y007593D02*
X006840Y007593D01*
X006840Y007837D02*
X007096Y007837D01*
X007096Y008081D02*
X006840Y008081D01*
X006314Y008105D02*
X006314Y007349D01*
X006058Y007349D01*
X006058Y008105D01*
X006314Y008105D01*
X006314Y007593D02*
X006058Y007593D01*
X006058Y007837D02*
X006314Y007837D01*
X006314Y008081D02*
X006058Y008081D01*
X005533Y008105D02*
X005533Y007349D01*
X005277Y007349D01*
X005277Y008105D01*
X005533Y008105D01*
X005533Y007593D02*
X005277Y007593D01*
X005277Y007837D02*
X005533Y007837D01*
X005533Y008081D02*
X005277Y008081D01*
X004721Y008105D02*
X004721Y007349D01*
X004465Y007349D01*
X004465Y008105D01*
X004721Y008105D01*
X004721Y007593D02*
X004465Y007593D01*
X004465Y007837D02*
X004721Y007837D01*
X004721Y008081D02*
X004465Y008081D01*
X003939Y008105D02*
X003939Y007349D01*
X003683Y007349D01*
X003683Y008105D01*
X003939Y008105D01*
X003939Y007593D02*
X003683Y007593D01*
X003683Y007837D02*
X003939Y007837D01*
X003939Y008081D02*
X003683Y008081D01*
X003158Y008105D02*
X003158Y007349D01*
X002902Y007349D01*
X002902Y008105D01*
X003158Y008105D01*
X003158Y007593D02*
X002902Y007593D01*
X002902Y007837D02*
X003158Y007837D01*
X003158Y008081D02*
X002902Y008081D01*
X008658Y008105D02*
X008658Y007349D01*
X008402Y007349D01*
X008402Y008105D01*
X008658Y008105D01*
X008658Y007593D02*
X008402Y007593D01*
X008402Y007837D02*
X008658Y007837D01*
X008658Y008081D02*
X008402Y008081D01*
X008658Y013349D02*
X008658Y014105D01*
X008658Y013349D02*
X008402Y013349D01*
X008402Y014105D01*
X008658Y014105D01*
X008658Y013593D02*
X008402Y013593D01*
X008402Y013837D02*
X008658Y013837D01*
X008658Y014081D02*
X008402Y014081D01*
X007877Y014105D02*
X007877Y013349D01*
X007621Y013349D01*
X007621Y014105D01*
X007877Y014105D01*
X007877Y013593D02*
X007621Y013593D01*
X007621Y013837D02*
X007877Y013837D01*
X007877Y014081D02*
X007621Y014081D01*
X007096Y014105D02*
X007096Y013349D01*
X006840Y013349D01*
X006840Y014105D01*
X007096Y014105D01*
X007096Y013593D02*
X006840Y013593D01*
X006840Y013837D02*
X007096Y013837D01*
X007096Y014081D02*
X006840Y014081D01*
X006314Y014105D02*
X006314Y013349D01*
X006058Y013349D01*
X006058Y014105D01*
X006314Y014105D01*
X006314Y013593D02*
X006058Y013593D01*
X006058Y013837D02*
X006314Y013837D01*
X006314Y014081D02*
X006058Y014081D01*
X005533Y014105D02*
X005533Y013349D01*
X005277Y013349D01*
X005277Y014105D01*
X005533Y014105D01*
X005533Y013593D02*
X005277Y013593D01*
X005277Y013837D02*
X005533Y013837D01*
X005533Y014081D02*
X005277Y014081D01*
X004721Y014105D02*
X004721Y013349D01*
X004465Y013349D01*
X004465Y014105D01*
X004721Y014105D01*
X004721Y013593D02*
X004465Y013593D01*
X004465Y013837D02*
X004721Y013837D01*
X004721Y014081D02*
X004465Y014081D01*
X003939Y014105D02*
X003939Y013349D01*
X003683Y013349D01*
X003683Y014105D01*
X003939Y014105D01*
X003939Y013593D02*
X003683Y013593D01*
X003683Y013837D02*
X003939Y013837D01*
X003939Y014081D02*
X003683Y014081D01*
X003158Y014105D02*
X003158Y013349D01*
X002902Y013349D01*
X002902Y014105D01*
X003158Y014105D01*
X003158Y013593D02*
X002902Y013593D01*
X002902Y013837D02*
X003158Y013837D01*
X003158Y014081D02*
X002902Y014081D01*
D12*
X002434Y015758D03*
X004434Y015758D03*
X006434Y015758D03*
X006434Y005258D03*
X008434Y005258D03*
D13*
X014599Y004994D03*
X014599Y004246D03*
X015465Y004620D03*
X010851Y015837D03*
X010851Y016585D03*
X009985Y016211D03*
D14*
X009862Y014961D03*
X010982Y014961D03*
X012233Y014592D03*
X012225Y015602D03*
X013345Y015602D03*
X013353Y014592D03*
X013345Y006242D03*
X013345Y005244D03*
X012225Y005244D03*
X012225Y006242D03*
X014472Y006242D03*
X015591Y006242D03*
D15*
X013336Y004120D03*
X012234Y004120D03*
X012226Y016616D03*
X013328Y016616D03*
D16*
X017264Y016364D02*
X018044Y016364D01*
X018044Y014384D02*
X017264Y014384D01*
X018284Y011989D02*
X019064Y011989D01*
X019064Y010009D02*
X018284Y010009D01*
X016146Y010095D02*
X016146Y010875D01*
X014166Y010875D02*
X014166Y010095D01*
X012153Y010095D02*
X012153Y010875D01*
X010173Y010875D02*
X010173Y010095D01*
X017262Y006608D02*
X018042Y006608D01*
X018042Y004628D02*
X017262Y004628D01*
X008419Y002895D02*
X008425Y002115D01*
X006445Y002098D02*
X006439Y002878D01*
D17*
X003758Y003340D02*
X003308Y002943D01*
X002646Y003693D02*
X003096Y004090D01*
X002435Y004840D02*
X001985Y004443D01*
X001801Y005942D02*
X001801Y006542D01*
X002801Y006542D02*
X002801Y005942D01*
X003801Y005942D02*
X003801Y006542D01*
X004419Y002590D02*
X003969Y002193D01*
X017674Y008073D02*
X017675Y008673D01*
X018675Y008671D02*
X018674Y008071D01*
X019674Y008069D02*
X019675Y008669D01*
D18*
X007682Y017310D03*
X007682Y018210D03*
X007682Y019110D03*
D19*
X005202Y018200D03*
D20*
X009701Y019114D03*
X011119Y019114D03*
X011497Y001250D03*
X010080Y001250D03*
D21*
X010298Y003030D03*
X012660Y002243D03*
X015023Y003030D03*
X015101Y007833D03*
X010298Y007833D03*
X010219Y013137D03*
X015023Y013137D03*
X015023Y017941D03*
X012660Y018728D03*
X010298Y017941D03*
D22*
X009465Y017621D02*
X009465Y016730D01*
X009370Y016635D01*
X009309Y016488D01*
X009309Y015935D01*
X009370Y015788D01*
X009449Y015709D01*
X009320Y015655D01*
X009208Y015543D01*
X009147Y015396D01*
X009147Y014933D01*
X009051Y014933D01*
X008838Y014845D01*
X008675Y014682D01*
X008587Y014469D01*
X008587Y014407D01*
X008575Y014407D01*
X008575Y013772D01*
X008485Y013772D01*
X008485Y013682D01*
X008100Y013682D01*
X007794Y013682D01*
X007794Y013772D01*
X008485Y013772D01*
X008485Y013682D01*
X008100Y013682D01*
X007794Y013682D01*
X007794Y013772D01*
X008485Y013772D01*
X008485Y014407D01*
X008373Y014407D01*
X008315Y014395D01*
X008259Y014373D01*
X008210Y014339D01*
X008168Y014297D01*
X008140Y014255D01*
X008111Y014297D01*
X008069Y014339D01*
X008020Y014373D01*
X007965Y014395D01*
X007906Y014407D01*
X007794Y014407D01*
X007794Y013772D01*
X007704Y013772D01*
X007704Y014407D01*
X007592Y014407D01*
X007533Y014395D01*
X007478Y014373D01*
X007429Y014339D01*
X007401Y014312D01*
X007301Y014412D01*
X007167Y014467D01*
X006768Y014467D01*
X006635Y014412D01*
X006577Y014354D01*
X006519Y014412D01*
X006386Y014467D01*
X005987Y014467D01*
X005854Y014412D01*
X005796Y014354D01*
X005738Y014412D01*
X005605Y014467D01*
X005206Y014467D01*
X005072Y014412D01*
X004999Y014338D01*
X004926Y014412D01*
X004792Y014467D01*
X004393Y014467D01*
X004260Y014412D01*
X004202Y014354D01*
X004144Y014412D01*
X004011Y014467D01*
X003612Y014467D01*
X003479Y014412D01*
X003421Y014354D01*
X003363Y014412D01*
X003230Y014467D01*
X002831Y014467D01*
X002697Y014412D01*
X002595Y014310D01*
X002540Y014177D01*
X002540Y013378D01*
X002439Y013336D01*
X002321Y013219D01*
X002258Y013065D01*
X002258Y012898D01*
X002321Y012744D01*
X002439Y012627D01*
X002563Y012575D01*
X002507Y012441D01*
X002507Y012274D01*
X002571Y012120D01*
X002689Y012003D01*
X002727Y011987D01*
X001620Y010880D01*
X001620Y010880D01*
X001530Y010790D01*
X001481Y010672D01*
X001481Y006986D01*
X001343Y006848D01*
X001312Y006772D01*
X001303Y006832D01*
X001303Y014264D01*
X001352Y014604D01*
X008824Y014604D01*
X008811Y014591D01*
X008747Y014438D01*
X008747Y014395D01*
X008746Y014395D01*
X008688Y014407D01*
X008575Y014407D01*
X008575Y013772D01*
X008485Y013772D01*
X008485Y014407D01*
X008373Y014407D01*
X008315Y014395D01*
X008259Y014373D01*
X008210Y014339D01*
X008168Y014297D01*
X008140Y014255D01*
X008111Y014297D01*
X008069Y014339D01*
X008020Y014373D01*
X007965Y014395D01*
X007906Y014407D01*
X007794Y014407D01*
X007794Y013772D01*
X007704Y013772D01*
X007704Y014407D01*
X007592Y014407D01*
X007540Y014397D01*
X007538Y014400D01*
X007391Y014547D01*
X007199Y014627D01*
X006736Y014627D01*
X006577Y014561D01*
X006418Y014627D01*
X005955Y014627D01*
X005796Y014561D01*
X005637Y014627D01*
X005174Y014627D01*
X004999Y014555D01*
X004824Y014627D01*
X004657Y014627D01*
X004878Y014686D01*
X005140Y014838D01*
X005355Y015052D01*
X005506Y015314D01*
X005549Y015473D01*
X005574Y015401D01*
X005619Y015307D01*
X005675Y015219D01*
X005740Y015137D01*
X005814Y015063D01*
X005895Y014998D01*
X005984Y014943D01*
X006078Y014897D01*
X006176Y014863D01*
X006278Y014840D01*
X006357Y014831D01*
X006357Y015680D01*
X006512Y015680D01*
X006512Y014831D01*
X006590Y014840D01*
X006692Y014863D01*
X006791Y014897D01*
X006885Y014943D01*
X006973Y014998D01*
X007055Y015063D01*
X007129Y015137D01*
X007194Y015219D01*
X007250Y015307D01*
X007295Y015401D01*
X007329Y015500D01*
X007353Y015602D01*
X007361Y015680D01*
X006512Y015680D01*
X006512Y015835D01*
X007361Y015835D01*
X007353Y015914D01*
X007329Y016016D01*
X007295Y016114D01*
X007250Y016208D01*
X007194Y016297D01*
X007129Y016379D01*
X007055Y016452D01*
X006973Y016518D01*
X006885Y016573D01*
X006791Y016618D01*
X006692Y016653D01*
X006590Y016676D01*
X006512Y016685D01*
X006512Y015835D01*
X006357Y015835D01*
X006357Y016685D01*
X006278Y016676D01*
X006176Y016653D01*
X006078Y016618D01*
X005984Y016573D01*
X005895Y016518D01*
X005814Y016452D01*
X005740Y016379D01*
X005675Y016297D01*
X005619Y016208D01*
X005574Y016114D01*
X005549Y016042D01*
X005506Y016202D01*
X005355Y016464D01*
X005140Y016678D01*
X004878Y016830D01*
X004586Y016908D01*
X004283Y016908D01*
X003990Y016830D01*
X003728Y016678D01*
X003514Y016464D01*
X003434Y016326D01*
X003355Y016464D01*
X003216Y016603D01*
X003450Y017162D01*
X003771Y017679D01*
X004169Y018140D01*
X004407Y018341D01*
X004407Y017370D01*
X004468Y017223D01*
X004580Y017111D01*
X004727Y017050D01*
X005676Y017050D01*
X005823Y017111D01*
X005936Y017223D01*
X005997Y017370D01*
X005997Y019029D01*
X005954Y019133D01*
X006310Y019217D01*
X006887Y019259D01*
X006887Y018735D01*
X006918Y018660D01*
X006887Y018584D01*
X006887Y017835D01*
X006948Y017688D01*
X007060Y017576D01*
X007107Y017556D01*
X007107Y017377D01*
X007614Y017377D01*
X007614Y017242D01*
X007107Y017242D01*
X007107Y016991D01*
X007119Y016945D01*
X007143Y016904D01*
X007176Y016871D01*
X007217Y016847D01*
X007263Y016835D01*
X007614Y016835D01*
X007614Y017242D01*
X007749Y017242D01*
X007749Y016835D01*
X008101Y016835D01*
X008146Y016847D01*
X008187Y016871D01*
X008221Y016904D01*
X008245Y016945D01*
X008257Y016991D01*
X008257Y017242D01*
X007749Y017242D01*
X007749Y017377D01*
X007749Y017515D01*
X007614Y017515D01*
X007614Y017377D01*
X007749Y017377D01*
X008257Y017377D01*
X008257Y017556D01*
X008303Y017576D01*
X008377Y017650D01*
X008493Y017650D01*
X008538Y017631D01*
X008768Y017631D01*
X008981Y017719D01*
X009143Y017882D01*
X009231Y018095D01*
X009231Y018313D01*
X009260Y018243D01*
X009406Y018097D01*
X009406Y017763D01*
X009465Y017621D01*
X009465Y017552D02*
X008257Y017552D01*
X008257Y017393D02*
X009465Y017393D01*
X009465Y017235D02*
X008257Y017235D01*
X008257Y017076D02*
X009465Y017076D01*
X009465Y016918D02*
X008229Y016918D01*
X007749Y016918D02*
X007614Y016918D01*
X007614Y017076D02*
X007749Y017076D01*
X007749Y017235D02*
X007614Y017235D01*
X007614Y017393D02*
X007749Y017393D01*
X007107Y017393D02*
X005997Y017393D01*
X005997Y017552D02*
X007107Y017552D01*
X006938Y017710D02*
X005997Y017710D01*
X005997Y017869D02*
X006887Y017869D01*
X006887Y018027D02*
X005997Y018027D01*
X005997Y018186D02*
X006887Y018186D01*
X006887Y018344D02*
X005997Y018344D01*
X005997Y018503D02*
X006887Y018503D01*
X006917Y018661D02*
X005997Y018661D01*
X005997Y018820D02*
X006887Y018820D01*
X006887Y018978D02*
X005997Y018978D01*
X005969Y019137D02*
X006887Y019137D01*
X007107Y017235D02*
X005941Y017235D01*
X005741Y017076D02*
X007107Y017076D01*
X007135Y016918D02*
X003348Y016918D01*
X003415Y017076D02*
X004663Y017076D01*
X004463Y017235D02*
X003496Y017235D01*
X003594Y017393D02*
X004407Y017393D01*
X004407Y017552D02*
X003692Y017552D01*
X003798Y017710D02*
X004407Y017710D01*
X004407Y017869D02*
X003935Y017869D01*
X004072Y018027D02*
X004407Y018027D01*
X004407Y018186D02*
X004223Y018186D01*
X003869Y016759D02*
X003281Y016759D01*
X003218Y016601D02*
X003651Y016601D01*
X003502Y016442D02*
X003367Y016442D01*
X003434Y015190D02*
X003355Y015052D01*
X003140Y014838D01*
X002878Y014686D01*
X002586Y014608D01*
X002283Y014608D01*
X001990Y014686D01*
X001728Y014838D01*
X001514Y015052D01*
X001489Y015095D01*
X001359Y014652D01*
X001226Y013726D01*
X001209Y013258D01*
X001209Y007837D01*
X001226Y007370D01*
X001278Y007009D01*
X001321Y007052D01*
X001321Y010513D01*
X001321Y010704D01*
X001394Y010881D01*
X002489Y011976D01*
X002435Y012030D01*
X002347Y012242D01*
X002347Y012473D01*
X002354Y012489D01*
X002348Y012491D01*
X002186Y012654D01*
X002098Y012866D01*
X002098Y013097D01*
X002186Y013309D01*
X002348Y013472D01*
X002380Y013485D01*
X002380Y014208D01*
X002460Y014400D01*
X002607Y014547D01*
X002799Y014627D01*
X003262Y014627D01*
X003421Y014561D01*
X003580Y014627D01*
X004043Y014627D01*
X004202Y014561D01*
X004315Y014608D01*
X004283Y014608D01*
X003990Y014686D01*
X003728Y014838D01*
X003514Y015052D01*
X003434Y015190D01*
X003425Y015174D02*
X003443Y015174D01*
X003550Y015016D02*
X003319Y015016D01*
X003160Y014857D02*
X003709Y014857D01*
X003969Y014699D02*
X002900Y014699D01*
X002600Y014540D02*
X001343Y014540D01*
X008790Y014540D01*
X008617Y014540D02*
X007398Y014540D01*
X007331Y014382D02*
X007500Y014382D01*
X007704Y014382D02*
X007794Y014382D01*
X007704Y014382D01*
X007704Y014223D02*
X007794Y014223D01*
X007704Y014223D01*
X007704Y014065D02*
X007794Y014065D01*
X007704Y014065D01*
X007704Y013906D02*
X007794Y013906D01*
X007704Y013906D01*
X007794Y013748D02*
X008485Y013748D01*
X007794Y013748D01*
X007998Y014382D02*
X008282Y014382D01*
X007998Y014382D01*
X008485Y014382D02*
X008575Y014382D01*
X008485Y014382D01*
X008485Y014223D02*
X008575Y014223D01*
X008485Y014223D01*
X008485Y014065D02*
X008575Y014065D01*
X008485Y014065D01*
X008485Y013906D02*
X008575Y013906D01*
X008485Y013906D01*
X008575Y013772D02*
X008960Y013772D01*
X008960Y013987D01*
X009083Y013936D01*
X009163Y013936D01*
X009227Y013910D01*
X009291Y013910D01*
X009291Y013383D01*
X009249Y013400D01*
X009083Y013400D01*
X008960Y013349D01*
X008960Y013682D01*
X008575Y013682D01*
X008575Y013772D01*
X008960Y013772D01*
X008960Y013813D01*
X009051Y013776D01*
X009131Y013776D01*
X009195Y013750D01*
X009570Y013750D01*
X009463Y013643D01*
X009407Y013508D01*
X009281Y013560D01*
X009051Y013560D01*
X008960Y013522D01*
X008960Y013682D01*
X008575Y013682D01*
X008575Y013772D01*
X008575Y013748D02*
X009291Y013748D01*
X009291Y013906D02*
X008960Y013906D01*
X008960Y013589D02*
X009291Y013589D01*
X009441Y013589D02*
X008960Y013589D01*
X008960Y013431D02*
X009291Y013431D01*
X009568Y013748D02*
X008575Y013748D01*
X009166Y014354D02*
X009291Y014230D01*
X011412Y014230D01*
X011662Y013980D01*
X013160Y013980D01*
X013353Y014173D01*
X013353Y014592D01*
X012342Y015602D01*
X012225Y015602D01*
X011537Y014961D02*
X011906Y014592D01*
X012233Y014592D01*
X011537Y014961D02*
X011537Y016302D01*
X011852Y016616D01*
X012226Y016616D01*
X011511Y016954D02*
X011445Y016888D01*
X011306Y016750D01*
X011306Y016806D01*
X011294Y016852D01*
X011270Y016893D01*
X011237Y016926D01*
X011196Y016950D01*
X011150Y016962D01*
X010869Y016962D01*
X010869Y016604D01*
X010832Y016604D01*
X010832Y016962D01*
X010552Y016962D01*
X010506Y016950D01*
X010505Y016949D01*
X010505Y017061D01*
X010803Y017184D01*
X011054Y017435D01*
X011190Y017763D01*
X011190Y018118D01*
X011115Y018301D01*
X011184Y018301D01*
X011193Y018246D01*
X011193Y018246D01*
X011412Y017815D01*
X011753Y017474D01*
X011753Y017474D01*
X011957Y017370D01*
X011832Y017370D01*
X011685Y017310D01*
X011572Y017197D01*
X011511Y017050D01*
X011511Y016954D01*
X011475Y016918D02*
X011245Y016918D01*
X011306Y016759D02*
X011316Y016759D01*
X011445Y016888D02*
X011445Y016888D01*
X011522Y017076D02*
X010543Y017076D01*
X010832Y016918D02*
X010869Y016918D01*
X010869Y016759D02*
X010832Y016759D01*
X010913Y017100D02*
X010913Y017225D01*
X013035Y017225D01*
X013328Y016931D01*
X013328Y016616D01*
X013406Y016601D02*
X014472Y016601D01*
X014472Y016759D02*
X013823Y016759D01*
X013823Y016694D02*
X013823Y016994D01*
X013811Y017040D01*
X013787Y017081D01*
X013754Y017115D01*
X013713Y017138D01*
X013667Y017150D01*
X013406Y017150D01*
X013406Y016694D01*
X013251Y016694D01*
X013251Y017150D01*
X012990Y017150D01*
X012944Y017138D01*
X012912Y017120D01*
X012880Y017197D01*
X012865Y017212D01*
X013137Y017255D01*
X013137Y017255D01*
X013567Y017474D01*
X013567Y017474D01*
X013909Y017815D01*
X013909Y017815D01*
X014128Y018246D01*
X014203Y018722D01*
X014128Y019199D01*
X014128Y019199D01*
X013909Y019629D01*
X013909Y019629D01*
X013754Y019784D01*
X014580Y019665D01*
X015478Y019401D01*
X016329Y019013D01*
X017116Y018507D01*
X017754Y017954D01*
X016375Y017954D01*
X016054Y017821D01*
X015858Y017625D01*
X015915Y017763D01*
X015915Y018118D01*
X015779Y018446D01*
X015528Y018697D01*
X015200Y018833D01*
X014845Y018833D01*
X014517Y018697D01*
X014266Y018446D01*
X014130Y018118D01*
X014130Y017763D01*
X014266Y017435D01*
X014472Y017230D01*
X014472Y015086D01*
X014068Y014682D01*
X014068Y015026D01*
X014007Y015173D01*
X013894Y015286D01*
X013840Y015308D01*
X013840Y015525D01*
X013422Y015525D01*
X013422Y015680D01*
X013267Y015680D01*
X013267Y016137D01*
X013251Y016137D01*
X013251Y016539D01*
X013406Y016539D01*
X013406Y016694D01*
X013823Y016694D01*
X013823Y016539D02*
X013406Y016539D01*
X013406Y016082D01*
X013422Y016082D01*
X013422Y015680D01*
X013840Y015680D01*
X013840Y015981D01*
X013828Y016027D01*
X013804Y016068D01*
X013770Y016101D01*
X013748Y016114D01*
X013754Y016118D01*
X013787Y016151D01*
X013811Y016192D01*
X013823Y016238D01*
X013823Y016539D01*
X013823Y016442D02*
X014472Y016442D01*
X014472Y016284D02*
X013823Y016284D01*
X013761Y016125D02*
X014472Y016125D01*
X014472Y015967D02*
X013840Y015967D01*
X013840Y015808D02*
X014472Y015808D01*
X014472Y015650D02*
X013422Y015650D01*
X013422Y015808D02*
X013267Y015808D01*
X013267Y015967D02*
X013422Y015967D01*
X013406Y016125D02*
X013267Y016125D01*
X013251Y016284D02*
X013406Y016284D01*
X013406Y016442D02*
X013251Y016442D01*
X013251Y016759D02*
X013406Y016759D01*
X013406Y016918D02*
X013251Y016918D01*
X013251Y017076D02*
X013406Y017076D01*
X013010Y017235D02*
X014467Y017235D01*
X014472Y017076D02*
X013790Y017076D01*
X013823Y016918D02*
X014472Y016918D01*
X014308Y017393D02*
X013409Y017393D01*
X013645Y017552D02*
X014218Y017552D01*
X014152Y017710D02*
X013803Y017710D01*
X013936Y017869D02*
X014130Y017869D01*
X014130Y018027D02*
X014017Y018027D01*
X014097Y018186D02*
X014158Y018186D01*
X014128Y018246D02*
X014128Y018246D01*
X014143Y018344D02*
X014224Y018344D01*
X014169Y018503D02*
X014323Y018503D01*
X014194Y018661D02*
X014482Y018661D01*
X014188Y018820D02*
X014814Y018820D01*
X015231Y018820D02*
X016629Y018820D01*
X016383Y018978D02*
X014163Y018978D01*
X014138Y019137D02*
X016058Y019137D01*
X015710Y019295D02*
X014079Y019295D01*
X013998Y019454D02*
X015300Y019454D01*
X014760Y019612D02*
X013917Y019612D01*
X013845Y019771D02*
X013767Y019771D01*
X015563Y018661D02*
X016876Y018661D01*
X017121Y018503D02*
X015722Y018503D01*
X015821Y018344D02*
X017304Y018344D01*
X017487Y018186D02*
X015887Y018186D01*
X015915Y018027D02*
X017670Y018027D01*
X016168Y017869D02*
X015915Y017869D01*
X016054Y017821D02*
X016054Y017821D01*
X015943Y017710D02*
X015893Y017710D01*
X014472Y015491D02*
X013840Y015491D01*
X013840Y015333D02*
X014472Y015333D01*
X014472Y015174D02*
X014006Y015174D01*
X014068Y015016D02*
X014402Y015016D01*
X014243Y014857D02*
X014068Y014857D01*
X014068Y014699D02*
X014085Y014699D01*
X013160Y012981D02*
X013035Y012981D01*
X012411Y012357D01*
X008417Y012357D01*
X008167Y012607D01*
X007861Y012321D02*
X006067Y012321D01*
X006102Y012336D02*
X006368Y012601D01*
X006458Y012691D01*
X006506Y012809D01*
X006506Y012885D01*
X006565Y012744D01*
X006682Y012627D01*
X006836Y012563D01*
X007003Y012563D01*
X007156Y012627D01*
X007191Y012661D01*
X007749Y012661D01*
X007749Y012524D01*
X007813Y012370D01*
X007930Y012252D01*
X007968Y012237D01*
X006662Y010930D01*
X006193Y010930D01*
X006158Y010965D01*
X006004Y011029D01*
X005838Y011029D01*
X005684Y010965D01*
X005566Y010847D01*
X005503Y010693D01*
X005503Y010527D01*
X005566Y010373D01*
X005675Y010264D01*
X005559Y010216D01*
X005441Y010098D01*
X005378Y009945D01*
X005378Y009778D01*
X005441Y009624D01*
X005559Y009507D01*
X005713Y009443D01*
X005762Y009443D01*
X005899Y009306D01*
X005989Y009216D01*
X006107Y009167D01*
X007482Y009167D01*
X007600Y009216D01*
X008099Y009715D01*
X008189Y009805D01*
X008238Y009923D01*
X008238Y010478D01*
X008300Y010540D01*
X008784Y010540D01*
X008846Y010478D01*
X008846Y010258D01*
X008811Y010223D01*
X008747Y010069D01*
X008747Y009903D01*
X008811Y009749D01*
X008926Y009635D01*
X008875Y009656D01*
X008708Y009656D01*
X008554Y009592D01*
X008437Y009474D01*
X008373Y009321D01*
X008373Y009154D01*
X008437Y009000D01*
X008554Y008883D01*
X008708Y008819D01*
X008798Y008819D01*
X008747Y008697D01*
X008747Y008648D01*
X008567Y008467D01*
X008336Y008467D01*
X008336Y008572D01*
X008273Y008726D01*
X008155Y008843D01*
X008001Y008907D01*
X007835Y008907D01*
X007681Y008843D01*
X007563Y008726D01*
X007499Y008572D01*
X007499Y008523D01*
X007478Y008501D01*
X007446Y008424D01*
X007416Y008412D01*
X007358Y008354D01*
X007301Y008412D01*
X007291Y008416D01*
X007338Y008530D01*
X007338Y008697D01*
X007274Y008850D01*
X007156Y008968D01*
X007003Y009032D01*
X006836Y009032D01*
X006682Y008968D01*
X006565Y008850D01*
X006545Y008803D01*
X006525Y008850D01*
X006408Y008968D01*
X006254Y009032D01*
X006087Y009032D01*
X005934Y008968D01*
X005816Y008850D01*
X005752Y008697D01*
X005752Y008530D01*
X005816Y008376D01*
X005817Y008375D01*
X005796Y008354D01*
X005738Y008412D01*
X005605Y008467D01*
X005206Y008467D01*
X005072Y008412D01*
X004999Y008338D01*
X004926Y008412D01*
X004913Y008417D01*
X004913Y008442D01*
X004958Y008487D01*
X005021Y008641D01*
X005021Y008807D01*
X004958Y008961D01*
X004840Y009079D01*
X004686Y009142D01*
X004520Y009142D01*
X004366Y009079D01*
X004248Y008961D01*
X004184Y008807D01*
X004184Y008641D01*
X004248Y008487D01*
X004273Y008462D01*
X004273Y008417D01*
X004260Y008412D01*
X004202Y008354D01*
X004144Y008412D01*
X004011Y008467D01*
X003612Y008467D01*
X003479Y008412D01*
X003421Y008354D01*
X003363Y008412D01*
X003230Y008467D01*
X002831Y008467D01*
X002697Y008412D01*
X002595Y008310D01*
X002540Y008177D01*
X002540Y007277D01*
X002595Y007144D01*
X002697Y007042D01*
X002751Y007020D01*
X002688Y007010D01*
X002617Y006987D01*
X002606Y007014D01*
X002372Y007248D01*
X002372Y009354D01*
X002684Y009666D01*
X003028Y009666D01*
X003063Y009631D01*
X003217Y009568D01*
X003383Y009568D01*
X003537Y009631D01*
X003655Y009749D01*
X003719Y009903D01*
X003719Y010069D01*
X003655Y010223D01*
X003537Y010341D01*
X003383Y010405D01*
X003217Y010405D01*
X003063Y010341D01*
X003028Y010306D01*
X002488Y010306D01*
X002370Y010258D01*
X002280Y010167D01*
X002121Y010008D01*
X002121Y010476D01*
X003932Y012287D01*
X005857Y012287D01*
X005985Y012287D01*
X006102Y012336D01*
X006193Y012200D02*
X006016Y012127D01*
X003998Y012127D01*
X002281Y010410D01*
X002281Y010394D01*
X002456Y010466D01*
X002962Y010466D01*
X002972Y010477D01*
X003185Y010565D01*
X003415Y010565D01*
X003628Y010477D01*
X003790Y010314D01*
X003879Y010101D01*
X003879Y009871D01*
X003790Y009659D01*
X003628Y009496D01*
X003415Y009408D01*
X003185Y009408D01*
X002972Y009496D01*
X002962Y009506D01*
X002750Y009506D01*
X002532Y009288D01*
X002532Y008473D01*
X002607Y008547D01*
X002799Y008627D01*
X003262Y008627D01*
X003421Y008561D01*
X003580Y008627D01*
X004024Y008627D01*
X004024Y008839D01*
X004112Y009052D01*
X004275Y009214D01*
X004488Y009302D01*
X004718Y009302D01*
X004930Y009214D01*
X005093Y009052D01*
X005181Y008839D01*
X005181Y008627D01*
X005592Y008627D01*
X005592Y008728D01*
X005680Y008941D01*
X005843Y009104D01*
X005866Y009113D01*
X005696Y009283D01*
X005681Y009283D01*
X005468Y009371D01*
X005306Y009534D01*
X005218Y009746D01*
X005218Y009976D01*
X005306Y010189D01*
X005421Y010305D01*
X005343Y010495D01*
X005343Y010725D01*
X005431Y010938D01*
X005593Y011101D01*
X005806Y011189D01*
X006036Y011189D01*
X006249Y011101D01*
X006259Y011090D01*
X006596Y011090D01*
X007731Y012225D01*
X007677Y012279D01*
X007589Y012492D01*
X007589Y012501D01*
X007257Y012501D01*
X007247Y012491D01*
X007034Y012403D01*
X006804Y012403D01*
X006592Y012491D01*
X006538Y012545D01*
X006458Y012466D01*
X006458Y012466D01*
X006193Y012200D01*
X006103Y012163D02*
X007668Y012163D01*
X007660Y012321D02*
X006314Y012321D01*
X006246Y012480D02*
X007767Y012480D01*
X007749Y012638D02*
X007168Y012638D01*
X007220Y012480D02*
X007594Y012480D01*
X007895Y012163D02*
X003808Y012163D01*
X003875Y012004D02*
X007510Y012004D01*
X007578Y011846D02*
X003491Y011846D01*
X003558Y011687D02*
X007193Y011687D01*
X007261Y011529D02*
X003174Y011529D01*
X003241Y011370D02*
X006876Y011370D01*
X006944Y011212D02*
X002857Y011212D01*
X002924Y011053D02*
X005546Y011053D01*
X005614Y010895D02*
X002540Y010895D01*
X002607Y010736D02*
X005347Y010736D01*
X005343Y010578D02*
X002449Y010578D01*
X002381Y010736D02*
X005520Y010736D01*
X005503Y010578D02*
X002223Y010578D01*
X002290Y010419D02*
X002343Y010419D01*
X002378Y010261D02*
X002121Y010261D01*
X002121Y010419D02*
X005547Y010419D01*
X005374Y010419D02*
X003685Y010419D01*
X003617Y010261D02*
X005667Y010261D01*
X005445Y010102D02*
X003705Y010102D01*
X003719Y009944D02*
X005378Y009944D01*
X005378Y009785D02*
X003670Y009785D01*
X003843Y009785D02*
X005218Y009785D01*
X005218Y009944D02*
X003879Y009944D01*
X003878Y010102D02*
X005270Y010102D01*
X005378Y010261D02*
X003812Y010261D01*
X003300Y009986D02*
X002551Y009986D01*
X002052Y009487D01*
X002052Y007116D01*
X002335Y006833D01*
X002335Y004767D01*
X002210Y004642D01*
X002815Y005434D02*
X002815Y006222D01*
X002821Y006222D01*
X002821Y005462D01*
X002839Y005462D01*
X002913Y005474D01*
X002985Y005497D01*
X003052Y005532D01*
X003114Y005576D01*
X003167Y005629D01*
X003171Y005634D01*
X003207Y005546D01*
X003404Y005349D01*
X003662Y005242D01*
X003940Y005242D01*
X004197Y005349D01*
X004394Y005546D01*
X004501Y005803D01*
X004501Y006681D01*
X004441Y006827D01*
X004824Y006827D01*
X004999Y006899D01*
X005174Y006827D01*
X005469Y006827D01*
X005196Y006714D01*
X005196Y006714D01*
X004950Y006468D01*
X004817Y006147D01*
X004817Y002859D01*
X004804Y002879D01*
X004792Y002892D01*
X004222Y002390D01*
X004196Y002420D01*
X004766Y002922D01*
X004754Y002936D01*
X004696Y002984D01*
X004631Y003022D01*
X004561Y003050D01*
X004487Y003066D01*
X004411Y003071D01*
X004405Y003071D01*
X004448Y003157D01*
X004465Y003435D01*
X004375Y003698D01*
X004191Y003907D01*
X003941Y004030D01*
X003795Y004039D01*
X003804Y004185D01*
X003714Y004448D01*
X003529Y004657D01*
X003279Y004780D01*
X003133Y004789D01*
X003142Y004935D01*
X003052Y005199D01*
X002868Y005407D01*
X002815Y005434D01*
X002815Y005506D02*
X002821Y005506D01*
X002815Y005664D02*
X002821Y005664D01*
X002815Y005823D02*
X002821Y005823D01*
X002815Y005981D02*
X002821Y005981D01*
X002815Y006140D02*
X002821Y006140D01*
X003002Y005506D02*
X003247Y005506D01*
X003408Y005347D02*
X002921Y005347D01*
X003056Y005189D02*
X004817Y005189D01*
X004817Y005347D02*
X004194Y005347D01*
X004354Y005506D02*
X004817Y005506D01*
X004817Y005664D02*
X004443Y005664D01*
X004501Y005823D02*
X004817Y005823D01*
X004817Y005981D02*
X004501Y005981D01*
X004501Y006140D02*
X004817Y006140D01*
X004880Y006298D02*
X004501Y006298D01*
X004501Y006457D02*
X004945Y006457D01*
X004950Y006468D02*
X004950Y006468D01*
X004950Y006468D01*
X005097Y006615D02*
X004501Y006615D01*
X004463Y006774D02*
X005340Y006774D01*
X005206Y006987D02*
X005072Y007042D01*
X004999Y007116D01*
X004926Y007042D01*
X004792Y006987D01*
X004393Y006987D01*
X004260Y007042D01*
X004202Y007100D01*
X004144Y007042D01*
X004074Y007013D01*
X004107Y007000D01*
X004259Y006848D01*
X004303Y006741D01*
X009291Y006741D01*
X009291Y006926D01*
X009073Y007206D01*
X009073Y007206D01*
X009020Y007359D01*
X009020Y007277D01*
X008965Y007144D01*
X008863Y007042D01*
X008730Y006987D01*
X008331Y006987D01*
X008197Y007042D01*
X008140Y007100D01*
X008082Y007042D01*
X007949Y006987D01*
X007549Y006987D01*
X007416Y007042D01*
X007358Y007100D01*
X007301Y007042D01*
X007167Y006987D01*
X006768Y006987D01*
X006635Y007042D01*
X006577Y007100D01*
X006519Y007042D01*
X006386Y006987D01*
X005987Y006987D01*
X005854Y007042D01*
X005796Y007100D01*
X005738Y007042D01*
X005605Y006987D01*
X005206Y006987D01*
X005024Y007091D02*
X004974Y007091D01*
X004593Y007727D02*
X004593Y008714D01*
X004603Y008724D01*
X004926Y008993D02*
X005993Y008993D01*
X005827Y009151D02*
X004994Y009151D01*
X005118Y008993D02*
X005732Y008993D01*
X005809Y008834D02*
X005010Y008834D01*
X005021Y008676D02*
X005752Y008676D01*
X005757Y008517D02*
X004970Y008517D01*
X004979Y008359D02*
X005019Y008359D01*
X005181Y008676D02*
X005592Y008676D01*
X005636Y008834D02*
X005181Y008834D01*
X005616Y009310D02*
X002554Y009310D01*
X002532Y009151D02*
X004212Y009151D01*
X004280Y008993D02*
X002372Y008993D01*
X002372Y009151D02*
X008374Y009151D01*
X008373Y009310D02*
X007694Y009310D01*
X007762Y009151D02*
X008213Y009151D01*
X008213Y009122D02*
X008291Y008933D01*
X008245Y008979D01*
X008033Y009067D01*
X007803Y009067D01*
X007590Y008979D01*
X007451Y008840D01*
X007410Y008941D01*
X007344Y009007D01*
X007514Y009007D01*
X007690Y009080D01*
X008190Y009579D01*
X008325Y009714D01*
X008398Y009891D01*
X008398Y010380D01*
X008686Y010380D01*
X008686Y010324D01*
X008675Y010314D01*
X008587Y010101D01*
X008587Y009871D01*
X008620Y009792D01*
X008464Y009728D01*
X008301Y009565D01*
X008213Y009352D01*
X008213Y009122D01*
X008212Y008993D02*
X008267Y008993D01*
X008444Y008993D02*
X007097Y008993D01*
X007281Y008834D02*
X007672Y008834D01*
X007624Y008993D02*
X007358Y008993D01*
X007338Y008676D02*
X007542Y008676D01*
X007494Y008517D02*
X007332Y008517D01*
X007354Y008359D02*
X007363Y008359D01*
X006968Y008565D02*
X006968Y007727D01*
X007349Y007091D02*
X007368Y007091D01*
X007749Y007727D02*
X007749Y008320D01*
X007918Y008489D01*
X008293Y008676D02*
X008747Y008676D01*
X008671Y008834D02*
X008164Y008834D01*
X008336Y008517D02*
X008617Y008517D01*
X008530Y007978D02*
X008530Y007727D01*
X008530Y007978D02*
X009166Y008613D01*
X008791Y009237D02*
X011287Y009237D01*
X012036Y008489D01*
X013160Y008489D01*
X013534Y008114D01*
X013534Y007740D01*
X012225Y006431D01*
X012225Y006242D01*
X013224Y005244D01*
X013345Y005244D01*
X012655Y004749D02*
X012678Y004692D01*
X012650Y004624D01*
X012618Y004643D01*
X012573Y004655D01*
X012311Y004655D01*
X012311Y004198D01*
X012156Y004198D01*
X012156Y004043D01*
X011739Y004043D01*
X011739Y003742D01*
X011751Y003697D01*
X011775Y003656D01*
X011808Y003622D01*
X011849Y003598D01*
X011895Y003586D01*
X011929Y003586D01*
X011753Y003497D01*
X011412Y003155D01*
X011193Y002725D01*
X011133Y002347D01*
X011116Y002364D01*
X010959Y002429D01*
X011054Y002525D01*
X011190Y002853D01*
X011190Y003208D01*
X011054Y003536D01*
X010858Y003732D01*
X010858Y005395D01*
X011510Y006047D01*
X011510Y005808D01*
X011571Y005661D01*
X011684Y005548D01*
X011730Y005529D01*
X011730Y005321D01*
X012148Y005321D01*
X012148Y005166D01*
X012303Y005166D01*
X012303Y004709D01*
X012564Y004709D01*
X012610Y004721D01*
X012651Y004745D01*
X012655Y004749D01*
X012670Y004713D02*
X012581Y004713D01*
X012303Y004713D02*
X012148Y004713D01*
X012148Y004709D02*
X012148Y005166D01*
X011730Y005166D01*
X011730Y004865D01*
X011743Y004819D01*
X011766Y004778D01*
X011800Y004745D01*
X011841Y004721D01*
X011887Y004709D01*
X012148Y004709D01*
X012156Y004655D02*
X011895Y004655D01*
X011849Y004643D01*
X011808Y004619D01*
X011775Y004585D01*
X011751Y004544D01*
X011739Y004499D01*
X011739Y004198D01*
X012156Y004198D01*
X012156Y004655D01*
X012156Y004555D02*
X012311Y004555D01*
X012311Y004396D02*
X012156Y004396D01*
X012156Y004238D02*
X012311Y004238D01*
X012156Y004079D02*
X010858Y004079D01*
X010858Y003921D02*
X011739Y003921D01*
X011739Y003762D02*
X010858Y003762D01*
X010986Y003604D02*
X011840Y003604D01*
X011753Y003497D02*
X011753Y003497D01*
X011702Y003445D02*
X011092Y003445D01*
X011158Y003287D02*
X011543Y003287D01*
X011412Y003155D02*
X011412Y003155D01*
X011398Y003128D02*
X011190Y003128D01*
X011190Y002970D02*
X011317Y002970D01*
X011237Y002811D02*
X011173Y002811D01*
X011193Y002725D02*
X011193Y002725D01*
X011181Y002653D02*
X011107Y002653D01*
X011163Y002623D02*
X010788Y002248D01*
X010039Y002248D01*
X009540Y002748D01*
X009540Y003372D01*
X009915Y003746D01*
X009915Y006367D01*
X009904Y006413D01*
X009889Y006458D01*
X009871Y006502D01*
X009850Y006545D01*
X009826Y006586D01*
X009799Y006625D01*
X009769Y006662D01*
X009736Y006696D01*
X009701Y006728D01*
X009663Y006758D01*
X009624Y006784D01*
X009582Y006807D01*
X009539Y006828D01*
X009495Y006844D01*
X009449Y006858D01*
X009403Y006868D01*
X009356Y006875D01*
X009308Y006878D01*
X009261Y006877D01*
X009213Y006873D01*
X009166Y006866D01*
X009041Y006866D01*
X009066Y006932D02*
X008979Y006932D01*
X008954Y006907D02*
X009029Y006981D01*
X009041Y006958D01*
X009041Y006958D01*
X009151Y006847D01*
X008810Y006847D01*
X008954Y006907D01*
X008912Y007091D02*
X009163Y007091D01*
X009058Y007249D02*
X009009Y007249D01*
X009286Y006932D02*
X004174Y006932D01*
X004193Y007091D02*
X004211Y007091D01*
X004289Y006774D02*
X009291Y006774D01*
X008149Y007091D02*
X008130Y007091D01*
X006586Y007091D02*
X006568Y007091D01*
X006186Y007727D02*
X006186Y008597D01*
X006171Y008613D01*
X006348Y008993D02*
X006742Y008993D01*
X006558Y008834D02*
X006532Y008834D01*
X006919Y008613D02*
X006968Y008565D01*
X007920Y009310D02*
X008213Y009310D01*
X008261Y009468D02*
X008079Y009468D01*
X008190Y009579D02*
X008190Y009579D01*
X008237Y009627D02*
X008363Y009627D01*
X008354Y009785D02*
X008603Y009785D01*
X008587Y009944D02*
X008398Y009944D01*
X008398Y010102D02*
X008588Y010102D01*
X008653Y010261D02*
X008398Y010261D01*
X008238Y010261D02*
X008846Y010261D01*
X008846Y010419D02*
X008238Y010419D01*
X008238Y010102D02*
X008761Y010102D01*
X008747Y009944D02*
X008238Y009944D01*
X008169Y009785D02*
X008796Y009785D01*
X008638Y009627D02*
X008011Y009627D01*
X007852Y009468D02*
X008434Y009468D01*
X007918Y009986D02*
X007918Y010610D01*
X008167Y010860D01*
X008916Y010860D01*
X009166Y010610D01*
X009166Y009986D01*
X009665Y009487D01*
X010164Y009487D01*
X010173Y009495D01*
X010173Y010485D01*
X010663Y011484D02*
X011662Y010485D01*
X012153Y010485D01*
X012161Y011484D02*
X011537Y012108D01*
X008292Y012108D01*
X006795Y010610D01*
X005921Y010610D01*
X005413Y010895D02*
X002766Y010895D01*
X002698Y011053D02*
X006785Y011053D01*
X006717Y011212D02*
X003083Y011212D01*
X003015Y011370D02*
X007102Y011370D01*
X007034Y011529D02*
X003400Y011529D01*
X003332Y011687D02*
X007419Y011687D01*
X007351Y011846D02*
X003717Y011846D01*
X003649Y012004D02*
X007736Y012004D01*
X008417Y011858D02*
X011038Y011858D01*
X011163Y011733D01*
X010663Y011484D02*
X008542Y011484D01*
X008292Y011234D01*
X008417Y011858D02*
X007419Y010860D01*
X007419Y009986D01*
X007419Y009487D02*
X007918Y009986D01*
X007419Y009487D02*
X006171Y009487D01*
X005796Y009861D01*
X005440Y009627D02*
X003526Y009627D01*
X003561Y009468D02*
X005371Y009468D01*
X005267Y009627D02*
X003759Y009627D01*
X003074Y009627D02*
X002644Y009627D01*
X002712Y009468D02*
X003039Y009468D01*
X002486Y009468D02*
X005652Y009468D01*
X005895Y009310D02*
X002372Y009310D01*
X002532Y008993D02*
X004088Y008993D01*
X004024Y008834D02*
X002532Y008834D01*
X002532Y008676D02*
X004024Y008676D01*
X004184Y008676D02*
X002372Y008676D01*
X002372Y008834D02*
X004196Y008834D01*
X004236Y008517D02*
X002372Y008517D01*
X002372Y008359D02*
X002644Y008359D01*
X002577Y008517D02*
X002532Y008517D01*
X002550Y008200D02*
X002372Y008200D01*
X002372Y008042D02*
X002540Y008042D01*
X002540Y007883D02*
X002372Y007883D01*
X002372Y007725D02*
X002540Y007725D01*
X002540Y007566D02*
X002372Y007566D01*
X002372Y007408D02*
X002540Y007408D01*
X002552Y007249D02*
X002372Y007249D01*
X002530Y007091D02*
X002649Y007091D01*
X003030Y007386D02*
X003799Y006617D01*
X003799Y006244D01*
X003801Y006242D01*
X003110Y005030D02*
X004817Y005030D01*
X004817Y004872D02*
X003138Y004872D01*
X003415Y004713D02*
X004817Y004713D01*
X004817Y004555D02*
X003620Y004555D01*
X003731Y004396D02*
X004817Y004396D01*
X004817Y004238D02*
X003786Y004238D01*
X003797Y004079D02*
X004817Y004079D01*
X004817Y003921D02*
X004163Y003921D01*
X004319Y003762D02*
X004817Y003762D01*
X004817Y003604D02*
X004407Y003604D01*
X004462Y003445D02*
X004817Y003445D01*
X004817Y003287D02*
X004456Y003287D01*
X004434Y003128D02*
X004817Y003128D01*
X004817Y002970D02*
X004713Y002970D01*
X004701Y002811D02*
X004640Y002811D01*
X004521Y002653D02*
X004460Y002653D01*
X004341Y002494D02*
X004281Y002494D01*
X001801Y006242D02*
X001801Y010609D01*
X003799Y012607D01*
X005921Y012607D01*
X006186Y012873D01*
X006186Y013727D01*
X005824Y014382D02*
X005768Y014382D01*
X005873Y015016D02*
X005319Y015016D01*
X005425Y015174D02*
X005710Y015174D01*
X005607Y015333D02*
X005511Y015333D01*
X005160Y014857D02*
X006201Y014857D01*
X006357Y014857D02*
X006512Y014857D01*
X006668Y014857D02*
X008869Y014857D01*
X008692Y014699D02*
X004900Y014699D01*
X004956Y014382D02*
X005042Y014382D01*
X004593Y014025D02*
X004593Y013727D01*
X004593Y013026D01*
X004548Y012981D01*
X003811Y013243D02*
X003811Y013727D01*
X003811Y013243D02*
X002926Y012357D01*
X002553Y012163D02*
X001303Y012163D01*
X001209Y012163D02*
X002380Y012163D01*
X002347Y012321D02*
X001209Y012321D01*
X001303Y012321D02*
X002507Y012321D01*
X002523Y012480D02*
X001303Y012480D01*
X001209Y012480D02*
X002350Y012480D01*
X002428Y012638D02*
X001303Y012638D01*
X001209Y012638D02*
X002201Y012638D01*
X002126Y012797D02*
X001209Y012797D01*
X001303Y012797D02*
X002300Y012797D01*
X002258Y012955D02*
X001303Y012955D01*
X001209Y012955D02*
X002098Y012955D01*
X002105Y013114D02*
X001209Y013114D01*
X001303Y013114D02*
X002278Y013114D01*
X002375Y013272D02*
X001303Y013272D01*
X001210Y013272D02*
X002170Y013272D01*
X002307Y013431D02*
X001215Y013431D01*
X001303Y013431D02*
X002540Y013431D01*
X002540Y013589D02*
X001303Y013589D01*
X001221Y013589D02*
X002380Y013589D01*
X002380Y013748D02*
X001229Y013748D01*
X001303Y013748D02*
X002540Y013748D01*
X002540Y013906D02*
X001303Y013906D01*
X001252Y013906D02*
X002380Y013906D01*
X002380Y014065D02*
X001275Y014065D01*
X001303Y014065D02*
X002540Y014065D01*
X002560Y014223D02*
X001303Y014223D01*
X001297Y014223D02*
X002386Y014223D01*
X002452Y014382D02*
X001320Y014382D01*
X002667Y014382D01*
X003030Y013727D02*
X003030Y013336D01*
X002676Y012981D01*
X002687Y012004D02*
X001303Y012004D01*
X001209Y012004D02*
X002461Y012004D01*
X002359Y011846D02*
X001209Y011846D01*
X001303Y011846D02*
X002585Y011846D01*
X002427Y011687D02*
X001303Y011687D01*
X001209Y011687D02*
X002201Y011687D01*
X002268Y011529D02*
X001303Y011529D01*
X001209Y011529D02*
X002042Y011529D01*
X002110Y011370D02*
X001303Y011370D01*
X001209Y011370D02*
X001884Y011370D01*
X001951Y011212D02*
X001303Y011212D01*
X001209Y011212D02*
X001725Y011212D01*
X001793Y011053D02*
X001303Y011053D01*
X001209Y011053D02*
X001567Y011053D01*
X001634Y010895D02*
X001303Y010895D01*
X001209Y010895D02*
X001408Y010895D01*
X001334Y010736D02*
X001209Y010736D01*
X001303Y010736D02*
X001507Y010736D01*
X001481Y010578D02*
X001303Y010578D01*
X001321Y010578D02*
X001209Y010578D01*
X001209Y010419D02*
X001321Y010419D01*
X001303Y010419D02*
X001481Y010419D01*
X001481Y010261D02*
X001303Y010261D01*
X001321Y010261D02*
X001209Y010261D01*
X001209Y010102D02*
X001321Y010102D01*
X001303Y010102D02*
X001481Y010102D01*
X001481Y009944D02*
X001303Y009944D01*
X001321Y009944D02*
X001209Y009944D01*
X001209Y009785D02*
X001321Y009785D01*
X001303Y009785D02*
X001481Y009785D01*
X001481Y009627D02*
X001303Y009627D01*
X001321Y009627D02*
X001209Y009627D01*
X001209Y009468D02*
X001321Y009468D01*
X001303Y009468D02*
X001481Y009468D01*
X001481Y009310D02*
X001303Y009310D01*
X001321Y009310D02*
X001209Y009310D01*
X001209Y009151D02*
X001321Y009151D01*
X001303Y009151D02*
X001481Y009151D01*
X001481Y008993D02*
X001303Y008993D01*
X001321Y008993D02*
X001209Y008993D01*
X001209Y008834D02*
X001321Y008834D01*
X001303Y008834D02*
X001481Y008834D01*
X001481Y008676D02*
X001303Y008676D01*
X001321Y008676D02*
X001209Y008676D01*
X001209Y008517D02*
X001321Y008517D01*
X001303Y008517D02*
X001481Y008517D01*
X001481Y008359D02*
X001303Y008359D01*
X001321Y008359D02*
X001209Y008359D01*
X001209Y008200D02*
X001321Y008200D01*
X001303Y008200D02*
X001481Y008200D01*
X001481Y008042D02*
X001303Y008042D01*
X001321Y008042D02*
X001209Y008042D01*
X001209Y007883D02*
X001321Y007883D01*
X001303Y007883D02*
X001481Y007883D01*
X001481Y007725D02*
X001303Y007725D01*
X001321Y007725D02*
X001213Y007725D01*
X001219Y007566D02*
X001321Y007566D01*
X001303Y007566D02*
X001481Y007566D01*
X001481Y007408D02*
X001303Y007408D01*
X001321Y007408D02*
X001225Y007408D01*
X001243Y007249D02*
X001321Y007249D01*
X001303Y007249D02*
X001481Y007249D01*
X001481Y007091D02*
X001303Y007091D01*
X001321Y007091D02*
X001266Y007091D01*
X001303Y006932D02*
X001427Y006932D01*
X001312Y006774D02*
X001312Y006774D01*
X003030Y007386D02*
X003030Y007727D01*
X003416Y008359D02*
X003426Y008359D01*
X004197Y008359D02*
X004207Y008359D01*
X005791Y008359D02*
X005801Y008359D01*
X005787Y007091D02*
X005805Y007091D01*
X002215Y010102D02*
X002121Y010102D01*
X005422Y012981D02*
X005422Y013711D01*
X005405Y013727D01*
X006549Y014382D02*
X006605Y014382D01*
X006512Y015016D02*
X006357Y015016D01*
X006357Y015174D02*
X006512Y015174D01*
X006512Y015333D02*
X006357Y015333D01*
X006357Y015491D02*
X006512Y015491D01*
X006512Y015650D02*
X006357Y015650D01*
X006512Y015808D02*
X009362Y015808D01*
X009315Y015650D02*
X007358Y015650D01*
X007326Y015491D02*
X009187Y015491D01*
X009147Y015333D02*
X007262Y015333D01*
X007158Y015174D02*
X009147Y015174D01*
X009147Y015016D02*
X006995Y015016D01*
X007341Y015967D02*
X009309Y015967D01*
X009309Y016125D02*
X007290Y016125D01*
X007202Y016284D02*
X009309Y016284D01*
X009309Y016442D02*
X007065Y016442D01*
X006827Y016601D02*
X009356Y016601D01*
X009465Y016759D02*
X005000Y016759D01*
X005218Y016601D02*
X006041Y016601D01*
X005804Y016442D02*
X005367Y016442D01*
X005459Y016284D02*
X005666Y016284D01*
X005579Y016125D02*
X005526Y016125D01*
X006357Y016125D02*
X006512Y016125D01*
X006512Y015967D02*
X006357Y015967D01*
X006357Y016284D02*
X006512Y016284D01*
X006512Y016442D02*
X006357Y016442D01*
X006357Y016601D02*
X006512Y016601D01*
X008959Y017710D02*
X009428Y017710D01*
X009406Y017869D02*
X009130Y017869D01*
X009204Y018027D02*
X009406Y018027D01*
X009317Y018186D02*
X009231Y018186D01*
X010854Y017235D02*
X011610Y017235D01*
X011287Y017225D02*
X010913Y017100D01*
X011013Y017393D02*
X011912Y017393D01*
X011676Y017552D02*
X011103Y017552D01*
X011168Y017710D02*
X011517Y017710D01*
X011412Y017815D02*
X011412Y017815D01*
X011385Y017869D02*
X011190Y017869D01*
X011190Y018027D02*
X011304Y018027D01*
X011223Y018186D02*
X011162Y018186D01*
X010851Y015837D02*
X010738Y015837D01*
X009862Y014961D01*
X010982Y014961D02*
X011537Y014961D01*
X009166Y012981D02*
X006919Y012981D01*
X006968Y013030D01*
X006968Y013727D01*
X006543Y012797D02*
X006501Y012797D01*
X006405Y012638D02*
X006671Y012638D01*
X006619Y012480D02*
X006472Y012480D01*
X004230Y014382D02*
X004174Y014382D01*
X003449Y014382D02*
X003393Y014382D01*
X001969Y014699D02*
X001373Y014699D01*
X001419Y014857D02*
X001709Y014857D01*
X001550Y015016D02*
X001466Y015016D01*
X010164Y009487D02*
X010414Y009487D01*
X013908Y009487D01*
X014158Y009737D01*
X014158Y010477D01*
X014166Y010485D01*
X014775Y011053D02*
X015538Y011053D01*
X015516Y011001D02*
X015584Y011164D01*
X014729Y011164D01*
X014796Y011001D01*
X014796Y009970D01*
X014700Y009739D01*
X014523Y009561D01*
X014373Y009499D01*
X014339Y009465D01*
X014163Y009289D01*
X014202Y009196D01*
X014202Y009029D01*
X014138Y008876D01*
X014021Y008758D01*
X013867Y008694D01*
X013700Y008694D01*
X013547Y008758D01*
X013512Y008793D01*
X013262Y008793D01*
X013341Y008760D01*
X013431Y008670D01*
X013805Y008295D01*
X013854Y008178D01*
X013854Y007740D01*
X013943Y007740D01*
X013943Y008068D01*
X014090Y008448D01*
X014090Y008448D01*
X014364Y008748D01*
X014364Y008748D01*
X014729Y008930D01*
X014729Y008930D01*
X015134Y008967D01*
X015134Y008967D01*
X015525Y008856D01*
X015525Y008856D01*
X015850Y008611D01*
X015850Y008611D01*
X015850Y008611D01*
X016064Y008265D01*
X016064Y008265D01*
X016139Y007865D01*
X016116Y007740D01*
X017243Y007740D01*
X017216Y007768D01*
X017134Y007966D01*
X017135Y008781D01*
X017218Y008979D01*
X017370Y009131D01*
X017569Y009213D01*
X017783Y009212D01*
X017982Y009130D01*
X018133Y008978D01*
X018175Y008876D01*
X018218Y008978D01*
X018370Y009129D01*
X018569Y009211D01*
X018783Y009211D01*
X018982Y009128D01*
X019133Y008976D01*
X019210Y008791D01*
X019230Y008854D01*
X019265Y008921D01*
X019309Y008982D01*
X019363Y009036D01*
X019424Y009080D01*
X019492Y009114D01*
X019563Y009137D01*
X019638Y009149D01*
X019656Y009149D01*
X019655Y008389D01*
X019695Y008389D01*
X019655Y008389D01*
X019656Y009149D01*
X019638Y009149D01*
X019563Y009137D01*
X019492Y009114D01*
X019424Y009080D01*
X019363Y009036D01*
X019309Y008982D01*
X019306Y008977D01*
X019269Y009066D01*
X019117Y009219D01*
X019222Y009219D01*
X019512Y009339D01*
X019734Y009561D01*
X019743Y009583D01*
X019743Y009144D01*
X019714Y009149D01*
X019696Y009149D01*
X019695Y008389D01*
X019696Y009149D01*
X019714Y009149D01*
X019743Y009144D01*
X019743Y012981D01*
X016394Y012981D01*
X016340Y012657D01*
X016340Y012657D01*
X016123Y012257D01*
X016123Y012257D01*
X015788Y011949D01*
X015788Y011949D01*
X015458Y011804D01*
X017342Y011804D01*
X017459Y011755D01*
X017549Y011665D01*
X017549Y011665D01*
X018576Y010639D01*
X019190Y010639D01*
X019421Y010543D01*
X019599Y010366D01*
X019694Y010134D01*
X019694Y009884D01*
X019599Y009652D01*
X019421Y009475D01*
X019190Y009379D01*
X018159Y009379D01*
X017928Y009475D01*
X017750Y009652D01*
X017654Y009884D01*
X017654Y010134D01*
X017750Y010366D01*
X017847Y010462D01*
X017145Y011164D01*
X016709Y011164D01*
X016776Y011001D01*
X016776Y009970D01*
X016680Y009739D01*
X016503Y009561D01*
X016272Y009465D01*
X016021Y009465D01*
X015790Y009561D01*
X015612Y009739D01*
X015516Y009970D01*
X015516Y011001D01*
X015516Y010895D02*
X014796Y010895D01*
X014796Y010736D02*
X015516Y010736D01*
X015516Y010578D02*
X014796Y010578D01*
X014796Y010419D02*
X015516Y010419D01*
X015516Y010261D02*
X014796Y010261D01*
X014796Y010102D02*
X015516Y010102D01*
X015527Y009944D02*
X014785Y009944D01*
X014956Y009944D02*
X015356Y009944D01*
X015356Y009938D02*
X015477Y009648D01*
X015699Y009426D01*
X015989Y009305D01*
X016304Y009305D01*
X016594Y009426D01*
X016816Y009648D01*
X016936Y009938D01*
X016936Y011004D01*
X017079Y011004D01*
X017621Y010462D01*
X017615Y010456D01*
X017494Y010166D01*
X017494Y009852D01*
X017615Y009561D01*
X017804Y009372D01*
X017537Y009373D01*
X017280Y009267D01*
X017082Y009070D01*
X016975Y008813D01*
X016974Y007935D01*
X017062Y007721D01*
X016375Y007721D01*
X016266Y007675D01*
X016299Y007865D01*
X016223Y008298D01*
X016002Y008679D01*
X015665Y008962D01*
X015252Y009113D01*
X014811Y009113D01*
X014398Y008962D01*
X014398Y008962D01*
X014320Y008897D01*
X014362Y008998D01*
X014362Y009228D01*
X014352Y009252D01*
X014430Y009330D01*
X014464Y009363D01*
X014614Y009426D01*
X014836Y009648D01*
X014956Y009938D01*
X014956Y011004D01*
X015356Y011004D01*
X015356Y009938D01*
X015356Y010102D02*
X014956Y010102D01*
X014956Y010261D02*
X015356Y010261D01*
X015356Y010419D02*
X014956Y010419D01*
X014956Y010578D02*
X015356Y010578D01*
X015356Y010736D02*
X014956Y010736D01*
X014956Y010895D02*
X015356Y010895D01*
X015554Y011846D02*
X017732Y011846D01*
X017595Y011846D01*
X017550Y011891D02*
X017374Y011964D01*
X016044Y011964D01*
X016280Y012199D01*
X016280Y012199D01*
X016499Y012629D01*
X016499Y012629D01*
X016538Y012876D01*
X018930Y012876D01*
X019251Y013009D01*
X019251Y013009D01*
X019497Y013255D01*
X019630Y013576D01*
X019630Y014397D01*
X019727Y013726D01*
X019743Y013258D01*
X019743Y010434D01*
X019734Y010456D01*
X019512Y010679D01*
X019222Y010799D01*
X018642Y010799D01*
X017685Y011756D01*
X017550Y011891D01*
X017715Y011939D02*
X017729Y011855D01*
X017756Y011770D01*
X017797Y011690D01*
X017850Y011617D01*
X017913Y011554D01*
X017986Y011501D01*
X018066Y011461D01*
X018151Y011433D01*
X018240Y011419D01*
X018624Y011419D01*
X018624Y011939D01*
X017715Y011939D01*
X017729Y011855D01*
X017756Y011770D01*
X017797Y011690D01*
X017850Y011617D01*
X017913Y011554D01*
X017986Y011501D01*
X018066Y011461D01*
X018151Y011433D01*
X018240Y011419D01*
X018624Y011419D01*
X018624Y011939D01*
X018624Y012039D01*
X017715Y012039D01*
X017729Y012122D01*
X017756Y012208D01*
X017797Y012288D01*
X017850Y012360D01*
X017913Y012424D01*
X017986Y012476D01*
X018066Y012517D01*
X018151Y012545D01*
X018240Y012559D01*
X018624Y012559D01*
X018624Y012039D01*
X018624Y011939D01*
X017715Y011939D01*
X017715Y012039D02*
X018624Y012039D01*
X018724Y012039D01*
X018724Y012559D01*
X019109Y012559D01*
X019198Y012545D01*
X019283Y012517D01*
X019363Y012476D01*
X019436Y012424D01*
X019499Y012360D01*
X019552Y012288D01*
X019593Y012208D01*
X019620Y012122D01*
X019634Y012039D01*
X018724Y012039D01*
X018624Y012039D01*
X018624Y012559D01*
X018240Y012559D01*
X018151Y012545D01*
X018066Y012517D01*
X017986Y012476D01*
X017913Y012424D01*
X017850Y012360D01*
X017797Y012288D01*
X017756Y012208D01*
X017729Y012122D01*
X017715Y012039D01*
X017742Y012163D02*
X016021Y012163D01*
X016085Y012004D02*
X018624Y012004D01*
X015849Y012004D01*
X016243Y012163D02*
X017742Y012163D01*
X017821Y012321D02*
X016158Y012321D01*
X016244Y012480D02*
X017993Y012480D01*
X016423Y012480D01*
X016500Y012638D02*
X019743Y012638D01*
X016329Y012638D01*
X016363Y012797D02*
X019743Y012797D01*
X016526Y012797D01*
X016389Y012955D02*
X019743Y012955D01*
X019122Y012955D01*
X019356Y013114D02*
X019743Y013114D01*
X019743Y013272D02*
X019504Y013272D01*
X019497Y013255D02*
X019497Y013255D01*
X019570Y013431D02*
X019737Y013431D01*
X019731Y013589D02*
X019630Y013589D01*
X019630Y013748D02*
X019723Y013748D01*
X019701Y013906D02*
X019630Y013906D01*
X019630Y014065D02*
X019678Y014065D01*
X019655Y014223D02*
X019630Y014223D01*
X019630Y014382D02*
X019632Y014382D01*
X019198Y012545D02*
X019109Y012559D01*
X018724Y012559D01*
X018724Y012039D01*
X018724Y011939D01*
X018724Y011419D01*
X019109Y011419D01*
X019198Y011433D01*
X019283Y011461D01*
X019363Y011501D01*
X019436Y011554D01*
X019499Y011617D01*
X019552Y011690D01*
X019593Y011770D01*
X019620Y011855D01*
X019634Y011939D01*
X018724Y011939D01*
X018624Y011939D01*
X018724Y011939D01*
X018724Y011419D01*
X019109Y011419D01*
X019198Y011433D01*
X019283Y011461D01*
X019363Y011501D01*
X019436Y011554D01*
X019499Y011617D01*
X019552Y011690D01*
X019593Y011770D01*
X019620Y011855D01*
X019634Y011939D01*
X018724Y011939D01*
X018724Y012039D01*
X019634Y012039D01*
X019620Y012122D01*
X019593Y012208D01*
X019552Y012288D01*
X019499Y012360D01*
X019436Y012424D01*
X019363Y012476D01*
X019283Y012517D01*
X019198Y012545D01*
X019356Y012480D02*
X019743Y012480D01*
X019356Y012480D01*
X019527Y012321D02*
X019743Y012321D01*
X019527Y012321D01*
X019607Y012163D02*
X019743Y012163D01*
X019607Y012163D01*
X019743Y012004D02*
X018724Y012004D01*
X019743Y012004D01*
X019743Y011846D02*
X019617Y011846D01*
X019743Y011846D01*
X019743Y011687D02*
X019550Y011687D01*
X019743Y011687D01*
X019743Y011529D02*
X019401Y011529D01*
X019743Y011529D01*
X019743Y011370D02*
X017844Y011370D01*
X017912Y011529D02*
X017948Y011529D01*
X017686Y011529D01*
X017753Y011687D02*
X017799Y011687D01*
X017527Y011687D01*
X017278Y011484D02*
X012161Y011484D01*
X012411Y011858D02*
X013908Y011858D01*
X014720Y009785D02*
X015593Y009785D01*
X015420Y009785D02*
X014893Y009785D01*
X014815Y009627D02*
X015498Y009627D01*
X015656Y009468D02*
X014656Y009468D01*
X014589Y009627D02*
X015724Y009627D01*
X016014Y009468D02*
X014342Y009468D01*
X014410Y009310D02*
X015979Y009310D01*
X016314Y009310D02*
X017384Y009310D01*
X017419Y009151D02*
X014202Y009151D01*
X014187Y008993D02*
X017231Y008993D01*
X017164Y009151D02*
X014362Y009151D01*
X014360Y008993D02*
X014482Y008993D01*
X014537Y008834D02*
X014097Y008834D01*
X014298Y008676D02*
X013425Y008676D01*
X013583Y008517D02*
X014154Y008517D01*
X014056Y008359D02*
X013742Y008359D01*
X013845Y008200D02*
X013994Y008200D01*
X013943Y008042D02*
X013854Y008042D01*
X013854Y007883D02*
X013943Y007883D01*
X013784Y009113D02*
X012161Y009113D01*
X010422Y009495D02*
X010414Y009487D01*
X013345Y006242D02*
X014033Y006242D01*
X014033Y004620D01*
X013534Y004120D01*
X013336Y004120D01*
X014051Y003959D02*
X014051Y003687D01*
X013990Y003540D01*
X013878Y003427D01*
X013731Y003366D01*
X013698Y003366D01*
X013909Y003155D01*
X013909Y003155D01*
X014128Y002725D01*
X014128Y002725D01*
X014203Y002248D01*
X014128Y001772D01*
X014128Y001772D01*
X014043Y001605D01*
X014334Y001605D01*
X014543Y001814D01*
X014543Y002264D01*
X014517Y002274D01*
X014266Y002525D01*
X014130Y002853D01*
X014130Y003208D01*
X014266Y003536D01*
X014517Y003787D01*
X014716Y003869D01*
X014617Y003869D01*
X014617Y004227D01*
X014580Y004227D01*
X014580Y003869D01*
X014299Y003869D01*
X014253Y003881D01*
X014212Y003905D01*
X014179Y003938D01*
X014155Y003979D01*
X014143Y004025D01*
X014143Y004051D01*
X014051Y003959D01*
X014051Y003921D02*
X014196Y003921D01*
X014051Y003762D02*
X014493Y003762D01*
X014580Y003921D02*
X014617Y003921D01*
X014617Y004079D02*
X014580Y004079D01*
X014334Y003604D02*
X014017Y003604D01*
X013849Y003496D02*
X014033Y003063D01*
X014283Y002373D01*
X014408Y002124D01*
X014657Y001874D01*
X014543Y001860D02*
X014142Y001860D01*
X014167Y002019D02*
X014543Y002019D01*
X014543Y002177D02*
X014192Y002177D01*
X014189Y002336D02*
X014455Y002336D01*
X014297Y002494D02*
X014164Y002494D01*
X014139Y002653D02*
X014213Y002653D01*
X014148Y002811D02*
X014084Y002811D01*
X014130Y002970D02*
X014003Y002970D01*
X013922Y003128D02*
X014130Y003128D01*
X014163Y003287D02*
X013777Y003287D01*
X013896Y003445D02*
X014229Y003445D01*
X015023Y003030D02*
X015023Y001615D01*
X014532Y001125D01*
X011622Y001125D01*
X011497Y001250D01*
X010788Y001874D02*
X010704Y001874D01*
X010080Y001250D01*
X011024Y002494D02*
X011156Y002494D01*
X010858Y004238D02*
X011739Y004238D01*
X011739Y004396D02*
X010858Y004396D01*
X010858Y004555D02*
X011757Y004555D01*
X011870Y004713D02*
X010858Y004713D01*
X010858Y004872D02*
X011730Y004872D01*
X011730Y005030D02*
X010858Y005030D01*
X010858Y005189D02*
X012148Y005189D01*
X012148Y005030D02*
X012303Y005030D01*
X012303Y004872D02*
X012148Y004872D01*
X011730Y005347D02*
X010858Y005347D01*
X010969Y005506D02*
X011730Y005506D01*
X011570Y005664D02*
X011127Y005664D01*
X011286Y005823D02*
X011510Y005823D01*
X011510Y005981D02*
X011444Y005981D01*
X014033Y006242D02*
X014472Y006242D01*
X015591Y006242D02*
X015591Y005987D01*
X014599Y004994D01*
X015465Y004620D02*
X015465Y003472D01*
X015023Y003030D01*
X015114Y003122D01*
X015897Y002811D02*
X016267Y002811D01*
X016375Y002767D02*
X016054Y002900D01*
X016054Y002900D01*
X015915Y003039D01*
X015915Y002853D01*
X015779Y002525D01*
X015528Y002274D01*
X015503Y002264D01*
X015503Y001705D01*
X016329Y002083D01*
X017116Y002589D01*
X017322Y002767D01*
X016375Y002767D01*
X015984Y002970D02*
X015915Y002970D01*
X015832Y002653D02*
X017190Y002653D01*
X016969Y002494D02*
X015748Y002494D01*
X015590Y002336D02*
X016723Y002336D01*
X016476Y002177D02*
X015503Y002177D01*
X015503Y002019D02*
X016189Y002019D01*
X015842Y001860D02*
X015503Y001860D01*
X014430Y001702D02*
X014092Y001702D01*
X019630Y006698D02*
X019630Y007021D01*
X019497Y007342D01*
X019251Y007588D01*
X019201Y007608D01*
X019267Y007673D01*
X019304Y007762D01*
X019307Y007757D01*
X019361Y007704D01*
X019422Y007659D01*
X019489Y007625D01*
X019561Y007601D01*
X019635Y007589D01*
X019653Y007589D01*
X019654Y008349D01*
X019694Y008349D01*
X019693Y007589D01*
X019711Y007589D01*
X019735Y007593D01*
X019727Y007370D01*
X019630Y006698D01*
X019630Y006774D02*
X019641Y006774D01*
X019630Y006932D02*
X019664Y006932D01*
X019687Y007091D02*
X019601Y007091D01*
X019535Y007249D02*
X019709Y007249D01*
X019728Y007408D02*
X019431Y007408D01*
X019497Y007342D02*
X019497Y007342D01*
X019524Y007365D02*
X019275Y007615D01*
X017403Y007615D01*
X017278Y007740D01*
X016529Y007865D01*
X016299Y007865D02*
X016299Y007865D01*
X016296Y007883D02*
X016995Y007883D01*
X016974Y008042D02*
X016268Y008042D01*
X016240Y008200D02*
X016974Y008200D01*
X016974Y008359D02*
X016187Y008359D01*
X016006Y008359D02*
X017134Y008359D01*
X017135Y008517D02*
X015908Y008517D01*
X016004Y008676D02*
X016975Y008676D01*
X016984Y008834D02*
X015818Y008834D01*
X015764Y008676D02*
X017135Y008676D01*
X017157Y008834D02*
X015554Y008834D01*
X015581Y008993D02*
X017050Y008993D01*
X016636Y009468D02*
X017708Y009468D01*
X017776Y009627D02*
X016569Y009627D01*
X016700Y009785D02*
X017695Y009785D01*
X017654Y009944D02*
X016765Y009944D01*
X016776Y010102D02*
X017654Y010102D01*
X017494Y010102D02*
X016936Y010102D01*
X016936Y009944D02*
X017494Y009944D01*
X017522Y009785D02*
X016873Y009785D01*
X016795Y009627D02*
X017588Y009627D01*
X017943Y009468D02*
X016279Y009468D01*
X015665Y008962D02*
X015665Y008962D01*
X016002Y008679D02*
X016002Y008679D01*
X016002Y008679D01*
X016096Y008517D02*
X016975Y008517D01*
X017134Y008200D02*
X016076Y008200D01*
X016106Y008042D02*
X017134Y008042D01*
X017168Y007883D02*
X016135Y007883D01*
X016274Y007725D02*
X017060Y007725D01*
X018118Y008993D02*
X018233Y008993D01*
X018424Y009151D02*
X017930Y009151D01*
X018926Y009151D02*
X019743Y009151D01*
X019184Y009151D01*
X019117Y008993D02*
X019320Y008993D01*
X019299Y008993D01*
X019224Y008834D02*
X019192Y008834D01*
X019655Y008834D02*
X019695Y008834D01*
X019655Y008834D01*
X019655Y008676D02*
X019695Y008676D01*
X019655Y008676D01*
X019655Y008517D02*
X019695Y008517D01*
X019655Y008517D01*
X019654Y008200D02*
X019694Y008200D01*
X019694Y008042D02*
X019654Y008042D01*
X019654Y007883D02*
X019694Y007883D01*
X019693Y007725D02*
X019653Y007725D01*
X019734Y007566D02*
X019273Y007566D01*
X019251Y007588D02*
X019251Y007588D01*
X019288Y007725D02*
X019339Y007725D01*
X019656Y008993D02*
X019696Y008993D01*
X019656Y008993D01*
X019743Y009310D02*
X019441Y009310D01*
X019406Y009468D02*
X019743Y009468D01*
X019641Y009468D01*
X019573Y009627D02*
X019743Y009627D01*
X019743Y009785D02*
X019654Y009785D01*
X019694Y009944D02*
X019743Y009944D01*
X019743Y010102D02*
X019694Y010102D01*
X019743Y010261D02*
X019642Y010261D01*
X019545Y010419D02*
X019743Y010419D01*
X019743Y010578D02*
X019613Y010578D01*
X019743Y010578D02*
X019337Y010578D01*
X019373Y010736D02*
X019743Y010736D01*
X018478Y010736D01*
X018546Y010895D02*
X019743Y010895D01*
X018320Y010895D01*
X018387Y011053D02*
X019743Y011053D01*
X018161Y011053D01*
X018229Y011212D02*
X019743Y011212D01*
X018003Y011212D01*
X018070Y011370D02*
X019743Y011370D01*
X018724Y011529D02*
X018624Y011529D01*
X018724Y011529D01*
X018724Y011687D02*
X018624Y011687D01*
X018724Y011687D01*
X018724Y011846D02*
X018624Y011846D01*
X018724Y011846D01*
X018724Y012163D02*
X018624Y012163D01*
X018724Y012163D01*
X018724Y012321D02*
X018624Y012321D01*
X018724Y012321D01*
X018724Y012480D02*
X018624Y012480D01*
X018724Y012480D01*
X017821Y012321D02*
X016342Y012321D01*
X017278Y011484D02*
X018627Y010135D01*
X017804Y010419D02*
X016776Y010419D01*
X016776Y010261D02*
X017707Y010261D01*
X017534Y010261D02*
X016936Y010261D01*
X016936Y010419D02*
X017599Y010419D01*
X017505Y010578D02*
X016936Y010578D01*
X016936Y010736D02*
X017347Y010736D01*
X017415Y010895D02*
X016776Y010895D01*
X016776Y010736D02*
X017573Y010736D01*
X017732Y010578D02*
X016776Y010578D01*
X016936Y010895D02*
X017188Y010895D01*
X017256Y011053D02*
X016755Y011053D01*
X014184Y009310D02*
X019743Y009310D01*
D23*
X015032Y014854D02*
X013160Y012981D01*
X015032Y014854D02*
X015032Y017931D01*
X008653Y018210D02*
X007682Y018210D01*
X013160Y007989D02*
X012161Y006991D01*
X011662Y006991D01*
X010298Y005627D01*
X010298Y003030D01*
D24*
X010788Y001874D03*
X014657Y001874D03*
X016779Y002623D03*
X019524Y007365D03*
X016529Y007865D03*
X013784Y009113D03*
X013160Y007989D03*
X012161Y009113D03*
X012411Y011858D03*
X011163Y011733D03*
X013160Y012981D03*
X013908Y011858D03*
X017403Y010610D03*
X018776Y011109D03*
X010913Y017100D03*
X009041Y015478D03*
X008542Y016226D03*
X009166Y014354D03*
X009166Y012981D03*
X008167Y012607D03*
X006919Y012981D03*
X005422Y012981D03*
X004548Y012981D03*
X002926Y012357D03*
X002426Y011983D03*
X002676Y012981D03*
X003550Y011359D03*
X003300Y009986D03*
X002551Y008863D03*
X001303Y007365D03*
X004603Y008724D03*
X005422Y008613D03*
X006171Y008613D03*
X006919Y008613D03*
X007918Y008489D03*
X008791Y009237D03*
X009166Y008613D03*
X009166Y009986D03*
X008542Y009986D03*
X007419Y009986D03*
X008292Y011234D03*
X005921Y010610D03*
X005796Y009861D03*
X004923Y006866D03*
X009041Y006866D03*
X005547Y016726D03*
X003550Y016726D03*
X007668Y019846D03*
X008653Y018210D03*
X011038Y019846D03*
D25*
X011119Y019765D01*
X011119Y019114D01*
X011038Y019846D02*
X007668Y019846D01*
X007271Y019846D01*
X007668Y019846D02*
X007682Y019610D01*
X007682Y019110D01*
X007271Y019845D02*
X007059Y019858D01*
X006846Y019861D01*
X006633Y019853D01*
X006420Y019836D01*
X006209Y019808D01*
X005999Y019770D01*
X005791Y019722D01*
X005586Y019665D01*
X005384Y019598D01*
X005185Y019521D01*
X004990Y019435D01*
X004799Y019339D01*
X004614Y019235D01*
X004433Y019122D01*
X004258Y019001D01*
X004089Y018871D01*
X003926Y018733D01*
X003770Y018588D01*
X003621Y018436D01*
X003479Y018276D01*
X003345Y018110D01*
X003220Y017938D01*
X003102Y017761D01*
X002993Y017577D01*
X002893Y017389D01*
X002803Y017196D01*
X002721Y016999D01*
X002649Y016799D01*
X002586Y016595D01*
X002533Y016389D01*
X002490Y016180D01*
X002458Y015969D01*
X002435Y015757D01*
X016280Y018098D02*
X016428Y018094D01*
X016577Y018084D01*
X016724Y018066D01*
X016870Y018042D01*
X017016Y018010D01*
X017159Y017972D01*
X017300Y017926D01*
X017440Y017875D01*
X017576Y017816D01*
X017710Y017751D01*
X017840Y017680D01*
X017967Y017603D01*
X018090Y017519D01*
X018209Y017430D01*
X018323Y017336D01*
X018433Y017236D01*
X018538Y017131D01*
X018638Y017021D01*
X018732Y016907D01*
X018821Y016788D01*
X018905Y016665D01*
X018982Y016538D01*
X019053Y016408D01*
X019118Y016274D01*
X019177Y016138D01*
X019228Y015998D01*
X019274Y015857D01*
X019312Y015714D01*
X019344Y015568D01*
X019368Y015422D01*
X019386Y015275D01*
X019396Y015126D01*
X019400Y014978D01*
X019400Y012857D01*
X019674Y008369D02*
X019579Y007566D01*
X019524Y007365D01*
D26*
X014598Y004246D02*
X014596Y004193D01*
X014590Y004139D01*
X014581Y004087D01*
X014568Y004035D01*
X014551Y003984D01*
X014530Y003935D01*
X014506Y003887D01*
X014479Y003841D01*
X014449Y003797D01*
X014415Y003756D01*
X014379Y003716D01*
X014339Y003680D01*
X014298Y003646D01*
X014254Y003616D01*
X014208Y003589D01*
X014160Y003565D01*
X014111Y003544D01*
X014060Y003527D01*
X014008Y003514D01*
X013956Y003505D01*
X013902Y003499D01*
X013849Y003497D01*
X013849Y003496D02*
X011662Y003496D01*
X011537Y003621D01*
X011537Y004120D01*
X012234Y004120D01*
X009985Y016211D02*
X009985Y017627D01*
X010298Y017941D01*
X009701Y018537D01*
X009701Y019114D01*
M02*
