G75*
G70*
%OFA0B0*%
%FSLAX24Y24*%
%IPPOS*%
%LPD*%
%AMOC8*
5,1,8,0,0,1.08239X$1,22.5*
%
%ADD10C,0.0100*%
%ADD11C,0.0080*%
%ADD12C,0.0040*%
%ADD13C,0.0030*%
%ADD14C,0.0050*%
%ADD15C,0.0060*%
%ADD16R,0.1500X0.0300*%
%ADD17R,0.0300X0.1500*%
%ADD18R,0.0010X0.0010*%
%ADD19R,0.0190X0.0010*%
%ADD20R,0.0320X0.0010*%
%ADD21R,0.0410X0.0010*%
%ADD22R,0.0470X0.0010*%
%ADD23R,0.0530X0.0010*%
%ADD24R,0.0580X0.0010*%
%ADD25R,0.0630X0.0010*%
%ADD26R,0.0660X0.0010*%
%ADD27R,0.0710X0.0010*%
%ADD28R,0.0750X0.0010*%
%ADD29R,0.0780X0.0010*%
%ADD30R,0.0810X0.0010*%
%ADD31R,0.0840X0.0010*%
%ADD32R,0.0870X0.0010*%
%ADD33R,0.0900X0.0010*%
%ADD34R,0.0930X0.0010*%
%ADD35R,0.0950X0.0010*%
%ADD36R,0.0980X0.0010*%
%ADD37R,0.0990X0.0010*%
%ADD38R,0.1030X0.0010*%
%ADD39R,0.1050X0.0010*%
%ADD40R,0.1060X0.0010*%
%ADD41R,0.0500X0.0010*%
%ADD42R,0.0490X0.0010*%
%ADD43R,0.0440X0.0010*%
%ADD44R,0.0420X0.0010*%
%ADD45R,0.0390X0.0010*%
%ADD46R,0.0370X0.0010*%
%ADD47R,0.0360X0.0010*%
%ADD48R,0.0350X0.0010*%
%ADD49R,0.0340X0.0010*%
%ADD50R,0.0310X0.0010*%
%ADD51R,0.0300X0.0010*%
%ADD52R,0.0290X0.0010*%
%ADD53R,0.0280X0.0010*%
%ADD54R,0.0270X0.0010*%
%ADD55R,0.0260X0.0010*%
%ADD56R,0.0250X0.0010*%
%ADD57R,0.0240X0.0010*%
%ADD58R,0.0230X0.0010*%
%ADD59R,0.0330X0.0010*%
%ADD60R,0.0400X0.0010*%
%ADD61R,0.0430X0.0010*%
%ADD62R,0.0460X0.0010*%
%ADD63R,0.0520X0.0010*%
%ADD64R,0.1080X0.0010*%
%ADD65R,0.1020X0.0010*%
%ADD66R,0.1010X0.0010*%
%ADD67R,0.1000X0.0010*%
%ADD68R,0.0740X0.0010*%
%ADD69R,0.0720X0.0010*%
%ADD70R,0.0700X0.0010*%
%ADD71R,0.0680X0.0010*%
%ADD72R,0.0030X0.0010*%
%ADD73R,0.0020X0.0010*%
%ADD74R,0.0180X0.0010*%
%ADD75R,0.0200X0.0010*%
%ADD76R,0.0210X0.0010*%
%ADD77R,0.0220X0.0010*%
%ADD78R,0.0050X0.0010*%
%ADD79R,0.0450X0.0010*%
%ADD80R,0.0510X0.0010*%
%ADD81R,0.0570X0.0010*%
%ADD82R,0.0620X0.0010*%
%ADD83R,0.0670X0.0010*%
%ADD84R,0.0380X0.0010*%
%ADD85R,0.0800X0.0010*%
%ADD86R,0.1260X0.0010*%
%ADD87R,0.1270X0.0010*%
%ADD88R,0.1280X0.0010*%
%ADD89R,0.1290X0.0010*%
%ADD90R,0.1300X0.0010*%
%ADD91R,0.1310X0.0010*%
%ADD92R,0.1320X0.0010*%
%ADD93R,0.1330X0.0010*%
%ADD94R,0.1350X0.0010*%
%ADD95R,0.0640X0.0010*%
%ADD96R,0.0650X0.0010*%
%ADD97R,0.0590X0.0010*%
%ADD98R,0.0550X0.0010*%
%ADD99R,0.0480X0.0010*%
%ADD100R,0.0540X0.0010*%
%ADD101R,0.1490X0.0010*%
%ADD102R,0.1510X0.0010*%
%ADD103R,0.1520X0.0010*%
%ADD104R,0.1540X0.0010*%
%ADD105R,0.1550X0.0010*%
%ADD106R,0.1560X0.0010*%
%ADD107R,0.1580X0.0010*%
%ADD108R,0.1110X0.0010*%
%ADD109R,0.0920X0.0010*%
%ADD110R,0.0880X0.0010*%
%ADD111R,0.0910X0.0010*%
%ADD112R,0.0860X0.0010*%
%ADD113R,0.0940X0.0010*%
%ADD114R,0.0820X0.0010*%
%ADD115R,0.1070X0.0010*%
%ADD116R,0.1100X0.0010*%
%ADD117R,0.1130X0.0010*%
%ADD118R,0.1170X0.0010*%
%ADD119R,0.1220X0.0010*%
%ADD120R,0.0120X0.0010*%
%ADD121R,0.1340X0.0010*%
%ADD122R,0.1380X0.0010*%
%ADD123R,0.1430X0.0010*%
%ADD124R,0.1460X0.0010*%
%ADD125R,0.1530X0.0010*%
%ADD126R,0.1590X0.0010*%
%ADD127R,0.1630X0.0010*%
%ADD128R,0.1660X0.0010*%
%ADD129R,0.1690X0.0010*%
%ADD130R,0.1720X0.0010*%
%ADD131R,0.1750X0.0010*%
%ADD132R,0.1770X0.0010*%
%ADD133R,0.1800X0.0010*%
%ADD134R,0.1830X0.0010*%
%ADD135R,0.1850X0.0010*%
%ADD136R,0.1870X0.0010*%
%ADD137R,0.1900X0.0010*%
%ADD138R,0.1930X0.0010*%
%ADD139R,0.1950X0.0010*%
%ADD140R,0.1970X0.0010*%
%ADD141R,0.1990X0.0010*%
%ADD142R,0.2010X0.0010*%
%ADD143R,0.2040X0.0010*%
%ADD144R,0.2060X0.0010*%
%ADD145R,0.0560X0.0010*%
%ADD146R,0.2080X0.0010*%
%ADD147R,0.2100X0.0010*%
%ADD148R,0.2130X0.0010*%
%ADD149R,0.2150X0.0010*%
%ADD150R,0.2170X0.0010*%
%ADD151R,0.0850X0.0010*%
%ADD152R,0.0790X0.0010*%
%ADD153R,0.0760X0.0010*%
%ADD154R,0.0770X0.0010*%
%ADD155R,0.0600X0.0010*%
%ADD156R,0.0690X0.0010*%
%ADD157R,0.0610X0.0010*%
%ADD158R,0.1250X0.0010*%
%ADD159R,0.1200X0.0010*%
%ADD160R,0.1140X0.0010*%
%ADD161R,0.1090X0.0010*%
%ADD162R,0.0960X0.0010*%
%ADD163R,0.0890X0.0010*%
%ADD164R,0.0830X0.0010*%
%ADD165R,0.0730X0.0010*%
%ADD166R,0.0970X0.0010*%
%ADD167R,0.2160X0.0010*%
%ADD168R,0.2140X0.0010*%
%ADD169R,0.2120X0.0010*%
%ADD170R,0.2090X0.0010*%
%ADD171R,0.2020X0.0010*%
%ADD172R,0.2000X0.0010*%
%ADD173R,0.1980X0.0010*%
%ADD174R,0.1960X0.0010*%
%ADD175R,0.1880X0.0010*%
%ADD176R,0.1860X0.0010*%
%ADD177R,0.1840X0.0010*%
%ADD178R,0.1810X0.0010*%
%ADD179R,0.1780X0.0010*%
%ADD180R,0.1760X0.0010*%
%ADD181R,0.1700X0.0010*%
%ADD182R,0.1670X0.0010*%
%ADD183R,0.1640X0.0010*%
%ADD184R,0.1610X0.0010*%
%ADD185R,0.1470X0.0010*%
%ADD186R,0.1400X0.0010*%
%ADD187R,0.1360X0.0010*%
%ADD188R,0.1230X0.0010*%
%ADD189R,0.1180X0.0010*%
%ADD190C,0.0000*%
D10*
X007766Y000751D02*
X013187Y000751D01*
X013187Y000750D02*
X013524Y000758D01*
X013861Y000782D01*
X014196Y000822D01*
X014528Y000878D01*
X014858Y000950D01*
X015184Y001037D01*
X015505Y001140D01*
X015821Y001258D01*
X016131Y001390D01*
X016434Y001538D01*
X016731Y001699D01*
X017019Y001875D01*
X017298Y002064D01*
X017568Y002266D01*
X017828Y002481D01*
X018078Y002708D01*
X018316Y002946D01*
X018543Y003196D01*
X018758Y003456D01*
X018960Y003726D01*
X019149Y004005D01*
X019325Y004294D01*
X019486Y004590D01*
X019634Y004893D01*
X019766Y005203D01*
X019884Y005519D01*
X019987Y005840D01*
X020074Y006166D01*
X020146Y006496D01*
X020202Y006828D01*
X020242Y007163D01*
X020266Y007500D01*
X020274Y007837D01*
X020273Y007837D02*
X020273Y013258D01*
X020274Y013258D02*
X020266Y013595D01*
X020242Y013932D01*
X020202Y014267D01*
X020146Y014599D01*
X020074Y014929D01*
X019987Y015255D01*
X019884Y015576D01*
X019766Y015892D01*
X019634Y016202D01*
X019486Y016505D01*
X019325Y016802D01*
X019149Y017090D01*
X018960Y017369D01*
X018758Y017639D01*
X018543Y017899D01*
X018316Y018149D01*
X018078Y018387D01*
X017828Y018614D01*
X017568Y018829D01*
X017298Y019031D01*
X017019Y019220D01*
X016731Y019396D01*
X016434Y019557D01*
X016131Y019705D01*
X015821Y019837D01*
X015505Y019955D01*
X015184Y020058D01*
X014858Y020145D01*
X014528Y020217D01*
X014196Y020273D01*
X013861Y020313D01*
X013524Y020337D01*
X013187Y020345D01*
X007766Y020345D01*
X007429Y020337D01*
X007092Y020313D01*
X006757Y020273D01*
X006425Y020217D01*
X006095Y020145D01*
X005769Y020058D01*
X005448Y019955D01*
X005132Y019837D01*
X004822Y019705D01*
X004519Y019557D01*
X004222Y019396D01*
X003934Y019220D01*
X003655Y019031D01*
X003385Y018829D01*
X003125Y018614D01*
X002875Y018387D01*
X002637Y018149D01*
X002410Y017899D01*
X002195Y017639D01*
X001993Y017369D01*
X001804Y017090D01*
X001628Y016802D01*
X001467Y016505D01*
X001319Y016202D01*
X001187Y015892D01*
X001069Y015576D01*
X000966Y015255D01*
X000879Y014929D01*
X000807Y014599D01*
X000751Y014267D01*
X000711Y013932D01*
X000687Y013595D01*
X000679Y013258D01*
X000679Y007837D01*
X000687Y007500D01*
X000711Y007163D01*
X000751Y006828D01*
X000807Y006496D01*
X000879Y006166D01*
X000966Y005840D01*
X001069Y005519D01*
X001187Y005203D01*
X001319Y004893D01*
X001467Y004590D01*
X001628Y004294D01*
X001804Y004005D01*
X001993Y003726D01*
X002195Y003456D01*
X002410Y003196D01*
X002637Y002946D01*
X002875Y002708D01*
X003125Y002481D01*
X003385Y002266D01*
X003655Y002064D01*
X003934Y001875D01*
X004222Y001699D01*
X004519Y001538D01*
X004822Y001390D01*
X005132Y001258D01*
X005448Y001140D01*
X005769Y001037D01*
X006095Y000950D01*
X006425Y000878D01*
X006757Y000822D01*
X007092Y000782D01*
X007429Y000758D01*
X007766Y000750D01*
D11*
X009452Y001475D02*
X015869Y001475D01*
X015869Y010255D01*
X009452Y010255D01*
X009452Y001475D01*
X009452Y010716D02*
X015869Y010716D01*
X015869Y019496D01*
X009452Y019496D01*
X009452Y010716D01*
X011069Y014769D02*
X011069Y015383D01*
X011376Y015690D01*
X011683Y015383D01*
X011683Y014769D01*
X011990Y014769D02*
X012604Y014769D01*
X012604Y015690D01*
X012911Y015536D02*
X012911Y015229D01*
X013064Y015076D01*
X013524Y015076D01*
X013831Y014922D02*
X013831Y015690D01*
X013524Y015690D02*
X013064Y015690D01*
X012911Y015536D01*
X013524Y015690D02*
X013524Y014769D01*
X013831Y014922D02*
X013985Y014769D01*
X014292Y014769D01*
X014445Y014922D01*
X014445Y015690D01*
X014752Y015536D02*
X014906Y015690D01*
X015213Y015690D01*
X015366Y015536D01*
X015366Y015383D01*
X015213Y015229D01*
X014906Y015229D01*
X014752Y015076D01*
X014752Y014922D01*
X014906Y014769D01*
X015213Y014769D01*
X015366Y014922D01*
X011683Y015229D02*
X011069Y015229D01*
D12*
X011277Y014396D02*
X011277Y013875D01*
X011017Y013875D01*
X010930Y013962D01*
X010930Y014135D01*
X011017Y014222D01*
X011277Y014222D01*
X011446Y014135D02*
X011446Y013875D01*
X011706Y013875D01*
X011793Y013962D01*
X011706Y014049D01*
X011446Y014049D01*
X011446Y014135D02*
X011533Y014222D01*
X011706Y014222D01*
X011962Y014135D02*
X011962Y013962D01*
X012048Y013875D01*
X012309Y013875D01*
X012309Y013702D02*
X012309Y014222D01*
X012048Y014222D01*
X011962Y014135D01*
X012477Y014222D02*
X012737Y014222D01*
X012824Y014135D01*
X012737Y014049D01*
X012564Y014049D01*
X012477Y013962D01*
X012564Y013875D01*
X012824Y013875D01*
X012993Y013875D02*
X013340Y013875D01*
X013340Y014396D01*
X012993Y014396D01*
X013166Y014135D02*
X013340Y014135D01*
X014024Y014222D02*
X014024Y013788D01*
X014111Y013702D01*
X014198Y013702D01*
X014284Y013875D02*
X014024Y013875D01*
X014284Y013875D02*
X014371Y013962D01*
X014371Y014222D01*
X014540Y014135D02*
X014627Y014222D01*
X014887Y014222D01*
X014887Y014396D02*
X014887Y013875D01*
X014627Y013875D01*
X014540Y013962D01*
X014540Y014135D01*
X010762Y013875D02*
X010588Y013875D01*
X010675Y013875D02*
X010675Y014396D01*
X010762Y014396D01*
X010418Y014135D02*
X010418Y013962D01*
X010331Y013875D01*
X010158Y013875D01*
X010071Y013962D01*
X010071Y014135D01*
X010158Y014222D01*
X010331Y014222D01*
X010418Y014135D01*
X009086Y016056D02*
X009086Y016705D01*
X009086Y016056D02*
X007571Y016056D01*
X007039Y016587D01*
X007039Y016705D01*
X007039Y017453D02*
X007039Y017571D01*
X007571Y018103D01*
X009086Y018103D01*
X009086Y017453D01*
X009165Y018219D02*
X009165Y018869D01*
X009165Y018219D02*
X007649Y018219D01*
X007117Y018750D01*
X007117Y018869D01*
X007117Y019617D02*
X007117Y019735D01*
X007649Y020266D01*
X009165Y020266D01*
X009165Y019617D01*
X009046Y018908D02*
X009023Y018851D01*
X008996Y018796D01*
X008966Y018742D01*
X008932Y018690D01*
X008895Y018641D01*
X008855Y018594D01*
X008812Y018549D01*
X008766Y018508D01*
X008718Y018469D01*
X008667Y018434D01*
X008614Y018402D01*
X008559Y018373D01*
X008503Y018348D01*
X008445Y018327D01*
X008386Y018309D01*
X008325Y018296D01*
X008264Y018286D01*
X008203Y018280D01*
X008141Y018278D01*
X008079Y018280D01*
X008018Y018286D01*
X007957Y018296D01*
X007896Y018309D01*
X007837Y018327D01*
X007779Y018348D01*
X007723Y018373D01*
X007668Y018402D01*
X007615Y018434D01*
X007564Y018469D01*
X007516Y018508D01*
X007470Y018549D01*
X007427Y018594D01*
X007387Y018641D01*
X007350Y018690D01*
X007316Y018742D01*
X007286Y018796D01*
X007259Y018851D01*
X007236Y018908D01*
X007236Y019578D02*
X007259Y019635D01*
X007286Y019690D01*
X007316Y019744D01*
X007350Y019796D01*
X007387Y019845D01*
X007427Y019892D01*
X007470Y019937D01*
X007516Y019978D01*
X007564Y020017D01*
X007615Y020052D01*
X007668Y020084D01*
X007723Y020113D01*
X007779Y020138D01*
X007837Y020159D01*
X007896Y020177D01*
X007957Y020190D01*
X008018Y020200D01*
X008079Y020206D01*
X008141Y020208D01*
X008203Y020206D01*
X008264Y020200D01*
X008325Y020190D01*
X008386Y020177D01*
X008445Y020159D01*
X008503Y020138D01*
X008559Y020113D01*
X008614Y020084D01*
X008667Y020052D01*
X008718Y020017D01*
X008766Y019978D01*
X008812Y019937D01*
X008855Y019892D01*
X008895Y019845D01*
X008932Y019796D01*
X008966Y019744D01*
X008996Y019690D01*
X009023Y019635D01*
X009046Y019578D01*
X008968Y016744D02*
X008945Y016687D01*
X008918Y016632D01*
X008888Y016578D01*
X008854Y016526D01*
X008817Y016477D01*
X008777Y016430D01*
X008734Y016385D01*
X008688Y016344D01*
X008640Y016305D01*
X008589Y016270D01*
X008536Y016238D01*
X008481Y016209D01*
X008425Y016184D01*
X008367Y016163D01*
X008308Y016145D01*
X008247Y016132D01*
X008186Y016122D01*
X008125Y016116D01*
X008063Y016114D01*
X008001Y016116D01*
X007940Y016122D01*
X007879Y016132D01*
X007818Y016145D01*
X007759Y016163D01*
X007701Y016184D01*
X007645Y016209D01*
X007590Y016238D01*
X007537Y016270D01*
X007486Y016305D01*
X007438Y016344D01*
X007392Y016385D01*
X007349Y016430D01*
X007309Y016477D01*
X007272Y016526D01*
X007238Y016578D01*
X007208Y016632D01*
X007181Y016687D01*
X007158Y016744D01*
X007158Y017414D02*
X007181Y017471D01*
X007208Y017526D01*
X007238Y017580D01*
X007272Y017632D01*
X007309Y017681D01*
X007349Y017728D01*
X007392Y017773D01*
X007438Y017814D01*
X007486Y017853D01*
X007537Y017888D01*
X007590Y017920D01*
X007645Y017949D01*
X007701Y017974D01*
X007759Y017995D01*
X007818Y018013D01*
X007879Y018026D01*
X007940Y018036D01*
X008001Y018042D01*
X008063Y018044D01*
X008125Y018042D01*
X008186Y018036D01*
X008247Y018026D01*
X008308Y018013D01*
X008367Y017995D01*
X008425Y017974D01*
X008481Y017949D01*
X008536Y017920D01*
X008589Y017888D01*
X008640Y017853D01*
X008688Y017814D01*
X008734Y017773D01*
X008777Y017728D01*
X008817Y017681D01*
X008854Y017632D01*
X008888Y017580D01*
X008918Y017526D01*
X008945Y017471D01*
X008968Y017414D01*
X006375Y014508D02*
X006068Y014508D01*
X004793Y013238D02*
X004870Y013162D01*
X004870Y012855D01*
X004793Y012778D01*
X004640Y012778D01*
X004563Y012855D01*
X004563Y013162D01*
X004640Y013238D01*
X004793Y013238D01*
X004409Y013085D02*
X004409Y012855D01*
X004333Y012778D01*
X004102Y012778D01*
X004102Y013085D01*
X003949Y013085D02*
X003796Y013085D01*
X003872Y013162D02*
X003872Y012855D01*
X003796Y012778D01*
X003642Y012778D02*
X003412Y012778D01*
X003335Y012855D01*
X003335Y013008D01*
X003412Y013085D01*
X003642Y013085D01*
X003642Y012624D01*
X003182Y012855D02*
X003182Y013085D01*
X003182Y012855D02*
X003105Y012778D01*
X002875Y012778D01*
X002875Y013085D01*
X002721Y013085D02*
X002568Y013085D01*
X002645Y013162D02*
X002645Y012855D01*
X002568Y012778D01*
X002415Y013857D02*
X002185Y013857D01*
X002261Y014011D01*
X002261Y014087D01*
X002185Y014164D01*
X002031Y014164D01*
X001954Y014087D01*
X001954Y013934D01*
X002031Y013857D01*
X002415Y013857D02*
X002415Y014164D01*
X002415Y014317D02*
X002108Y014317D01*
X001954Y014471D01*
X002108Y014624D01*
X002415Y014624D01*
X003954Y014548D02*
X003954Y014394D01*
X004031Y014317D01*
X004108Y014164D02*
X003954Y014011D01*
X004108Y013857D01*
X004415Y013857D01*
X004338Y013704D02*
X004261Y013704D01*
X004185Y013627D01*
X004108Y013704D01*
X004031Y013704D01*
X003954Y013627D01*
X003954Y013473D01*
X004031Y013397D01*
X004185Y013550D02*
X004185Y013627D01*
X004338Y013704D02*
X004415Y013627D01*
X004415Y013473D01*
X004338Y013397D01*
X004415Y014164D02*
X004108Y014164D01*
X004338Y014317D02*
X004415Y014394D01*
X004415Y014548D01*
X004338Y014624D01*
X004261Y014624D01*
X004185Y014548D01*
X004108Y014624D01*
X004031Y014624D01*
X003954Y014548D01*
X004185Y014548D02*
X004185Y014471D01*
X007145Y007162D02*
X007145Y006855D01*
X007068Y006778D01*
X007065Y006738D02*
X006989Y006662D01*
X006989Y006585D01*
X007065Y006508D01*
X006989Y006431D01*
X006989Y006355D01*
X007065Y006278D01*
X007219Y006278D01*
X007296Y006355D01*
X007449Y006278D02*
X007756Y006278D01*
X007449Y006585D01*
X007449Y006662D01*
X007526Y006738D01*
X007679Y006738D01*
X007756Y006662D01*
X007605Y006778D02*
X007375Y006778D01*
X007375Y007085D01*
X007221Y007085D02*
X007068Y007085D01*
X007065Y006738D02*
X007219Y006738D01*
X007296Y006662D01*
X007142Y006508D02*
X007065Y006508D01*
X006835Y006355D02*
X006528Y006662D01*
X006528Y006355D01*
X006605Y006278D01*
X006758Y006278D01*
X006835Y006355D01*
X006835Y006662D01*
X006758Y006738D01*
X006605Y006738D01*
X006528Y006662D01*
X006375Y006738D02*
X006375Y006431D01*
X006221Y006278D01*
X006068Y006431D01*
X006068Y006738D01*
X007605Y006778D02*
X007682Y006855D01*
X007682Y007085D01*
X007835Y007008D02*
X007835Y006855D01*
X007912Y006778D01*
X008142Y006778D01*
X008296Y006778D02*
X008296Y007008D01*
X008372Y007085D01*
X008602Y007085D01*
X008602Y006778D01*
X008600Y006738D02*
X008677Y006662D01*
X008677Y006355D01*
X008600Y006278D01*
X008446Y006278D01*
X008370Y006355D01*
X008370Y006662D02*
X008446Y006738D01*
X008600Y006738D01*
X008756Y006778D02*
X008909Y006778D01*
X008833Y006778D02*
X008833Y007238D01*
X008909Y007238D02*
X008756Y007238D01*
X008984Y006738D02*
X008830Y006585D01*
X008830Y006278D01*
X008830Y006508D02*
X009137Y006508D01*
X009137Y006585D02*
X008984Y006738D01*
X009137Y006585D02*
X009137Y006278D01*
X008142Y006624D02*
X008142Y007085D01*
X007912Y007085D01*
X007835Y007008D01*
X016051Y002406D02*
X016051Y002099D01*
X016358Y002406D01*
X016434Y002406D01*
X016511Y002329D01*
X016511Y002176D01*
X016434Y002099D01*
X016511Y001946D02*
X016204Y001639D01*
X016281Y001716D02*
X016051Y001946D01*
X016051Y001639D02*
X016511Y001639D01*
X016511Y018612D02*
X016051Y018612D01*
X016204Y018612D02*
X016511Y018919D01*
X016358Y019073D02*
X016511Y019226D01*
X016051Y019226D01*
X016051Y019073D02*
X016051Y019379D01*
X016051Y018919D02*
X016281Y018689D01*
D13*
X007880Y012858D02*
X007880Y012488D01*
X007880Y012611D02*
X007695Y012611D01*
X007633Y012673D01*
X007633Y012796D01*
X007695Y012858D01*
X007880Y012858D01*
X007757Y012611D02*
X007633Y012488D01*
X007512Y012673D02*
X007265Y012673D01*
X007327Y012488D02*
X007327Y012858D01*
X007512Y012673D01*
X007606Y011518D02*
X007545Y011456D01*
X007545Y011333D01*
X007606Y011271D01*
X007791Y011271D01*
X007668Y011271D02*
X007545Y011148D01*
X007423Y011148D02*
X007176Y011148D01*
X007300Y011148D02*
X007300Y011518D01*
X007423Y011395D01*
X007606Y011518D02*
X007791Y011518D01*
X007791Y011148D01*
X007762Y010101D02*
X007577Y010101D01*
X007515Y010039D01*
X007515Y009916D01*
X007577Y009854D01*
X007762Y009854D01*
X007762Y009731D02*
X007762Y010101D01*
X007638Y009854D02*
X007515Y009731D01*
X007394Y009792D02*
X007332Y009731D01*
X007208Y009731D01*
X007147Y009792D01*
X007147Y009854D01*
X007208Y009916D01*
X007270Y009916D01*
X007208Y009916D02*
X007147Y009978D01*
X007147Y010039D01*
X007208Y010101D01*
X007332Y010101D01*
X007394Y010039D01*
X003659Y009492D02*
X003659Y009122D01*
X003659Y009246D02*
X003474Y009246D01*
X003412Y009307D01*
X003412Y009431D01*
X003474Y009492D01*
X003659Y009492D01*
X003536Y009246D02*
X003412Y009122D01*
X003291Y009122D02*
X003044Y009369D01*
X003044Y009431D01*
X003106Y009492D01*
X003229Y009492D01*
X003291Y009431D01*
X003291Y009122D02*
X003044Y009122D01*
X003155Y010528D02*
X003155Y010589D01*
X002908Y010836D01*
X002908Y010898D01*
X003155Y010898D01*
X003276Y010836D02*
X003338Y010898D01*
X003523Y010898D01*
X003523Y010528D01*
X003523Y010651D02*
X003338Y010651D01*
X003276Y010713D01*
X003276Y010836D01*
X003400Y010651D02*
X003276Y010528D01*
X003335Y011900D02*
X003273Y011962D01*
X003335Y011900D02*
X003458Y011900D01*
X003520Y011962D01*
X003520Y012209D01*
X003458Y012271D01*
X003335Y012271D01*
X003273Y012209D01*
X003151Y012271D02*
X003151Y012086D01*
X003028Y012147D01*
X002966Y012147D01*
X002905Y012086D01*
X002905Y011962D01*
X002966Y011900D01*
X003090Y011900D01*
X003151Y011962D01*
X003151Y012271D02*
X002905Y012271D01*
X003087Y017389D02*
X003211Y017389D01*
X003272Y017451D01*
X003394Y017451D02*
X003455Y017389D01*
X003579Y017389D01*
X003641Y017451D01*
X003641Y017698D01*
X003579Y017759D01*
X003455Y017759D01*
X003394Y017698D01*
X003272Y017698D02*
X003211Y017759D01*
X003087Y017759D01*
X003025Y017698D01*
X003025Y017636D01*
X003087Y017574D01*
X003025Y017512D01*
X003025Y017451D01*
X003087Y017389D01*
X003087Y017574D02*
X003149Y017574D01*
X004069Y018590D02*
X004316Y018590D01*
X004193Y018590D02*
X004193Y018960D01*
X004316Y018837D01*
X004437Y018898D02*
X004499Y018960D01*
X004623Y018960D01*
X004684Y018898D01*
X004684Y018652D01*
X004623Y018590D01*
X004499Y018590D01*
X004437Y018652D01*
X006459Y017738D02*
X006706Y017738D01*
X006521Y017923D01*
X006521Y017553D01*
X006828Y017615D02*
X006889Y017553D01*
X007013Y017553D01*
X007074Y017615D01*
X007074Y017861D01*
X007013Y017923D01*
X006889Y017923D01*
X006828Y017861D01*
X006784Y019716D02*
X006538Y019716D01*
X006784Y019716D02*
X006538Y019963D01*
X006538Y020025D01*
X006599Y020086D01*
X006723Y020086D01*
X006784Y020025D01*
X006906Y020025D02*
X006968Y020086D01*
X007091Y020086D01*
X007153Y020025D01*
X007153Y019778D01*
X007091Y019716D01*
X006968Y019716D01*
X006906Y019778D01*
D14*
X009434Y004758D02*
X001434Y004758D01*
X001434Y016258D01*
X009434Y016258D01*
X009434Y004758D01*
X009032Y003876D02*
X009035Y003535D01*
X009148Y003536D02*
X008921Y003534D01*
X009146Y003763D02*
X009032Y003876D01*
X008512Y004767D02*
X008436Y004842D01*
X008288Y004690D01*
X008212Y004764D01*
X008053Y004687D02*
X007977Y004761D01*
X007827Y004759D01*
X007753Y004683D01*
X007754Y004608D01*
X008058Y004311D01*
X007757Y004308D01*
X007596Y004381D02*
X007522Y004305D01*
X007372Y004303D01*
X007296Y004377D01*
X007295Y004452D01*
X007369Y004528D01*
X007444Y004529D01*
X007369Y004528D02*
X007293Y004602D01*
X007292Y004677D01*
X007367Y004753D01*
X007517Y004755D01*
X007593Y004681D01*
X007132Y004676D02*
X007136Y004375D01*
X006832Y004672D01*
X006836Y004372D01*
X006912Y004297D01*
X007062Y004299D01*
X007136Y004375D01*
X007132Y004676D02*
X007056Y004750D01*
X006906Y004748D01*
X006832Y004672D01*
X006671Y004745D02*
X006675Y004445D01*
X006526Y004293D01*
X006374Y004441D01*
X006371Y004741D01*
X006975Y003858D02*
X006919Y003801D01*
X006919Y003744D01*
X007148Y003519D01*
X006921Y003517D01*
X006975Y003858D02*
X007088Y003859D01*
X007146Y003803D01*
X016287Y003269D02*
X016362Y003344D01*
X016512Y003344D01*
X016587Y003269D01*
X016747Y003344D02*
X017047Y003344D01*
X016897Y003344D02*
X016897Y002894D01*
X016587Y002894D02*
X016287Y003194D01*
X016287Y003269D01*
X016287Y002894D02*
X016587Y002894D01*
X017208Y002969D02*
X017208Y003344D01*
X017508Y003344D02*
X017508Y002969D01*
X017433Y002894D01*
X017283Y002894D01*
X017208Y002969D01*
X017668Y002969D02*
X017668Y003269D01*
X017743Y003344D01*
X017893Y003344D01*
X017968Y003269D01*
X017968Y002969D01*
X017893Y002894D01*
X017743Y002894D01*
X017668Y002969D01*
X016571Y005034D02*
X016628Y005091D01*
X016628Y005204D01*
X016571Y005261D01*
X016514Y005261D01*
X016287Y005034D01*
X016287Y005261D01*
X016287Y007034D02*
X016287Y007261D01*
X016287Y007147D02*
X016628Y007147D01*
X016514Y007034D01*
X016573Y014790D02*
X016629Y014847D01*
X016629Y014960D01*
X016573Y015017D01*
X016516Y015017D01*
X016289Y014790D01*
X016289Y015017D01*
X016289Y016790D02*
X016289Y017017D01*
X016289Y016903D02*
X016629Y016903D01*
X016516Y016790D01*
X016566Y017596D02*
X016266Y017596D01*
X016416Y017596D02*
X016416Y018046D01*
X016566Y017896D01*
X016726Y018046D02*
X017026Y018046D01*
X016876Y018046D02*
X016876Y017596D01*
X017186Y017671D02*
X017186Y018046D01*
X017487Y018046D02*
X017487Y017671D01*
X017412Y017596D01*
X017261Y017596D01*
X017186Y017671D01*
X017647Y017671D02*
X017647Y017971D01*
X017722Y018046D01*
X017872Y018046D01*
X017947Y017971D01*
X017947Y017671D01*
X017872Y017596D01*
X017722Y017596D01*
X017647Y017671D01*
D15*
X016854Y017574D02*
X016804Y017374D01*
X018504Y017374D01*
X018504Y013374D01*
X019054Y013374D01*
X019054Y017374D01*
X018504Y017374D01*
X016854Y017574D02*
X016404Y017574D01*
X016454Y017374D01*
X016804Y017374D01*
X016804Y013374D01*
X018504Y013374D01*
X016804Y013374D02*
X016104Y013374D01*
X016104Y017374D01*
X016454Y017374D01*
X016254Y016364D02*
X016256Y016392D01*
X016262Y016419D01*
X016271Y016445D01*
X016284Y016470D01*
X016301Y016493D01*
X016320Y016513D01*
X016342Y016530D01*
X016366Y016544D01*
X016392Y016554D01*
X016419Y016561D01*
X016447Y016564D01*
X016475Y016563D01*
X016502Y016558D01*
X016529Y016549D01*
X016554Y016537D01*
X016577Y016522D01*
X016598Y016503D01*
X016616Y016482D01*
X016631Y016458D01*
X016642Y016432D01*
X016650Y016406D01*
X016654Y016378D01*
X016654Y016350D01*
X016650Y016322D01*
X016642Y016296D01*
X016631Y016270D01*
X016616Y016246D01*
X016598Y016225D01*
X016577Y016206D01*
X016554Y016191D01*
X016529Y016179D01*
X016502Y016170D01*
X016475Y016165D01*
X016447Y016164D01*
X016419Y016167D01*
X016392Y016174D01*
X016366Y016184D01*
X016342Y016198D01*
X016320Y016215D01*
X016301Y016235D01*
X016284Y016258D01*
X016271Y016283D01*
X016262Y016309D01*
X016256Y016336D01*
X016254Y016364D01*
X016254Y014384D02*
X016256Y014412D01*
X016262Y014439D01*
X016271Y014465D01*
X016284Y014490D01*
X016301Y014513D01*
X016320Y014533D01*
X016342Y014550D01*
X016366Y014564D01*
X016392Y014574D01*
X016419Y014581D01*
X016447Y014584D01*
X016475Y014583D01*
X016502Y014578D01*
X016529Y014569D01*
X016554Y014557D01*
X016577Y014542D01*
X016598Y014523D01*
X016616Y014502D01*
X016631Y014478D01*
X016642Y014452D01*
X016650Y014426D01*
X016654Y014398D01*
X016654Y014370D01*
X016650Y014342D01*
X016642Y014316D01*
X016631Y014290D01*
X016616Y014266D01*
X016598Y014245D01*
X016577Y014226D01*
X016554Y014211D01*
X016529Y014199D01*
X016502Y014190D01*
X016475Y014185D01*
X016447Y014184D01*
X016419Y014187D01*
X016392Y014194D01*
X016366Y014204D01*
X016342Y014218D01*
X016320Y014235D01*
X016301Y014255D01*
X016284Y014278D01*
X016271Y014303D01*
X016262Y014329D01*
X016256Y014356D01*
X016254Y014384D01*
X016402Y007818D02*
X016852Y007818D01*
X016802Y007618D01*
X018502Y007618D01*
X018502Y003618D01*
X019052Y003618D01*
X019052Y007618D01*
X018502Y007618D01*
X016802Y007618D02*
X016802Y003618D01*
X018502Y003618D01*
X016802Y003618D02*
X016102Y003618D01*
X016102Y007618D01*
X016452Y007618D01*
X016802Y007618D01*
X016452Y007618D02*
X016402Y007818D01*
X016252Y006608D02*
X016254Y006636D01*
X016260Y006663D01*
X016269Y006689D01*
X016282Y006714D01*
X016299Y006737D01*
X016318Y006757D01*
X016340Y006774D01*
X016364Y006788D01*
X016390Y006798D01*
X016417Y006805D01*
X016445Y006808D01*
X016473Y006807D01*
X016500Y006802D01*
X016527Y006793D01*
X016552Y006781D01*
X016575Y006766D01*
X016596Y006747D01*
X016614Y006726D01*
X016629Y006702D01*
X016640Y006676D01*
X016648Y006650D01*
X016652Y006622D01*
X016652Y006594D01*
X016648Y006566D01*
X016640Y006540D01*
X016629Y006514D01*
X016614Y006490D01*
X016596Y006469D01*
X016575Y006450D01*
X016552Y006435D01*
X016527Y006423D01*
X016500Y006414D01*
X016473Y006409D01*
X016445Y006408D01*
X016417Y006411D01*
X016390Y006418D01*
X016364Y006428D01*
X016340Y006442D01*
X016318Y006459D01*
X016299Y006479D01*
X016282Y006502D01*
X016269Y006527D01*
X016260Y006553D01*
X016254Y006580D01*
X016252Y006608D01*
X016252Y004628D02*
X016254Y004656D01*
X016260Y004683D01*
X016269Y004709D01*
X016282Y004734D01*
X016299Y004757D01*
X016318Y004777D01*
X016340Y004794D01*
X016364Y004808D01*
X016390Y004818D01*
X016417Y004825D01*
X016445Y004828D01*
X016473Y004827D01*
X016500Y004822D01*
X016527Y004813D01*
X016552Y004801D01*
X016575Y004786D01*
X016596Y004767D01*
X016614Y004746D01*
X016629Y004722D01*
X016640Y004696D01*
X016648Y004670D01*
X016652Y004642D01*
X016652Y004614D01*
X016648Y004586D01*
X016640Y004560D01*
X016629Y004534D01*
X016614Y004510D01*
X016596Y004489D01*
X016575Y004470D01*
X016552Y004455D01*
X016527Y004443D01*
X016500Y004434D01*
X016473Y004429D01*
X016445Y004428D01*
X016417Y004431D01*
X016390Y004438D01*
X016364Y004448D01*
X016340Y004462D01*
X016318Y004479D01*
X016299Y004499D01*
X016282Y004522D01*
X016269Y004547D01*
X016260Y004573D01*
X016254Y004600D01*
X016252Y004628D01*
X009621Y003766D02*
X009625Y003316D01*
X009424Y003364D01*
X009439Y001664D01*
X005439Y001629D01*
X005444Y001079D01*
X009444Y001114D01*
X009439Y001664D01*
X009424Y003364D02*
X005425Y003329D01*
X005439Y001629D01*
X005425Y003329D02*
X005419Y004029D01*
X009418Y004064D01*
X009421Y003714D01*
X009424Y003364D01*
X009421Y003714D02*
X009621Y003766D01*
X008211Y003705D02*
X008213Y003733D01*
X008219Y003760D01*
X008228Y003786D01*
X008241Y003811D01*
X008258Y003834D01*
X008277Y003854D01*
X008299Y003871D01*
X008323Y003885D01*
X008349Y003895D01*
X008376Y003902D01*
X008404Y003905D01*
X008432Y003904D01*
X008459Y003899D01*
X008486Y003890D01*
X008511Y003878D01*
X008534Y003863D01*
X008555Y003844D01*
X008573Y003823D01*
X008588Y003799D01*
X008599Y003773D01*
X008607Y003747D01*
X008611Y003719D01*
X008611Y003691D01*
X008607Y003663D01*
X008599Y003637D01*
X008588Y003611D01*
X008573Y003587D01*
X008555Y003566D01*
X008534Y003547D01*
X008511Y003532D01*
X008486Y003520D01*
X008459Y003511D01*
X008432Y003506D01*
X008404Y003505D01*
X008376Y003508D01*
X008349Y003515D01*
X008323Y003525D01*
X008299Y003539D01*
X008277Y003556D01*
X008258Y003576D01*
X008241Y003599D01*
X008228Y003624D01*
X008219Y003650D01*
X008213Y003677D01*
X008211Y003705D01*
X006232Y003688D02*
X006234Y003716D01*
X006240Y003743D01*
X006249Y003769D01*
X006262Y003794D01*
X006279Y003817D01*
X006298Y003837D01*
X006320Y003854D01*
X006344Y003868D01*
X006370Y003878D01*
X006397Y003885D01*
X006425Y003888D01*
X006453Y003887D01*
X006480Y003882D01*
X006507Y003873D01*
X006532Y003861D01*
X006555Y003846D01*
X006576Y003827D01*
X006594Y003806D01*
X006609Y003782D01*
X006620Y003756D01*
X006628Y003730D01*
X006632Y003702D01*
X006632Y003674D01*
X006628Y003646D01*
X006620Y003620D01*
X006609Y003594D01*
X006594Y003570D01*
X006576Y003549D01*
X006555Y003530D01*
X006532Y003515D01*
X006507Y003503D01*
X006480Y003494D01*
X006453Y003489D01*
X006425Y003488D01*
X006397Y003491D01*
X006370Y003498D01*
X006344Y003508D01*
X006320Y003522D01*
X006298Y003539D01*
X006279Y003559D01*
X006262Y003582D01*
X006249Y003607D01*
X006240Y003633D01*
X006234Y003660D01*
X006232Y003688D01*
D16*
X017652Y005618D03*
X017654Y015374D03*
D17*
G36*
X007276Y003244D02*
X007575Y003247D01*
X007588Y001748D01*
X007289Y001745D01*
X007276Y003244D01*
G37*
D18*
X011369Y004883D03*
X011479Y004883D03*
X011559Y004893D03*
X011449Y005213D03*
X011429Y005213D03*
X011409Y005213D03*
X011419Y006173D03*
X011439Y006173D03*
X011499Y006493D03*
X011519Y006493D03*
X011349Y006493D03*
X013559Y003883D03*
X013649Y003883D03*
X013669Y003883D03*
X013639Y003653D03*
X013599Y003653D03*
X013639Y002673D03*
X013719Y002453D03*
X013499Y002453D03*
X015119Y006353D03*
X015299Y006373D03*
X014929Y006813D03*
X014849Y006823D03*
X014929Y008713D03*
X015129Y008713D03*
X015119Y009183D03*
X015099Y009183D03*
X015069Y009183D03*
X015139Y009183D03*
X015159Y009183D03*
X015229Y009173D03*
X014919Y009173D03*
X014829Y009163D03*
D19*
X013979Y004023D03*
X013969Y003993D03*
X013969Y003983D03*
X013959Y003963D03*
X013959Y003953D03*
X013959Y003943D03*
X013949Y003923D03*
X013949Y003913D03*
X013939Y003893D03*
X013939Y003883D03*
X013939Y003873D03*
X013929Y003863D03*
X013609Y002453D03*
D20*
X013614Y002463D03*
X014054Y002753D03*
X014064Y002763D03*
X013164Y002753D03*
X013154Y002763D03*
X013144Y002773D03*
X013134Y003543D03*
X013144Y003553D03*
X012514Y004483D03*
X012504Y004493D03*
X012494Y004503D03*
X012484Y004513D03*
X012464Y004533D03*
X012464Y004543D03*
X012454Y004553D03*
X012444Y004563D03*
X012434Y004573D03*
X012424Y004583D03*
X014304Y005143D03*
X014304Y005153D03*
X014314Y005173D03*
X014314Y005183D03*
X014314Y005193D03*
X014324Y005203D03*
X014324Y005213D03*
X014324Y005223D03*
X014334Y005243D03*
X014334Y005253D03*
D21*
X014549Y005993D03*
X014559Y006023D03*
X014559Y006033D03*
X014569Y006053D03*
X014569Y006063D03*
X014569Y006073D03*
X014579Y006083D03*
X014579Y006093D03*
X014579Y006103D03*
X014589Y006123D03*
X014589Y006133D03*
X013969Y003633D03*
X013249Y002693D03*
X013609Y002473D03*
X011969Y005343D03*
X011959Y006053D03*
X010879Y006043D03*
X010869Y006033D03*
X010869Y005353D03*
D22*
X010939Y005283D03*
X010949Y006113D03*
X011429Y006463D03*
X011909Y006113D03*
X012459Y006423D03*
X012479Y006433D03*
X012509Y006453D03*
X011899Y005273D03*
X013799Y007683D03*
X013799Y007853D03*
X013799Y007873D03*
X013799Y007893D03*
X013609Y002483D03*
D23*
X013609Y002493D03*
X010989Y005243D03*
X011899Y006133D03*
X012819Y006633D03*
X012839Y006643D03*
X012849Y006653D03*
X012869Y006663D03*
X012889Y006673D03*
X013889Y007323D03*
X013889Y008213D03*
X013899Y008233D03*
X013909Y008253D03*
X013909Y008263D03*
X013919Y008273D03*
X013929Y008293D03*
X016129Y007263D03*
X016129Y007253D03*
X016139Y007273D03*
X016139Y007283D03*
X016149Y007293D03*
X016159Y008203D03*
X016149Y008223D03*
X016149Y008233D03*
X016139Y008243D03*
D24*
X016054Y008383D03*
X016054Y008393D03*
X016054Y007133D03*
X016044Y007123D03*
X016044Y007113D03*
X014014Y008423D03*
X013214Y006863D03*
X013194Y006853D03*
X013144Y006823D03*
X013614Y002503D03*
D25*
X013609Y002513D03*
X013709Y003853D03*
X013869Y007263D03*
X014099Y008523D03*
X014109Y008533D03*
X015959Y008503D03*
X015969Y008493D03*
D26*
X015924Y008543D03*
X015924Y006983D03*
X015914Y006973D03*
X014134Y006973D03*
X013864Y007253D03*
X014144Y008563D03*
X014154Y008573D03*
X013694Y003843D03*
X013614Y002523D03*
D27*
X013609Y002533D03*
X015849Y006923D03*
X015849Y008603D03*
D28*
X015809Y008633D03*
X015039Y009133D03*
X015809Y006893D03*
X014239Y006893D03*
X011419Y004973D03*
X013609Y002543D03*
D29*
X013614Y002553D03*
X011844Y006173D03*
X011424Y006403D03*
X014264Y006873D03*
X015774Y006873D03*
D30*
X014289Y006863D03*
X014309Y008673D03*
X013609Y002563D03*
D31*
X013614Y002573D03*
X011424Y004993D03*
X014864Y006373D03*
X015724Y008683D03*
D32*
X013609Y002583D03*
D33*
X013614Y002593D03*
X015034Y009113D03*
D34*
X014389Y008703D03*
X013609Y002603D03*
D35*
X013609Y002613D03*
X011429Y006353D03*
D36*
X011424Y006343D03*
X013804Y007113D03*
X014424Y008713D03*
X013614Y002623D03*
D37*
X013609Y002633D03*
X013529Y003763D03*
X014939Y006403D03*
X014419Y006813D03*
X015619Y006813D03*
D38*
X013799Y007093D03*
X011419Y006323D03*
X013609Y002643D03*
D39*
X013609Y002653D03*
X013609Y003673D03*
X013609Y003683D03*
X014979Y006423D03*
D40*
X013794Y007083D03*
X011424Y006313D03*
X013614Y002663D03*
D41*
X013904Y002673D03*
X013904Y003653D03*
X011874Y005253D03*
X011904Y006123D03*
X012614Y006513D03*
X012634Y006523D03*
X012664Y006543D03*
X012684Y006553D03*
X013854Y007413D03*
X013844Y007433D03*
X013844Y007443D03*
X013844Y007453D03*
X013834Y007463D03*
X013834Y007473D03*
X013834Y007483D03*
X013824Y007513D03*
X013824Y008033D03*
X013834Y008063D03*
X013834Y008073D03*
X013844Y008083D03*
X013844Y008093D03*
X013844Y008103D03*
X013854Y008123D03*
X016194Y008113D03*
X016204Y008083D03*
X016204Y008073D03*
X016204Y008063D03*
X016214Y008053D03*
X016214Y008043D03*
X016214Y008033D03*
X016224Y008013D03*
X016224Y008003D03*
X016234Y007953D03*
X016224Y007523D03*
X016214Y007483D03*
X016214Y007463D03*
X016204Y007453D03*
X016204Y007443D03*
X016204Y007433D03*
X016194Y007413D03*
X016184Y007383D03*
X010974Y006133D03*
X010964Y005263D03*
D42*
X012579Y006493D03*
X012599Y006503D03*
X012649Y006533D03*
X013829Y007493D03*
X013829Y007503D03*
X013819Y007523D03*
X013819Y007533D03*
X013819Y007543D03*
X013819Y007553D03*
X013819Y007563D03*
X013809Y007573D03*
X013809Y007583D03*
X013809Y007593D03*
X013809Y007603D03*
X013809Y007623D03*
X013799Y007673D03*
X013799Y007693D03*
X013799Y007883D03*
X013809Y007953D03*
X013809Y007973D03*
X013819Y007993D03*
X013819Y008003D03*
X013819Y008013D03*
X013829Y008023D03*
X013829Y008043D03*
X013829Y008053D03*
X016219Y008023D03*
X016229Y007993D03*
X016229Y007983D03*
X016229Y007973D03*
X016229Y007963D03*
X016239Y007933D03*
X016239Y007923D03*
X016239Y007913D03*
X016239Y007903D03*
X016249Y007863D03*
X016249Y007843D03*
X016249Y007823D03*
X016249Y007803D03*
X016249Y007783D03*
X016249Y007763D03*
X016249Y007743D03*
X016249Y007723D03*
X016249Y007713D03*
X016249Y007703D03*
X016249Y007683D03*
X016239Y007633D03*
X016239Y007613D03*
X016239Y007603D03*
X016239Y007593D03*
X016239Y007583D03*
X016229Y007563D03*
X016229Y007553D03*
X016229Y007543D03*
X016229Y007533D03*
X016219Y007513D03*
X016219Y007503D03*
X016219Y007493D03*
X016209Y007473D03*
X013309Y002673D03*
D43*
X013284Y002683D03*
X013944Y002683D03*
X013954Y003643D03*
X011934Y005303D03*
X011924Y006093D03*
X012234Y006293D03*
X012274Y006313D03*
X012294Y006323D03*
X012304Y006333D03*
X012324Y006343D03*
X010914Y006083D03*
X010904Y005313D03*
X010914Y005303D03*
X014634Y006283D03*
X014644Y006313D03*
X014644Y006323D03*
X014654Y006343D03*
X015064Y009163D03*
D44*
X014614Y006213D03*
X014604Y006183D03*
X014604Y006173D03*
X014594Y006163D03*
X014594Y006153D03*
X014594Y006143D03*
X014584Y006113D03*
X011954Y006063D03*
X011944Y006073D03*
X011964Y005333D03*
X011954Y005323D03*
X010884Y005333D03*
X010874Y005343D03*
X010884Y006053D03*
X010904Y006073D03*
X013964Y002693D03*
D45*
X013989Y002703D03*
X013239Y002703D03*
X013219Y003613D03*
X013989Y003623D03*
X011999Y005373D03*
X011999Y005383D03*
X012009Y005393D03*
X011999Y006003D03*
X011989Y006013D03*
X011989Y006023D03*
X010859Y006013D03*
X010849Y006003D03*
X010839Y005983D03*
X010829Y005413D03*
X010839Y005403D03*
X010839Y005393D03*
X010849Y005383D03*
X014499Y005823D03*
X014509Y005853D03*
X014509Y005863D03*
X014519Y005873D03*
X014519Y005883D03*
X014519Y005893D03*
X014529Y005923D03*
D46*
X014479Y005753D03*
X014469Y005723D03*
X014469Y005713D03*
X014459Y005693D03*
X014459Y005683D03*
X014459Y005673D03*
X014449Y005663D03*
X014449Y005653D03*
X014449Y005643D03*
X014439Y005613D03*
X014009Y003613D03*
X013209Y003603D03*
X013219Y002713D03*
X013999Y002713D03*
X012129Y004923D03*
X012119Y004933D03*
X012109Y004943D03*
X012099Y004953D03*
X012089Y004963D03*
X012019Y005413D03*
X012029Y005433D03*
X012039Y005453D03*
X012029Y005953D03*
X012019Y005963D03*
X012019Y005973D03*
X010819Y005953D03*
X010819Y005943D03*
X010809Y005933D03*
X010809Y005923D03*
X010799Y005483D03*
X010799Y005473D03*
X010809Y005453D03*
X010819Y005433D03*
X011429Y004903D03*
D47*
X012134Y004913D03*
X012144Y004903D03*
X012154Y004893D03*
X012164Y004883D03*
X012174Y004873D03*
X012184Y004853D03*
X012204Y004833D03*
X012214Y004823D03*
X012224Y004813D03*
X012034Y005443D03*
X012044Y005463D03*
X012044Y005473D03*
X012054Y005483D03*
X012054Y005493D03*
X012064Y005513D03*
X012054Y005893D03*
X012044Y005913D03*
X012044Y005923D03*
X012034Y005933D03*
X012034Y005943D03*
X010804Y005913D03*
X010804Y005903D03*
X010794Y005893D03*
X010784Y005853D03*
X010784Y005523D03*
X010784Y005513D03*
X010794Y005503D03*
X010794Y005493D03*
X010804Y005463D03*
X013614Y003863D03*
X014024Y003603D03*
X014014Y002723D03*
X013204Y002723D03*
X014404Y005493D03*
X014414Y005533D03*
X014424Y005553D03*
X014424Y005563D03*
X014424Y005573D03*
X014434Y005583D03*
X014434Y005593D03*
X014434Y005603D03*
X014444Y005623D03*
X014444Y005633D03*
D48*
X014419Y005543D03*
X014409Y005523D03*
X014409Y005513D03*
X014409Y005503D03*
X014399Y005483D03*
X014399Y005473D03*
X014389Y005443D03*
X014039Y003593D03*
X013189Y003593D03*
X013179Y003583D03*
X013189Y002733D03*
X014029Y002733D03*
X012269Y004763D03*
X012259Y004773D03*
X012249Y004783D03*
X012239Y004793D03*
X012229Y004803D03*
X012199Y004843D03*
X012179Y004863D03*
X012059Y005503D03*
X012069Y005523D03*
X012069Y005533D03*
X012069Y005543D03*
X012079Y005563D03*
X012079Y005573D03*
X012079Y005803D03*
X012069Y005843D03*
X012069Y005853D03*
X012059Y005863D03*
X012059Y005873D03*
X012059Y005883D03*
X012049Y005903D03*
X010789Y005883D03*
X010789Y005873D03*
X010789Y005863D03*
X010779Y005843D03*
X010779Y005833D03*
X010769Y005823D03*
X010769Y005803D03*
X010769Y005793D03*
X010759Y005733D03*
X010759Y005713D03*
X010759Y005643D03*
X010769Y005583D03*
X010769Y005573D03*
X010769Y005563D03*
X010779Y005553D03*
X010779Y005543D03*
X010779Y005533D03*
D49*
X010764Y005593D03*
X010764Y005603D03*
X010764Y005613D03*
X010764Y005623D03*
X010764Y005633D03*
X010764Y005653D03*
X010754Y005663D03*
X010764Y005673D03*
X010754Y005683D03*
X010764Y005693D03*
X010754Y005703D03*
X010764Y005723D03*
X010764Y005743D03*
X010764Y005753D03*
X010764Y005763D03*
X010764Y005773D03*
X010764Y005783D03*
X010774Y005813D03*
X012074Y005813D03*
X012074Y005823D03*
X012074Y005833D03*
X012084Y005793D03*
X012084Y005783D03*
X012084Y005773D03*
X012084Y005763D03*
X012084Y005753D03*
X012084Y005733D03*
X012094Y005723D03*
X012094Y005703D03*
X012094Y005683D03*
X012094Y005663D03*
X012084Y005653D03*
X012094Y005643D03*
X012084Y005633D03*
X012084Y005623D03*
X012084Y005613D03*
X012084Y005603D03*
X012084Y005593D03*
X012084Y005583D03*
X012074Y005553D03*
X012274Y004753D03*
X012284Y004743D03*
X012294Y004733D03*
X012304Y004723D03*
X012314Y004713D03*
X012324Y004703D03*
X012324Y004693D03*
X012344Y004673D03*
X012354Y004663D03*
X012364Y004653D03*
X013164Y003573D03*
X013174Y002743D03*
X014044Y002743D03*
X014354Y005323D03*
X014364Y005353D03*
X014364Y005363D03*
X014374Y005383D03*
X014374Y005393D03*
X014374Y005403D03*
X014384Y005413D03*
X014384Y005423D03*
X014384Y005433D03*
X014394Y005453D03*
X014394Y005463D03*
D50*
X014309Y005163D03*
X014299Y005133D03*
X014299Y005123D03*
X014289Y005113D03*
X014289Y005103D03*
X014289Y005093D03*
X014279Y005063D03*
X014079Y003553D03*
X014089Y003543D03*
X014099Y003533D03*
X014089Y002783D03*
X014079Y002773D03*
X013129Y002783D03*
X013119Y003523D03*
X013129Y003533D03*
X012609Y004373D03*
X012569Y004423D03*
X012559Y004433D03*
X012549Y004443D03*
X012539Y004453D03*
X012529Y004463D03*
X012519Y004473D03*
X012479Y004523D03*
X011429Y006483D03*
D51*
X012574Y004413D03*
X012584Y004403D03*
X012594Y004393D03*
X012604Y004383D03*
X012624Y004353D03*
X012644Y004333D03*
X012654Y004323D03*
X012664Y004313D03*
X013104Y003513D03*
X013104Y003503D03*
X013104Y002813D03*
X013114Y002803D03*
X013124Y002793D03*
X014094Y002793D03*
X014104Y002803D03*
X014114Y003513D03*
X014244Y004943D03*
X014254Y004973D03*
X014254Y004983D03*
X014264Y005003D03*
X014264Y005013D03*
X014264Y005023D03*
X014274Y005033D03*
X014274Y005043D03*
X014274Y005053D03*
X014284Y005073D03*
X014284Y005083D03*
D52*
X014259Y004993D03*
X014249Y004963D03*
X014249Y004953D03*
X014239Y004933D03*
X014239Y004923D03*
X014239Y004913D03*
X014229Y004893D03*
X014229Y004883D03*
X014219Y004853D03*
X014109Y003523D03*
X014129Y003503D03*
X014129Y003493D03*
X014119Y002823D03*
X014109Y002813D03*
X013099Y002823D03*
X013089Y002833D03*
X013079Y003473D03*
X013089Y003493D03*
X012759Y004203D03*
X012719Y004253D03*
X012709Y004263D03*
X012699Y004273D03*
X012689Y004283D03*
X012679Y004293D03*
X012669Y004303D03*
X012639Y004343D03*
X012619Y004363D03*
D53*
X012724Y004243D03*
X012734Y004233D03*
X012744Y004223D03*
X012754Y004213D03*
X012784Y004173D03*
X012804Y004153D03*
X012814Y004143D03*
X013084Y003483D03*
X013074Y003463D03*
X013064Y003453D03*
X013064Y002873D03*
X013074Y002863D03*
X013074Y002853D03*
X013084Y002843D03*
X014124Y002833D03*
X014134Y002843D03*
X014144Y002853D03*
X014154Y003463D03*
X014144Y003473D03*
X014134Y003483D03*
X014194Y004763D03*
X014194Y004773D03*
X014204Y004793D03*
X014204Y004803D03*
X014204Y004813D03*
X014214Y004823D03*
X014214Y004833D03*
X014214Y004843D03*
X014224Y004863D03*
X014224Y004873D03*
X014234Y004903D03*
X015074Y009173D03*
D54*
X014199Y004783D03*
X014189Y004753D03*
X014189Y004743D03*
X014179Y004733D03*
X014179Y004723D03*
X014179Y004713D03*
X014169Y004683D03*
X014159Y003453D03*
X014169Y003433D03*
X014159Y002883D03*
X014159Y002873D03*
X014149Y002863D03*
X013059Y002883D03*
X013049Y002893D03*
X013049Y002903D03*
X013039Y002923D03*
X013039Y003403D03*
X013039Y003413D03*
X013049Y003423D03*
X013049Y003433D03*
X013059Y003443D03*
X012869Y004083D03*
X012859Y004093D03*
X012849Y004103D03*
X012839Y004113D03*
X012829Y004123D03*
X012819Y004133D03*
X012799Y004163D03*
X012779Y004183D03*
X012769Y004193D03*
D55*
X012874Y004073D03*
X012884Y004063D03*
X012894Y004053D03*
X012904Y004043D03*
X012914Y004033D03*
X012924Y004023D03*
X012924Y004013D03*
X012944Y003993D03*
X012964Y003973D03*
X013034Y003393D03*
X013034Y003383D03*
X013024Y003373D03*
X013024Y003363D03*
X013014Y003343D03*
X013014Y002983D03*
X013024Y002963D03*
X013024Y002953D03*
X013034Y002933D03*
X013044Y002913D03*
X013604Y003873D03*
X014164Y003443D03*
X014174Y003423D03*
X014184Y003413D03*
X014184Y003403D03*
X014194Y003383D03*
X014174Y002903D03*
X014164Y002893D03*
X014134Y004563D03*
X014144Y004593D03*
X014144Y004603D03*
X014154Y004623D03*
X014154Y004633D03*
X014154Y004643D03*
X014164Y004653D03*
X014164Y004663D03*
X014164Y004673D03*
X014174Y004693D03*
X014174Y004703D03*
X011414Y004893D03*
D56*
X012939Y004003D03*
X012959Y003983D03*
X012969Y003963D03*
X012979Y003953D03*
X012989Y003943D03*
X012999Y003933D03*
X013009Y003923D03*
X013019Y003913D03*
X013119Y003803D03*
X013019Y003353D03*
X013009Y003333D03*
X013009Y003323D03*
X013009Y003313D03*
X012999Y003293D03*
X012999Y003283D03*
X012999Y003273D03*
X012989Y003213D03*
X012989Y003113D03*
X012999Y003043D03*
X012999Y003033D03*
X013009Y003003D03*
X013009Y002993D03*
X013019Y002973D03*
X013029Y002943D03*
X014179Y002923D03*
X014179Y002913D03*
X014189Y002933D03*
X014189Y002943D03*
X014199Y002953D03*
X014199Y002963D03*
X014209Y002983D03*
X014219Y003023D03*
X014219Y003303D03*
X014209Y003333D03*
X014209Y003343D03*
X014199Y003363D03*
X014199Y003373D03*
X014189Y003393D03*
X014109Y004473D03*
X014119Y004503D03*
X014119Y004513D03*
X014119Y004523D03*
X014129Y004533D03*
X014129Y004543D03*
X014129Y004553D03*
X014139Y004573D03*
X014139Y004583D03*
X014149Y004613D03*
D57*
X014114Y004493D03*
X014114Y004483D03*
X014104Y004463D03*
X014104Y004453D03*
X014104Y004443D03*
X014094Y004433D03*
X014094Y004423D03*
X014094Y004413D03*
X014084Y004393D03*
X014084Y004383D03*
X014074Y004353D03*
X014204Y003353D03*
X014214Y003323D03*
X014214Y003313D03*
X014224Y003293D03*
X014224Y003283D03*
X014224Y003273D03*
X014234Y003263D03*
X014234Y003243D03*
X014234Y003233D03*
X014234Y003223D03*
X014234Y003203D03*
X014234Y003103D03*
X014234Y003083D03*
X014224Y003053D03*
X014224Y003043D03*
X014224Y003033D03*
X014214Y003013D03*
X014214Y003003D03*
X014214Y002993D03*
X014204Y002973D03*
X013004Y003013D03*
X013004Y003023D03*
X012994Y003053D03*
X012994Y003063D03*
X012994Y003073D03*
X012994Y003083D03*
X012994Y003093D03*
X012984Y003133D03*
X012984Y003143D03*
X012984Y003153D03*
X012984Y003173D03*
X012984Y003193D03*
X012994Y003233D03*
X012994Y003243D03*
X012994Y003253D03*
X012994Y003263D03*
X013004Y003303D03*
X013104Y003813D03*
X013084Y003833D03*
X013074Y003853D03*
X013064Y003863D03*
X013054Y003873D03*
X013044Y003883D03*
X013034Y003893D03*
X013024Y003903D03*
D58*
X013079Y003843D03*
X013099Y003823D03*
X012989Y003223D03*
X012989Y003203D03*
X012989Y003183D03*
X012989Y003163D03*
X012989Y003123D03*
X012989Y003103D03*
X014229Y003093D03*
X014229Y003073D03*
X014229Y003063D03*
X014239Y003113D03*
X014239Y003123D03*
X014239Y003133D03*
X014239Y003143D03*
X014239Y003153D03*
X014239Y003163D03*
X014239Y003173D03*
X014239Y003183D03*
X014239Y003193D03*
X014239Y003213D03*
X014229Y003253D03*
X014049Y004263D03*
X014059Y004293D03*
X014059Y004303D03*
X014059Y004313D03*
X014069Y004323D03*
X014069Y004333D03*
X014069Y004343D03*
X014079Y004363D03*
X014079Y004373D03*
X014089Y004403D03*
D59*
X014049Y003583D03*
X014059Y003573D03*
X014069Y003563D03*
X013159Y003563D03*
X012419Y004593D03*
X012409Y004603D03*
X012399Y004613D03*
X012389Y004623D03*
X012379Y004633D03*
X012369Y004643D03*
X012339Y004683D03*
X012089Y005673D03*
X012089Y005693D03*
X012089Y005713D03*
X012089Y005743D03*
X014339Y005283D03*
X014339Y005273D03*
X014339Y005263D03*
X014329Y005233D03*
X014349Y005293D03*
X014349Y005303D03*
X014349Y005313D03*
X014359Y005333D03*
X014359Y005343D03*
X014369Y005373D03*
D60*
X014524Y005903D03*
X014524Y005913D03*
X014534Y005933D03*
X014534Y005943D03*
X014534Y005953D03*
X014544Y005963D03*
X014544Y005973D03*
X014544Y005983D03*
X014554Y006003D03*
X014554Y006013D03*
X014564Y006043D03*
X011974Y006043D03*
X011974Y006033D03*
X011984Y005363D03*
X011984Y005353D03*
X010864Y005363D03*
X010854Y005373D03*
X010864Y006023D03*
X011424Y006473D03*
X013234Y003623D03*
D61*
X013259Y003633D03*
X011949Y005313D03*
X011939Y006083D03*
X012259Y006303D03*
X010899Y006063D03*
X010899Y005323D03*
X014609Y006193D03*
X014609Y006203D03*
X014619Y006223D03*
X014619Y006233D03*
X014619Y006243D03*
X014629Y006253D03*
X014629Y006263D03*
X014629Y006273D03*
X014639Y006293D03*
X014639Y006303D03*
X014649Y006333D03*
D62*
X012444Y006413D03*
X012424Y006403D03*
X012404Y006393D03*
X012394Y006383D03*
X012374Y006373D03*
X011914Y006103D03*
X011914Y005283D03*
X010924Y005293D03*
X010934Y006103D03*
X013284Y003643D03*
D63*
X013324Y003653D03*
X011864Y005243D03*
X010994Y006143D03*
X012734Y006583D03*
X012784Y006613D03*
X012804Y006623D03*
X013884Y007333D03*
X013874Y007353D03*
X013874Y008173D03*
X013874Y008183D03*
X013884Y008203D03*
X013894Y008223D03*
X013904Y008243D03*
X016154Y008213D03*
X016164Y008193D03*
X016164Y008183D03*
X016174Y008173D03*
X016174Y008163D03*
X016184Y008143D03*
X016174Y007353D03*
X016164Y007333D03*
X016164Y007323D03*
X016154Y007313D03*
X016154Y007303D03*
D64*
X015034Y009083D03*
X011424Y006303D03*
X013614Y003663D03*
D65*
X013604Y003693D03*
X013594Y003703D03*
X014954Y006413D03*
X015034Y009093D03*
D66*
X013809Y007103D03*
X013509Y003793D03*
X013589Y003713D03*
D67*
X013574Y003723D03*
X013564Y003733D03*
X013554Y003743D03*
X013544Y003753D03*
X013524Y003773D03*
X013514Y003783D03*
X011424Y006333D03*
D68*
X011424Y006413D03*
X013844Y007213D03*
X014224Y006903D03*
X015824Y006903D03*
X015824Y008623D03*
X014234Y008633D03*
X013634Y003803D03*
D69*
X013654Y003813D03*
X011424Y004963D03*
X014194Y006923D03*
X014204Y006913D03*
X015834Y006913D03*
X015834Y008613D03*
D70*
X015864Y008593D03*
X015874Y008583D03*
X014204Y008613D03*
X014194Y008603D03*
X013854Y007233D03*
X015864Y006933D03*
X013664Y003823D03*
X011424Y006423D03*
D71*
X013674Y003833D03*
X014154Y006953D03*
X014144Y006963D03*
X014164Y008583D03*
D72*
X013619Y003883D03*
D73*
X013584Y003883D03*
X011454Y004883D03*
D74*
X013944Y003903D03*
D75*
X013954Y003933D03*
X013964Y003973D03*
X013974Y004003D03*
X013974Y004013D03*
X013984Y004033D03*
X013984Y004043D03*
X013984Y004053D03*
X013994Y004063D03*
X013994Y004073D03*
X013994Y004083D03*
X014004Y004103D03*
D76*
X013999Y004093D03*
X014009Y004113D03*
X014009Y004123D03*
X014009Y004133D03*
X014009Y004143D03*
X014019Y004153D03*
X014019Y004163D03*
X014029Y004193D03*
X014029Y004203D03*
D77*
X014034Y004213D03*
X014034Y004223D03*
X014044Y004233D03*
X014044Y004243D03*
X014044Y004253D03*
X014054Y004273D03*
X014054Y004283D03*
X014024Y004183D03*
X014024Y004173D03*
D78*
X011409Y004883D03*
D79*
X011419Y004913D03*
X011929Y005293D03*
X012339Y006353D03*
X012359Y006363D03*
X010929Y006093D03*
D80*
X010979Y005253D03*
X011419Y004923D03*
X012699Y006563D03*
X012719Y006573D03*
X012749Y006593D03*
X012769Y006603D03*
X013879Y007343D03*
X013869Y007363D03*
X013869Y007373D03*
X013869Y007383D03*
X013859Y007393D03*
X013859Y007403D03*
X013849Y007423D03*
X013849Y008113D03*
X013859Y008133D03*
X013859Y008143D03*
X013869Y008153D03*
X013869Y008163D03*
X013879Y008193D03*
X016179Y008153D03*
X016189Y008133D03*
X016189Y008123D03*
X016199Y008103D03*
X016199Y008093D03*
X016199Y007423D03*
X016189Y007403D03*
X016189Y007393D03*
X016179Y007373D03*
X016179Y007363D03*
X016169Y007343D03*
D81*
X016069Y007153D03*
X016059Y007143D03*
X016079Y008353D03*
X016069Y008363D03*
X016069Y008373D03*
X015049Y009153D03*
X014019Y008433D03*
X014009Y008413D03*
X013999Y008403D03*
X013179Y006843D03*
X013159Y006833D03*
X013129Y006813D03*
X013109Y006803D03*
X013079Y006783D03*
X011889Y006143D03*
X011819Y005223D03*
X011419Y004933D03*
D82*
X011424Y004943D03*
X011884Y006153D03*
X013434Y006993D03*
X014094Y008513D03*
X015974Y008483D03*
X015984Y008473D03*
X015984Y007043D03*
X015974Y007033D03*
X015964Y007023D03*
D83*
X015899Y006963D03*
X015889Y006953D03*
X014769Y006353D03*
X013859Y007243D03*
X011879Y006163D03*
X011419Y004953D03*
X015049Y009143D03*
X015899Y008563D03*
X015909Y008553D03*
D84*
X014504Y005843D03*
X014504Y005833D03*
X014494Y005813D03*
X014494Y005803D03*
X014494Y005793D03*
X014484Y005783D03*
X014484Y005773D03*
X014484Y005763D03*
X014474Y005743D03*
X014474Y005733D03*
X014464Y005703D03*
X012024Y005423D03*
X012014Y005403D03*
X012064Y004993D03*
X012074Y004983D03*
X012084Y004973D03*
X012014Y005983D03*
X012004Y005993D03*
X010844Y005993D03*
X010834Y005973D03*
X010824Y005963D03*
X010814Y005443D03*
X010824Y005423D03*
D85*
X011424Y004983D03*
X014834Y006363D03*
X015764Y008663D03*
D86*
X015024Y006483D03*
X011614Y005003D03*
D87*
X011599Y005013D03*
X015029Y009043D03*
D88*
X013784Y007003D03*
X011594Y005023D03*
D89*
X011579Y005033D03*
X011569Y005043D03*
D90*
X011554Y005053D03*
X011544Y005063D03*
X015014Y006493D03*
D91*
X015029Y009033D03*
X011509Y005103D03*
X011519Y005093D03*
X011529Y005083D03*
X011539Y005073D03*
D92*
X011494Y005113D03*
X011494Y005123D03*
X011474Y005143D03*
X011454Y005163D03*
X011444Y005173D03*
D93*
X011439Y005183D03*
X011429Y005193D03*
X011459Y005153D03*
X011479Y005133D03*
D94*
X011429Y005203D03*
D95*
X011784Y005213D03*
X014124Y008543D03*
X015934Y006993D03*
X015944Y007003D03*
X015954Y007013D03*
D96*
X015949Y008513D03*
X015939Y008523D03*
X015929Y008533D03*
X014129Y008553D03*
X014109Y006993D03*
X014119Y006983D03*
X011429Y006433D03*
X011079Y006173D03*
X011069Y005213D03*
D97*
X011039Y005223D03*
X011039Y006163D03*
X011429Y006443D03*
X013229Y006873D03*
X013249Y006883D03*
X013259Y006893D03*
X013279Y006903D03*
X013299Y006913D03*
X013879Y007283D03*
X014029Y008443D03*
X014039Y008453D03*
X014049Y008463D03*
X016019Y008433D03*
X016029Y008423D03*
X016039Y008413D03*
X016039Y008403D03*
X016029Y007103D03*
X016029Y007093D03*
X016009Y007073D03*
D98*
X016099Y007203D03*
X016109Y007223D03*
X016119Y008283D03*
X016109Y008303D03*
X016099Y008323D03*
X016089Y008333D03*
X013969Y008363D03*
X013959Y008343D03*
X013949Y008333D03*
X013009Y006743D03*
X012989Y006733D03*
X012939Y006703D03*
X011839Y005233D03*
X011009Y005233D03*
D99*
X010944Y005273D03*
X010964Y006123D03*
X011894Y005263D03*
X012494Y006443D03*
X012524Y006463D03*
X012544Y006473D03*
X012564Y006483D03*
X013804Y007613D03*
X013804Y007633D03*
X013804Y007643D03*
X013804Y007653D03*
X013804Y007663D03*
X013794Y007703D03*
X013794Y007713D03*
X013794Y007723D03*
X013794Y007733D03*
X013794Y007743D03*
X013794Y007753D03*
X013794Y007763D03*
X013794Y007773D03*
X013794Y007783D03*
X013794Y007793D03*
X013794Y007803D03*
X013794Y007813D03*
X013794Y007823D03*
X013794Y007833D03*
X013794Y007843D03*
X013794Y007863D03*
X013804Y007903D03*
X013804Y007913D03*
X013804Y007923D03*
X013804Y007933D03*
X013804Y007943D03*
X013814Y007963D03*
X013814Y007983D03*
X016234Y007943D03*
X016244Y007893D03*
X016244Y007883D03*
X016244Y007873D03*
X016244Y007853D03*
X016244Y007833D03*
X016244Y007813D03*
X016244Y007793D03*
X016254Y007773D03*
X016254Y007753D03*
X016254Y007733D03*
X016244Y007693D03*
X016244Y007673D03*
X016244Y007663D03*
X016244Y007653D03*
X016244Y007643D03*
X016244Y007623D03*
X016234Y007573D03*
D100*
X016124Y007243D03*
X016114Y007233D03*
X016104Y007213D03*
X016134Y008253D03*
X016134Y008263D03*
X016124Y008273D03*
X016114Y008293D03*
X013944Y008313D03*
X013944Y008323D03*
X013934Y008303D03*
X013924Y008283D03*
X013884Y007313D03*
X013884Y007303D03*
X012974Y006723D03*
X012954Y006713D03*
X012924Y006693D03*
X012904Y006683D03*
X011424Y006453D03*
X011014Y006153D03*
D101*
X011509Y006183D03*
X011519Y006193D03*
X015019Y006543D03*
D102*
X015029Y008983D03*
X011539Y006203D03*
D103*
X011544Y006213D03*
X011564Y006223D03*
D104*
X011574Y006233D03*
X015024Y008973D03*
D105*
X011589Y006243D03*
D106*
X011604Y006253D03*
X011614Y006263D03*
X011634Y006273D03*
X015014Y006563D03*
D107*
X015024Y008963D03*
X011644Y006283D03*
D108*
X011429Y006293D03*
X013789Y007063D03*
D109*
X015664Y006823D03*
X011424Y006363D03*
D110*
X011424Y006373D03*
X014354Y006833D03*
X015684Y006833D03*
X015694Y008693D03*
X014354Y008693D03*
D111*
X015669Y008703D03*
X013819Y007143D03*
X014379Y006823D03*
X014899Y006383D03*
D112*
X013824Y007163D03*
X011424Y006383D03*
D113*
X013814Y007133D03*
X014914Y006393D03*
D114*
X014304Y006853D03*
X013834Y007183D03*
X015734Y006853D03*
X015744Y008673D03*
X011424Y006393D03*
D115*
X014989Y006433D03*
D116*
X015004Y006443D03*
D117*
X015009Y006453D03*
X015029Y009073D03*
D118*
X013789Y007043D03*
X015019Y006463D03*
D119*
X015014Y006473D03*
X013784Y007023D03*
D120*
X011424Y006493D03*
D121*
X015024Y006503D03*
D122*
X015014Y006513D03*
D123*
X015019Y006523D03*
X015029Y009003D03*
D124*
X015014Y006533D03*
D125*
X015019Y006553D03*
D126*
X015019Y006573D03*
D127*
X015019Y006583D03*
D128*
X015014Y006593D03*
D129*
X015019Y006603D03*
D130*
X015014Y006613D03*
X015024Y008913D03*
D131*
X015019Y006623D03*
D132*
X015019Y006633D03*
D133*
X015014Y006643D03*
D134*
X015019Y006653D03*
D135*
X015019Y006663D03*
D136*
X015019Y006673D03*
D137*
X015014Y006683D03*
X015024Y008843D03*
D138*
X015029Y008833D03*
X015019Y006693D03*
D139*
X015019Y006703D03*
D140*
X015019Y006713D03*
D141*
X015019Y006723D03*
D142*
X015019Y006733D03*
D143*
X015014Y006743D03*
X015024Y008783D03*
D144*
X015024Y008773D03*
X015024Y006753D03*
D145*
X016074Y007163D03*
X016084Y007173D03*
X016084Y007183D03*
X016094Y007193D03*
X016104Y008313D03*
X016084Y008343D03*
X013994Y008393D03*
X013984Y008383D03*
X013974Y008373D03*
X013964Y008353D03*
X013884Y007293D03*
X013094Y006793D03*
X013054Y006773D03*
X013044Y006763D03*
X013024Y006753D03*
D146*
X015014Y006763D03*
D147*
X015024Y006773D03*
X015024Y008753D03*
D148*
X015019Y006783D03*
D149*
X015019Y006793D03*
D150*
X015019Y006803D03*
D151*
X015719Y006843D03*
X014329Y006843D03*
X014329Y008683D03*
D152*
X014289Y008663D03*
X013839Y007193D03*
X015759Y006863D03*
D153*
X015794Y006883D03*
X015794Y008643D03*
X014254Y008643D03*
D154*
X014269Y008653D03*
X015779Y008653D03*
X014249Y006883D03*
X013839Y007203D03*
D155*
X013364Y006953D03*
X013334Y006933D03*
X013314Y006923D03*
X014054Y008473D03*
X014064Y008483D03*
X016004Y008453D03*
X016014Y008443D03*
X016014Y007083D03*
D156*
X015879Y006943D03*
X014179Y006933D03*
X014169Y006943D03*
X014179Y008593D03*
X015889Y008573D03*
D157*
X015999Y008463D03*
X015999Y007063D03*
X015989Y007053D03*
X014079Y008503D03*
X014069Y008493D03*
X013869Y007273D03*
X013419Y006983D03*
X013399Y006973D03*
X013379Y006963D03*
X013349Y006943D03*
D158*
X013779Y007013D03*
D159*
X013784Y007033D03*
D160*
X013794Y007053D03*
D161*
X013799Y007073D03*
D162*
X013814Y007123D03*
X015034Y009103D03*
D163*
X013819Y007153D03*
D164*
X013829Y007173D03*
X015039Y009123D03*
D165*
X014219Y008623D03*
X013849Y007223D03*
D166*
X015629Y008713D03*
D167*
X015024Y008723D03*
D168*
X015024Y008733D03*
D169*
X015024Y008743D03*
D170*
X015029Y008763D03*
D171*
X015024Y008793D03*
D172*
X015024Y008803D03*
D173*
X015024Y008813D03*
D174*
X015024Y008823D03*
D175*
X015024Y008853D03*
D176*
X015024Y008863D03*
D177*
X015024Y008873D03*
D178*
X015029Y008883D03*
D179*
X015024Y008893D03*
D180*
X015024Y008903D03*
D181*
X015024Y008923D03*
D182*
X015029Y008933D03*
D183*
X015024Y008943D03*
D184*
X015029Y008953D03*
D185*
X015029Y008993D03*
D186*
X015024Y009013D03*
D187*
X015034Y009023D03*
D188*
X015029Y009053D03*
D189*
X015034Y009063D03*
D190*
X015885Y002343D02*
X015885Y002323D01*
X015875Y002323D01*
X015871Y002327D01*
X015871Y002333D01*
X015875Y002337D01*
X015885Y002337D01*
X015891Y002327D02*
X015891Y002323D01*
X015894Y002323D01*
X015894Y002327D01*
X015891Y002327D01*
X015899Y002323D02*
X015912Y002323D01*
X015899Y002337D01*
X015899Y002340D01*
X015902Y002343D01*
X015909Y002343D01*
X015912Y002340D01*
X015917Y002333D02*
X015917Y002323D01*
X015927Y002323D01*
X015931Y002327D01*
X015927Y002330D01*
X015917Y002330D01*
X015917Y002333D02*
X015921Y002337D01*
X015927Y002337D01*
X015940Y002343D02*
X015940Y002323D01*
X015943Y002323D02*
X015936Y002323D01*
X015948Y002327D02*
X015951Y002323D01*
X015961Y002323D01*
X015966Y002323D02*
X015966Y002337D01*
X015961Y002337D02*
X015951Y002337D01*
X015948Y002333D01*
X015948Y002327D01*
X015961Y002317D02*
X015961Y002337D01*
X015966Y002323D02*
X015976Y002323D01*
X015980Y002327D01*
X015980Y002337D01*
X015985Y002337D02*
X015995Y002337D01*
X015998Y002333D01*
X015995Y002330D01*
X015988Y002330D01*
X015985Y002327D01*
X015988Y002323D01*
X015998Y002323D01*
X016022Y002327D02*
X016022Y002333D01*
X016025Y002337D01*
X016032Y002337D01*
X016035Y002333D01*
X016035Y002327D01*
X016032Y002323D01*
X016025Y002323D01*
X016022Y002327D01*
X016040Y002323D02*
X016050Y002323D01*
X016053Y002327D01*
X016053Y002333D01*
X016050Y002337D01*
X016040Y002337D01*
X016040Y002320D01*
X016043Y002317D01*
X016047Y002317D01*
X016059Y002327D02*
X016059Y002333D01*
X016062Y002337D01*
X016069Y002337D01*
X016072Y002333D01*
X016072Y002327D01*
X016069Y002323D01*
X016062Y002323D01*
X016059Y002327D01*
X016078Y002323D02*
X016084Y002323D01*
X016081Y002323D02*
X016081Y002343D01*
X016084Y002343D01*
X016089Y002343D02*
X016103Y002323D01*
X016108Y002327D02*
X016111Y002330D01*
X016118Y002330D01*
X016121Y002333D01*
X016118Y002337D01*
X016108Y002337D01*
X016108Y002327D02*
X016111Y002323D01*
X016121Y002323D01*
X016129Y002323D02*
X016136Y002323D01*
X016139Y002327D01*
X016139Y002333D01*
X016136Y002337D01*
X016129Y002337D01*
X016126Y002333D01*
X016126Y002330D01*
X016139Y002330D01*
X016145Y002337D02*
X016148Y002337D01*
X016155Y002330D01*
X016155Y002323D02*
X016155Y002337D01*
X016160Y002337D02*
X016160Y002323D01*
X016170Y002323D01*
X016173Y002327D01*
X016173Y002337D01*
X016179Y002337D02*
X016185Y002337D01*
X016182Y002340D02*
X016182Y002327D01*
X016179Y002323D01*
X016191Y002323D02*
X016201Y002323D01*
X016204Y002327D01*
X016204Y002333D01*
X016201Y002337D01*
X016191Y002337D01*
X016213Y002337D02*
X016213Y002323D01*
X016216Y002323D02*
X016209Y002323D01*
X016213Y002337D02*
X016216Y002337D01*
X016221Y002340D02*
X016221Y002333D01*
X016225Y002330D01*
X016235Y002330D01*
X016235Y002323D02*
X016235Y002343D01*
X016225Y002343D01*
X016221Y002340D01*
X016213Y002343D02*
X016213Y002347D01*
X016240Y002343D02*
X016253Y002323D01*
X016258Y002327D02*
X016258Y002333D01*
X016261Y002337D01*
X016268Y002337D01*
X016271Y002333D01*
X016271Y002327D01*
X016268Y002323D01*
X016261Y002323D01*
X016258Y002327D01*
X016277Y002323D02*
X016284Y002323D01*
X016280Y002323D02*
X016280Y002343D01*
X016284Y002343D01*
X016292Y002337D02*
X016302Y002337D01*
X016302Y002343D02*
X016302Y002323D01*
X016292Y002323D01*
X016289Y002327D01*
X016289Y002333D01*
X016292Y002337D01*
X016307Y002333D02*
X016307Y002323D01*
X016317Y002323D01*
X016321Y002327D01*
X016317Y002330D01*
X016307Y002330D01*
X016307Y002333D02*
X016310Y002337D01*
X016317Y002337D01*
X016326Y002333D02*
X016326Y002327D01*
X016329Y002323D01*
X016339Y002323D01*
X016344Y002327D02*
X016347Y002330D01*
X016354Y002330D01*
X016357Y002333D01*
X016354Y002337D01*
X016344Y002337D01*
X016339Y002337D02*
X016329Y002337D01*
X016326Y002333D01*
X016339Y002337D02*
X016339Y002317D01*
X016347Y002323D02*
X016344Y002327D01*
X016347Y002323D02*
X016357Y002323D01*
X016362Y002323D02*
X016376Y002323D01*
X016376Y002343D01*
X016362Y002343D01*
X016369Y002333D02*
X016376Y002333D01*
X016381Y002343D02*
X016394Y002323D01*
X016399Y002327D02*
X016403Y002330D01*
X016409Y002330D01*
X016413Y002333D01*
X016409Y002337D01*
X016399Y002337D01*
X016399Y002327D02*
X016403Y002323D01*
X016413Y002323D01*
X016418Y002337D02*
X016421Y002337D01*
X016428Y002330D01*
X016433Y002330D02*
X016446Y002330D01*
X016446Y002333D02*
X016443Y002337D01*
X016436Y002337D01*
X016433Y002333D01*
X016433Y002330D01*
X016436Y002323D02*
X016443Y002323D01*
X016446Y002327D01*
X016446Y002333D01*
X016451Y002337D02*
X016461Y002337D01*
X016465Y002333D01*
X016461Y002330D01*
X016455Y002330D01*
X016451Y002327D01*
X016455Y002323D01*
X016465Y002323D01*
X016470Y002327D02*
X016470Y002343D01*
X016483Y002343D02*
X016483Y002327D01*
X016480Y002323D01*
X016473Y002323D01*
X016470Y002327D01*
X016488Y002343D02*
X016502Y002323D01*
X016507Y002323D02*
X016511Y002323D01*
X016511Y002327D01*
X016507Y002327D01*
X016507Y002323D01*
X016516Y002327D02*
X016519Y002323D01*
X016526Y002323D01*
X016529Y002327D01*
X016529Y002340D01*
X016526Y002343D01*
X016519Y002343D01*
X016516Y002340D01*
X016511Y002337D02*
X016511Y002333D01*
X016507Y002333D01*
X016507Y002337D01*
X016511Y002337D01*
X016428Y002337D02*
X016428Y002323D01*
X015943Y002343D02*
X015940Y002343D01*
X015866Y002337D02*
X015863Y002337D01*
X015860Y002333D01*
X015856Y002337D01*
X015853Y002333D01*
X015853Y002323D01*
X015848Y002323D02*
X015838Y002323D01*
X015835Y002327D01*
X015835Y002333D01*
X015838Y002337D01*
X015848Y002337D01*
X015848Y002317D01*
X015860Y002323D02*
X015860Y002333D01*
X015866Y002337D02*
X015866Y002323D01*
M02*
